<?xml version="1.0" encoding="UTF-8" standalone="no"?>
<!-- Generator: Adobe Illustrator 15.1.0, SVG Export Plug-In . SVG Version: 6.00 Build 0)  -->

<svg
   version="1.1"
   id="Layer_1"
   x="0px"
   y="0px"
   width="1029.771px"
   height="581.236px"
   viewBox="0 0 1029.771 581.236"
   enable-background="new 0 0 1029.771 581.236"
   xml:space="preserve"
   sodipodi:docname="logo-blue-(rgb).svg"
   inkscape:version="1.2.2 (b0a8486541, 2022-12-01)"
   xmlns:inkscape="http://www.inkscape.org/namespaces/inkscape"
   xmlns:sodipodi="http://sodipodi.sourceforge.net/DTD/sodipodi-0.dtd"
   xmlns="http://www.w3.org/2000/svg"
   xmlns:svg="http://www.w3.org/2000/svg"><defs
   id="defs59">
	
	
	
	
	

		
		
		
		
		
		
		
		
		
		
		
	
		
		
		
	
		
		
		
		
		
		
		
	</defs><sodipodi:namedview
   id="namedview57"
   pagecolor="#ffffff"
   bordercolor="#000000"
   borderopacity="0.25"
   inkscape:showpageshadow="2"
   inkscape:pageopacity="0.0"
   inkscape:pagecheckerboard="0"
   inkscape:deskcolor="#d1d1d1"
   showgrid="false"
   inkscape:zoom="0.80420712"
   inkscape:cx="453.86318"
   inkscape:cy="164.75855"
   inkscape:window-width="1920"
   inkscape:window-height="1032"
   inkscape:window-x="0"
   inkscape:window-y="25"
   inkscape:window-maximized="1"
   inkscape:current-layer="Layer_1" />
<path
   id="path2"
   d="M 711.58398 0.056640625 C 690.03126 -0.34323398 668.33309 1.3150194 646.78711 5.1035156 C 643.22811 5.728515 639.65737 6.427157 636.10938 7.1601562 C 621.85939 10.136153 609.85842 19.298638 603.23242 32.265625 C 596.60543 45.239612 596.1921 60.31206 602.12109 73.623047 C 609.48609 90.15603 614.80446 107.55221 617.93945 125.36719 C 619.43826 133.89863 620.24905 142.53822 620.73633 151.20508 L 755.20508 151.20508 C 768.10703 151.20508 780.09789 154.77956 790.18945 160.86914 C 790.63735 130.8688 797.08719 101.19443 809.34375 73.867188 C 815.29474 60.573201 814.92135 45.500331 808.31836 32.527344 C 801.72537 19.548357 789.75361 10.357372 775.51562 7.359375 C 754.54465 2.9153794 733.13671 0.45651523 711.58398 0.056640625 z M 951.67969 375.36133 L 951.67969 408.47266 C 951.67969 408.47266 951.70662 444.24414 912.59766 444.24414 L 805.63477 444.24414 C 810.25876 452.61013 812.90625 462.21432 812.90625 472.44531 C 812.90625 480.79069 811.12797 488.71183 807.97461 495.89258 C 837.67515 511.71578 863.4239 534.20389 883.03516 561.36719 C 891.56715 573.17318 904.8153 580.38897 919.36328 581.16797 C 933.89827 581.93497 947.84023 576.15916 957.57422 565.32617 C 989.34119 529.95921 1012.8833 488.75035 1027.3613 444.65039 C 1031.9053 430.8184 1029.9608 415.86671 1022.0508 403.63672 C 1014.1428 391.41773 1001.2828 383.52176 986.79883 382.00977 C 974.92033 380.76387 963.18024 378.49936 951.67969 375.36133 z M 383.34961 444.24414 C 390.48369 465.98329 399.92015 487.36819 411.80664 507.99609 C 423.70963 528.67907 437.5268 547.63888 452.80078 564.75586 C 462.49477 575.62285 476.45216 581.45356 490.99414 580.72656 C 505.52713 579.99456 518.83268 572.78994 527.38867 561.00195 C 543.78966 538.40198 564.41413 519.0243 588.03711 504.07031 C 588.70121 503.65022 589.39177 503.27049 590.06055 502.85742 C 584.63189 493.99114 581.44531 483.60203 581.44531 472.44531 C 581.44531 462.21432 584.08861 452.61013 588.72461 444.24414 L 383.34961 444.24414 z "
   style="fill:none;stroke:#000000;stroke-opacity:1;vector-effect:non-scaling-stroke;-inkscape-stroke:hairline;stroke-width:1;stroke-dasharray:none" /><path
   fill="#182e33"
   d="m 833.67,236.023 h -19.274 c 3.508,-7.445 5.482,-15.663 5.482,-24.322 0,-33.415 -28.957,-60.495 -64.673,-60.495 H 294.699 c -35.716,0 -64.676,27.08 -64.676,60.495 0,8.659 1.98,16.876 5.485,24.322 H 94.168 C 36.66,236.023 0,282.635 0,340.137 0,397.628 36.66,444.245 94.168,444.245 h 494.557 c -4.636,8.366 -7.279,17.97 -7.279,28.201 0,32.248 26.147,58.396 58.384,58.396 h 114.7 c 32.241,0 58.377,-26.147 58.377,-58.396 0,-10.231 -2.649,-19.835 -7.273,-28.201 h 106.964 c 39.109,0 39.081,-35.772 39.081,-35.772 v -61.297 c 0,-80.839 -39.081,-111.153 -118.009,-111.153 z"
   id="path4"
   style="fill:none;stroke:#000000;stroke-opacity:1;vector-effect:non-scaling-stroke;-inkscape-stroke:hairline;stroke-width:1;stroke-dasharray:none" /><path
   fill="#3da1c6"
   d="m 106.5,268.214 c -9.588,0 -18.771,1.797 -27.506,5.368 -8.75,3.582 -16.43,8.567 -23.045,14.936 -6.624,6.387 -11.906,13.976 -15.852,22.776 -3.949,8.813 -5.92,18.496 -5.92,29.049 0,10.576 2.006,20.321 6.009,29.243 4.012,8.928 9.322,16.647 15.946,23.143 6.61,6.501 14.261,11.537 22.951,15.12 8.681,3.582 17.757,5.368 27.237,5.368 4.612,0 9.285,-0.452 14.023,-1.362 4.735,-0.91 9.837,-2.335 15.306,-4.28 l 3.643,-1.271 v -42.269 c -9.111,9.717 -19.369,14.57 -30.786,14.57 -5.222,0 -10.081,-0.962 -14.576,-2.907 -4.495,-1.946 -8.41,-4.624 -11.752,-8.023 -3.339,-3.399 -5.946,-7.405 -7.829,-12.023 -1.891,-4.612 -2.824,-9.654 -2.824,-15.125 0,-5.334 0.933,-10.312 2.824,-14.937 1.883,-4.602 4.461,-8.584 7.731,-11.932 3.291,-3.337 7.205,-5.975 11.757,-7.915 4.558,-1.945 9.5,-2.924 14.845,-2.924 12.144,0 22.351,5.041 30.608,15.125 V 275.31 c -5.829,-2.426 -11.391,-4.212 -16.667,-5.368 -5.287,-1.156 -10.66,-1.728 -16.123,-1.728 z"
   id="path6"
   style="fill:none;stroke:#000000;stroke-opacity:1;vector-effect:non-scaling-stroke;-inkscape-stroke:hairline;stroke-width:1;stroke-dasharray:none" /><path
   fill="#3da1c6"
   d="m 258.087,339.897 c 5.036,-6.501 7.56,-14.965 7.56,-25.415 0,-5.831 -0.944,-11.291 -2.819,-16.396 -1.891,-5.104 -4.678,-9.591 -8.381,-13.482 -3.703,-3.88 -8.418,-6.948 -14.118,-9.197 -5.717,-2.249 -12.395,-3.371 -20.041,-3.371 h -55.565 v 137.357 h 35.707 v -52.832 l 34.067,52.832 h 44.449 l -43.175,-56.295 c 9.835,-2.305 17.278,-6.7 22.316,-13.201 z m -34.702,-10.839 c -3.76,2.913 -9.171,4.372 -16.218,4.372 h -6.736 v -33.884 h 6.736 c 7.047,0 12.458,1.459 16.218,4.378 3.76,2.906 5.648,7.096 5.648,12.566 0,5.461 -1.888,9.655 -5.648,12.568 z"
   id="path8"
   style="fill:none;stroke:#000000;stroke-opacity:1;vector-effect:non-scaling-stroke;-inkscape-stroke:hairline;stroke-width:1;stroke-dasharray:none" /><polygon
   fill="#3da1c6"
   points="331.012,355.474 371.092,355.474 371.092,325.236 331.012,325.236 331.012,302.276 373.464,302.276 373.464,272.037 295.308,272.037 295.308,409.394 373.464,409.394 373.464,379.167 331.012,379.167 "
   id="polygon10"
   style="fill:none;stroke:#000000;stroke-opacity:1;vector-effect:non-scaling-stroke;-inkscape-stroke:hairline;stroke-width:1;stroke-dasharray:none" /><path
   fill="#3da1c6"
   d="M 435.473,272.037 383.19,409.394 h 38.068 l 8.204,-23.864 h 51.004 l 8.207,23.864 h 38.065 l -52.28,-137.357 z m 3.465,86.344 16.03,-45.725 16.026,45.725 z"
   id="path12"
   style="fill:none;stroke:#000000;stroke-opacity:1;vector-effect:non-scaling-stroke;-inkscape-stroke:hairline;stroke-width:1;stroke-dasharray:none" /><polygon
   fill="#3da1c6"
   points="584.232,302.276 613.567,302.276 613.567,272.037 519.205,272.037 519.205,302.276 548.528,302.276 548.528,409.394 584.232,409.394 "
   id="polygon14"
   style="fill:none;stroke:#000000;stroke-opacity:1;vector-effect:non-scaling-stroke;-inkscape-stroke:hairline;stroke-width:1;stroke-dasharray:none" /><path
   fill="#3da1c6"
   d="m 755.497,289.159 c -6.741,-6.558 -14.788,-11.691 -24.127,-15.394 -9.362,-3.697 -19.561,-5.551 -30.611,-5.551 -11.177,0 -21.414,1.854 -30.708,5.551 -9.288,3.703 -17.266,8.836 -23.95,15.394 -6.672,6.558 -11.903,14.25 -15.668,23.051 -3.761,8.808 -5.644,18.302 -5.644,28.505 0,10.204 1.883,19.703 5.644,28.517 3.765,8.802 8.996,16.481 15.668,23.04 6.685,6.558 14.662,11.697 23.95,15.394 9.294,3.697 19.531,5.552 30.708,5.552 11.051,0 21.249,-1.854 30.611,-5.552 9.339,-3.696 17.386,-8.836 24.127,-15.394 6.741,-6.559 11.989,-14.238 15.761,-23.04 3.766,-8.813 5.653,-18.312 5.653,-28.517 0,-10.203 -1.888,-19.697 -5.653,-28.505 -3.772,-8.801 -9.02,-16.493 -15.761,-23.051 z m -19.028,66.675 c -2.077,4.619 -4.893,8.625 -8.476,12.023 -3.594,3.399 -7.72,6.055 -12.396,7.927 -4.669,1.883 -9.614,2.821 -14.839,2.821 -5.225,0 -10.169,-0.938 -14.839,-2.821 -4.692,-1.872 -8.79,-4.527 -12.304,-7.927 -3.525,-3.398 -6.318,-7.404 -8.384,-12.023 -2.061,-4.606 -3.097,-9.654 -3.097,-15.119 0,-5.465 1.036,-10.501 3.097,-15.125 2.065,-4.602 4.858,-8.618 8.384,-12.018 3.514,-3.399 7.611,-6.044 12.304,-7.932 4.67,-1.878 9.614,-2.821 14.839,-2.821 5.225,0 10.17,0.943 14.839,2.821 4.676,1.888 8.802,4.532 12.396,7.932 3.583,3.399 6.398,7.416 8.476,12.018 2.055,4.624 3.091,9.66 3.091,15.125 0,5.465 -1.037,10.513 -3.091,15.119 z"
   id="path16"
   style="fill:none;stroke:#000000;stroke-opacity:1;vector-effect:non-scaling-stroke;-inkscape-stroke:hairline;stroke-width:1;stroke-dasharray:none" /><path
   fill="#3da1c6"
   d="m 869.116,353.099 c 9.844,-2.306 17.277,-6.701 22.324,-13.202 5.03,-6.501 7.549,-14.965 7.549,-25.415 0,-5.831 -0.933,-11.291 -2.815,-16.396 -1.882,-5.105 -4.67,-9.591 -8.378,-13.482 -3.709,-3.88 -8.425,-6.948 -14.112,-9.197 -5.724,-2.249 -12.396,-3.371 -20.041,-3.371 h -55.568 v 137.357 h 35.71 v -52.832 l 34.062,52.832 h 44.449 z m -12.384,-24.041 c -3.766,2.913 -9.174,4.372 -16.213,4.372 h -6.735 v -33.884 h 6.735 c 7.039,0 12.447,1.459 16.213,4.378 3.766,2.906 5.643,7.096 5.643,12.566 0,5.461 -1.877,9.655 -5.643,12.568 z"
   id="path18"
   style="fill:none;stroke:#000000;stroke-opacity:1;vector-effect:non-scaling-stroke;-inkscape-stroke:hairline;stroke-width:1;stroke-dasharray:none" /><polygon
   fill="#fff0e4"
   points="306.096,186.378 277.625,186.378 277.625,236.063 290.541,236.063 290.541,216.561 304.713,216.561 304.713,205.619 290.541,205.619 290.541,197.321 306.096,197.321 "
   id="polygon22"
   style="fill:none;stroke:#000000;stroke-opacity:1;vector-effect:non-scaling-stroke;-inkscape-stroke:hairline;stroke-width:1;stroke-dasharray:none" /><path
   fill="#fff0e4"
   d="m 319.215,229.872 c 2.412,2.369 5.302,4.223 8.656,5.574 3.365,1.339 7.07,2.009 11.108,2.009 4,0 7.691,-0.669 11.076,-2.009 3.379,-1.351 6.29,-3.205 8.73,-5.574 2.44,-2.375 4.335,-5.15 5.7,-8.333 1.368,-3.193 2.048,-6.627 2.048,-10.324 0,-3.686 -0.681,-7.13 -2.048,-10.312 -1.365,-3.182 -3.259,-5.963 -5.7,-8.332 -2.441,-2.375 -5.351,-4.229 -8.73,-5.574 -3.385,-1.339 -7.076,-2.003 -11.076,-2.003 -4.038,0 -7.743,0.664 -11.108,2.003 -3.354,1.345 -6.244,3.199 -8.656,5.574 -2.415,2.369 -4.312,5.15 -5.68,8.332 -1.354,3.182 -2.037,6.627 -2.037,10.312 0,3.697 0.684,7.131 2.037,10.324 1.368,3.182 3.265,5.958 5.68,8.333 z m 6.922,-24.127 c 0.744,-1.66 1.751,-3.113 3.027,-4.344 1.276,-1.23 2.758,-2.192 4.446,-2.861 1.691,-0.681 3.485,-1.024 5.368,-1.024 1.9,0 3.683,0.343 5.374,1.024 1.694,0.669 3.193,1.631 4.49,2.861 1.288,1.23 2.309,2.684 3.053,4.344 0.753,1.671 1.127,3.491 1.127,5.471 0,1.98 -0.375,3.812 -1.127,5.477 -0.744,1.666 -1.765,3.119 -3.053,4.344 -1.296,1.236 -2.796,2.192 -4.49,2.873 -1.691,0.681 -3.474,1.024 -5.374,1.024 -1.883,0 -3.677,-0.344 -5.368,-1.024 -1.688,-0.681 -3.17,-1.637 -4.446,-2.873 -1.276,-1.225 -2.283,-2.678 -3.027,-4.344 -0.75,-1.665 -1.125,-3.497 -1.125,-5.477 0,-1.98 0.375,-3.8 1.125,-5.471 z"
   id="path24"
   style="fill:none;stroke:#000000;stroke-opacity:1;vector-effect:non-scaling-stroke;-inkscape-stroke:hairline;stroke-width:1;stroke-dasharray:none" /><path
   fill="#fff0e4"
   d="m 387.622,216.95 12.318,19.114 h 16.084 L 400.4,215.702 c 3.56,-0.835 6.25,-2.427 8.075,-4.779 1.825,-2.352 2.738,-5.419 2.738,-9.196 0,-2.106 -0.352,-4.086 -1.03,-5.929 -0.678,-1.843 -1.685,-3.468 -3.03,-4.882 -1.333,-1.396 -3.042,-2.512 -5.102,-3.325 -2.069,-0.812 -4.484,-1.213 -7.248,-1.213 H 374.7 v 49.685 h 12.922 z m 0,-20.625 h 2.435 c 2.541,0 4.501,0.526 5.866,1.58 1.353,1.053 2.034,2.569 2.034,4.549 0,1.975 -0.681,3.497 -2.034,4.55 -1.365,1.053 -3.325,1.58 -5.866,1.58 h -2.435 z"
   id="path26"
   style="fill:none;stroke:#000000;stroke-opacity:1;vector-effect:non-scaling-stroke;-inkscape-stroke:hairline;stroke-width:1;stroke-dasharray:none" /><polygon
   fill="#fff0e4"
   points="450.956,186.378 416.813,186.378 416.813,197.321 427.423,197.321 427.423,236.063 440.34,236.063 440.34,197.321 450.956,197.321 "
   id="polygon28"
   style="fill:none;stroke:#000000;stroke-opacity:1;vector-effect:non-scaling-stroke;-inkscape-stroke:hairline;stroke-width:1;stroke-dasharray:none" /><path
   fill="#fff0e4"
   d="m 484.8,230.032 c 2.383,2.358 5.15,4.178 8.298,5.471 3.145,1.293 6.427,1.951 9.854,1.951 1.668,0 3.356,-0.166 5.073,-0.498 1.706,-0.332 3.554,-0.853 5.537,-1.545 l 1.316,-0.469 v -15.291 c -3.299,3.525 -7.01,5.282 -11.136,5.282 -1.886,0 -3.646,-0.361 -5.276,-1.059 -1.625,-0.698 -3.042,-1.671 -4.25,-2.896 -1.208,-1.23 -2.154,-2.678 -2.83,-4.349 -0.684,-1.671 -1.024,-3.497 -1.024,-5.471 0,-1.94 0.34,-3.743 1.024,-5.414 0.675,-1.66 1.617,-3.102 2.795,-4.315 1.185,-1.202 2.604,-2.163 4.258,-2.867 1.643,-0.692 3.425,-1.047 5.365,-1.047 4.395,0 8.086,1.82 11.073,5.471 v -15.428 c -2.112,-0.87 -4.115,-1.522 -6.026,-1.946 -1.917,-0.406 -3.854,-0.618 -5.84,-0.618 -3.468,0 -6.784,0.646 -9.949,1.946 -3.165,1.293 -5.94,3.09 -8.335,5.396 -2.395,2.306 -4.309,5.053 -5.729,8.241 -1.428,3.188 -2.149,6.69 -2.149,10.513 0,3.823 0.73,7.348 2.175,10.576 1.455,3.232 3.375,6.02 5.776,8.366 z"
   id="path30"
   style="fill:none;stroke:#000000;stroke-opacity:1;vector-effect:non-scaling-stroke;-inkscape-stroke:hairline;stroke-width:1;stroke-dasharray:none" /><path
   fill="#fff0e4"
   d="m 529.237,229.872 c 2.42,2.369 5.305,4.223 8.675,5.574 3.359,1.339 7.051,2.009 11.097,2.009 4.006,0 7.691,-0.669 11.068,-2.009 3.394,-1.351 6.306,-3.205 8.732,-5.574 2.438,-2.375 4.344,-5.15 5.711,-8.333 1.356,-3.193 2.038,-6.627 2.038,-10.324 0,-3.686 -0.682,-7.13 -2.038,-10.312 -1.367,-3.182 -3.273,-5.963 -5.711,-8.332 -2.427,-2.375 -5.339,-4.229 -8.732,-5.574 -3.377,-1.339 -7.062,-2.003 -11.068,-2.003 -4.046,0 -7.737,0.664 -11.097,2.003 -3.37,1.345 -6.255,3.199 -8.675,5.574 -2.41,2.369 -4.298,5.15 -5.666,8.332 -1.356,3.182 -2.037,6.627 -2.037,10.312 0,3.697 0.681,7.131 2.037,10.324 1.368,3.182 3.256,5.958 5.666,8.333 z m 6.924,-24.127 c 0.744,-1.66 1.751,-3.113 3.033,-4.344 1.271,-1.23 2.759,-2.192 4.446,-2.861 1.694,-0.681 3.479,-1.024 5.368,-1.024 1.889,0 3.68,0.343 5.368,1.024 1.693,0.669 3.193,1.631 4.498,2.861 1.287,1.23 2.312,2.684 3.056,4.344 0.738,1.671 1.116,3.491 1.116,5.471 0,1.98 -0.378,3.812 -1.116,5.477 -0.744,1.666 -1.769,3.119 -3.056,4.344 -1.305,1.236 -2.805,2.192 -4.498,2.873 -1.688,0.681 -3.479,1.024 -5.368,1.024 -1.889,0 -3.674,-0.344 -5.368,-1.024 -1.688,-0.681 -3.176,-1.637 -4.446,-2.873 -1.282,-1.225 -2.289,-2.678 -3.033,-4.344 -0.744,-1.665 -1.127,-3.497 -1.127,-5.477 0,-1.98 0.383,-3.8 1.127,-5.471 z"
   id="path32"
   style="fill:none;stroke:#000000;stroke-opacity:1;vector-effect:non-scaling-stroke;-inkscape-stroke:hairline;stroke-width:1;stroke-dasharray:none" /><polygon
   fill="#fff0e4"
   points="584.736,236.063 613.138,236.063 613.138,225.122 597.652,225.122 597.652,186.378 584.736,186.378 "
   id="polygon34"
   style="fill:none;stroke:#000000;stroke-opacity:1;vector-effect:non-scaling-stroke;-inkscape-stroke:hairline;stroke-width:1;stroke-dasharray:none" /><polygon
   fill="#fff0e4"
   points="619.794,236.063 648.195,236.063 648.195,225.122 632.722,225.122 632.722,186.378 619.794,186.378 "
   id="polygon36"
   style="fill:none;stroke:#000000;stroke-opacity:1;vector-effect:non-scaling-stroke;-inkscape-stroke:hairline;stroke-width:1;stroke-dasharray:none" /><rect
   x="654.84601"
   y="186.37801"
   fill="#fff0e4"
   width="12.933"
   height="49.685001"
   id="rect38"
   style="fill:none;stroke:#000000;stroke-opacity:1;vector-effect:non-scaling-stroke;-inkscape-stroke:hairline;stroke-width:1;stroke-dasharray:none" /><polygon
   fill="#fff0e4"
   points="714.951,186.378 714.951,216.761 691.104,186.378 678.183,186.378 678.183,236.063 691.104,236.063 691.104,205.687 714.951,236.063 727.811,236.063 727.811,186.378 "
   id="polygon40"
   style="fill:none;stroke:#000000;stroke-opacity:1;vector-effect:non-scaling-stroke;-inkscape-stroke:hairline;stroke-width:1;stroke-dasharray:none" /><path
   fill="#fff0e4"
   d="m 752.842,226.506 c -1.843,0 -3.708,-0.412 -5.591,-1.247 -1.895,-0.836 -3.806,-2.118 -5.74,-3.823 l -5.534,10.416 c 5.362,3.726 11.177,5.603 17.46,5.603 3.045,0 5.746,-0.406 8.149,-1.225 2.393,-0.807 4.4,-1.952 6.066,-3.428 1.637,-1.465 2.896,-3.239 3.748,-5.305 0.852,-2.066 1.282,-4.366 1.282,-6.919 0,-3.783 -0.979,-6.844 -2.931,-9.19 -1.951,-2.358 -5.041,-4.229 -9.265,-5.643 -1.042,-0.344 -2.111,-0.675 -3.188,-0.984 -1.082,-0.304 -2.043,-0.675 -2.913,-1.076 -0.835,-0.423 -1.545,-0.927 -2.065,-1.488 -0.521,-0.572 -0.79,-1.305 -0.79,-2.174 0,-1.282 0.532,-2.312 1.579,-3.102 1.059,-0.79 2.409,-1.19 4.081,-1.19 1.315,0 2.684,0.275 4.103,0.83 1.391,0.543 2.799,1.391 4.218,2.535 l 5.128,-10.083 c -2.461,-1.316 -5.024,-2.323 -7.709,-2.999 -2.684,-0.681 -5.247,-1.019 -7.708,-1.019 -2.645,0 -5.03,0.395 -7.153,1.185 -2.118,0.796 -3.938,1.895 -5.408,3.325 -1.47,1.43 -2.615,3.142 -3.423,5.139 -0.807,2.003 -1.219,4.229 -1.219,6.696 0,2.461 0.39,4.493 1.156,6.089 0.767,1.603 1.769,2.942 3.033,3.989 1.259,1.059 2.667,1.906 4.274,2.535 1.608,0.641 3.245,1.225 4.916,1.751 1.414,0.48 2.599,0.927 3.583,1.316 0.995,0.401 1.797,0.824 2.409,1.282 0.618,0.469 1.064,0.973 1.321,1.522 0.264,0.549 0.401,1.196 0.401,1.94 0,1.23 -0.527,2.329 -1.552,3.302 -1.033,0.966 -2.601,1.44 -4.718,1.44 z"
   id="path42"
   style="fill:none;stroke:#000000;stroke-opacity:1;vector-effect:non-scaling-stroke;-inkscape-stroke:hairline;stroke-width:1;stroke-dasharray:none" /><polygon
   fill="#3da1c6"
   points="626.512,495.476 639.429,495.476 639.429,474.977 658.079,474.977 658.079,495.476 670.995,495.476 670.995,445.779 658.079,445.779 658.079,464.961 639.429,464.961 639.429,445.779 626.512,445.779 "
   id="polygon46"
   style="fill:none;stroke:#000000;stroke-opacity:1;vector-effect:non-scaling-stroke;-inkscape-stroke:hairline;stroke-width:1;stroke-dasharray:none" /><path
   fill="#3da1c6"
   d="m 711.855,472.802 c 0,1.447 -0.058,2.936 -0.166,4.452 -0.108,1.511 -0.446,2.884 -1.024,4.12 -0.561,1.225 -1.437,2.232 -2.598,2.987 -1.168,0.772 -2.822,1.162 -4.979,1.162 -2.151,0 -3.816,-0.39 -5.007,-1.162 -1.185,-0.755 -2.061,-1.763 -2.604,-2.987 -0.549,-1.236 -0.881,-2.609 -0.984,-4.12 -0.114,-1.517 -0.166,-3.005 -0.166,-4.452 V 445.779 H 681.41 v 28.809 c 0,7.726 1.774,13.368 5.34,16.934 3.56,3.554 9.002,5.34 16.338,5.34 7.337,0 12.773,-1.786 16.315,-5.34 3.531,-3.565 5.3,-9.208 5.3,-16.934 v -28.809 h -12.848 z"
   id="path48"
   style="fill:none;stroke:#000000;stroke-opacity:1;vector-effect:non-scaling-stroke;-inkscape-stroke:hairline;stroke-width:1;stroke-dasharray:none" /><path
   fill="#3da1c6"
   d="m 770.742,473.26 c -0.812,-1.048 -1.865,-1.946 -3.17,-2.667 -1.294,-0.722 -2.867,-1.259 -4.704,-1.614 1.837,-1.139 3.216,-2.541 4.114,-4.183 0.898,-1.648 1.351,-3.726 1.351,-6.227 0,-4.138 -1.185,-7.297 -3.554,-9.494 -2.381,-2.197 -5.843,-3.297 -10.415,-3.297 h -19.24 v 49.697 h 20.751 c 2.632,0 5.013,-0.31 7.119,-0.928 2.117,-0.618 3.896,-1.533 5.373,-2.758 1.471,-1.236 2.609,-2.759 3.428,-4.556 0.813,-1.809 1.214,-3.868 1.214,-6.192 0,-1.499 -0.172,-2.907 -0.526,-4.223 -0.356,-1.315 -0.933,-2.499 -1.741,-3.558 z m -22.708,-17.592 h 2.381 c 4.029,0 6.055,1.603 6.055,4.812 0,3.205 -2.025,4.808 -6.055,4.808 h -2.381 z m 9.826,28.534 c -1.413,0.836 -3.736,1.259 -6.987,1.259 h -2.839 v -10.553 h 2.839 c 3.251,0 5.574,0.418 6.987,1.248 1.402,0.841 2.106,2.181 2.106,4.028 10e-4,1.843 -0.703,3.183 -2.106,4.018 z"
   id="path50"
   style="fill:none;stroke:#000000;stroke-opacity:1;vector-effect:non-scaling-stroke;-inkscape-stroke:hairline;stroke-width:1;stroke-dasharray:none" />
</svg>
