<?xml version="1.0" encoding="UTF-8" standalone="no"?>
<!-- Created with Inkscape (http://www.inkscape.org/) -->

<svg
   width="36in"
   height="24in"
   viewBox="0 0 36 24"
   version="1.1"
   id="svg5"
   inkscape:version="1.2.2 (b0a8486, 2022-12-01)"
   sodipodi:docname="router-table-top-build1-cnc-vectors-only.svg"
   inkscape:export-filename="router-table-top.png"
   inkscape:export-xdpi="72"
   inkscape:export-ydpi="72"
   xmlns:inkscape="http://www.inkscape.org/namespaces/inkscape"
   xmlns:sodipodi="http://sodipodi.sourceforge.net/DTD/sodipodi-0.dtd"
   xmlns="http://www.w3.org/2000/svg"
   xmlns:svg="http://www.w3.org/2000/svg">
  <sodipodi:namedview
     id="namedview7"
     pagecolor="#ffffff"
     bordercolor="#666666"
     borderopacity="1.0"
     inkscape:showpageshadow="2"
     inkscape:pageopacity="1"
     inkscape:pagecheckerboard="0"
     inkscape:deskcolor="#d1d1d1"
     inkscape:document-units="in"
     showgrid="false"
     inkscape:zoom="0.15935867"
     inkscape:cx="2152.3774"
     inkscape:cy="699.67952"
     inkscape:window-width="3828"
     inkscape:window-height="2088"
     inkscape:window-x="0"
     inkscape:window-y="37"
     inkscape:window-maximized="1"
     inkscape:current-layer="layer1" />
  <defs
     id="defs2" />
  <g
     inkscape:label="Layer 1"
     inkscape:groupmode="layer"
     id="layer1">
    <path
       id="rect865"
       style="vector-effect:non-scaling-stroke;fill:none;fill-rule:evenodd;stroke:#000000;stroke-width:0.0104167;stroke-linecap:round;-inkscape-stroke:hairline;stop-color:#000000"
       d="m 12.844,12 h 10.3125 c 0.4155,0 0.75,0.3345 0.75,0.75 v 7.8125 c 0,0.4155 -0.3345,0.75 -0.75,0.75 H 12.844 c -0.4155,0 -0.75,-0.3345 -0.75,-0.75 V 12.75 c 0,-0.4155 0.3345,-0.75 0.75,-0.75 z" />
    <path
       id="rect867"
       style="vector-effect:non-scaling-stroke;fill:none;fill-rule:evenodd;stroke:#000000;stroke-width:0.0104167;stroke-linecap:round;stroke-dasharray:none;-inkscape-stroke:hairline;stop-color:#000000"
       d="m 16.25,12.750264 c -0.138493,0 -0.249989,0.11149 -0.25,0.24998 h -2.156006 c -0.415499,0 -0.75,0.334501 -0.75,0.75 v 5.812012 c 0,0.415499 0.334501,0.75 0.75,0.75 H 17.5 c 0,0.1385 0.1115,0.25 0.25,0.25 h 0.5 c 0.1385,0 0.25,-0.1115 0.25,-0.25 h 3.656006 c 0.415499,0 0.75,-0.334501 0.75,-0.75 V 17.15625 c 0.1385,0 0.25,-0.1115 0.25,-0.25 v -0.5 c 0,-0.1385 -0.1115,-0.25 -0.25,-0.25 v -2.406006 c 0,-0.415499 -0.334501,-0.75 -0.75,-0.75 H 20 c -1.1e-5,-0.13849 -0.111507,-0.24998 -0.25,-0.24998 z" />
    <path
       id="rect358"
       style="vector-effect:non-scaling-stroke;fill:none;fill-rule:evenodd;stroke:#000000;stroke-width:0.0104167;stroke-linecap:round;-inkscape-stroke:hairline;stop-color:#000000"
       d="M -0.50000001,5.505 V 4.75 H 36.500001 v 0.755 z" />
    <path
       id="rect369"
       style="vector-effect:non-scaling-stroke;fill:none;fill-rule:evenodd;stroke:#000000;stroke-width:0.0104167;stroke-linecap:round;-inkscape-stroke:hairline;stop-color:#000000"
       transform="rotate(-90)"
       d="m -21.875,30.8125 h 7.75 c 0.06925,0 0.125,0.05575 0.125,0.125 v 0.125 c 0,0.06925 -0.05575,0.125 -0.125,0.125 h -7.75 c -0.06925,0 -0.125,-0.05575 -0.125,-0.125 v -0.125 c 0,-0.06925 0.05575,-0.125 0.125,-0.125 z" />
    <path
       id="rect371"
       style="vector-effect:non-scaling-stroke;fill:none;fill-rule:evenodd;stroke:#000000;stroke-width:0.0104167;stroke-linecap:round;-inkscape-stroke:hairline;stop-color:#000000"
       transform="rotate(-90)"
       d="m -21.875,4.8125 h 7.75 c 0.06925,0 0.125,0.05575 0.125,0.125 v 0.125 c 0,0.06925 -0.05575,0.125 -0.125,0.125 h -7.75 C -21.94425,5.1875 -22,5.13175 -22,5.0625 v -0.125 c 0,-0.06925 0.05575,-0.125 0.125,-0.125 z" />
  </g>
</svg>
