<?xml version="1.0" encoding="utf-8"?>
<!-- Generator: Adobe Illustrator 15.1.0, SVG Export Plug-In . SVG Version: 6.00 Build 0)  -->
<!DOCTYPE svg PUBLIC "-//W3C//DTD SVG 1.1//EN" "http://www.w3.org/Graphics/SVG/1.1/DTD/svg11.dtd">
<svg version="1.1" id="Layer_1" xmlns="http://www.w3.org/2000/svg" xmlns:xlink="http://www.w3.org/1999/xlink" x="0px" y="0px"
	 width="1029.771px" height="581.236px" viewBox="0 0 1029.771 581.236" enable-background="new 0 0 1029.771 581.236"
	 xml:space="preserve">
<g>
	<path fill="#182E33" d="M223.385,303.924c-3.76-2.919-9.171-4.378-16.218-4.378h-6.736v33.884h6.736
		c7.047,0,12.458-1.459,16.218-4.372s5.648-7.107,5.648-12.567C229.033,311.02,227.145,306.831,223.385,303.924z"/>
	<path fill="#182E33" d="M756.47,460.481c0-3.21-2.025-4.812-6.055-4.812h-2.381v9.62h2.381
		C754.444,465.289,756.47,463.686,756.47,460.481z"/>
	<path fill="#182E33" d="M395.923,207.003c1.353-1.053,2.034-2.575,2.034-4.55c0-1.98-0.681-3.496-2.034-4.549
		c-1.365-1.053-3.325-1.58-5.866-1.58h-2.435v12.258h2.435C392.598,208.583,394.558,208.056,395.923,207.003z"/>
	<path fill="#182E33" d="M757.86,476.156c-1.413-0.83-3.736-1.248-6.987-1.248h-2.839v10.553h2.839c3.251,0,5.574-0.423,6.987-1.259
		c1.402-0.835,2.106-2.175,2.106-4.018C759.967,478.336,759.263,476.997,757.86,476.156z"/>
	<path fill="#182E33" d="M329.164,221.036c1.276,1.236,2.758,2.192,4.446,2.873c1.691,0.681,3.485,1.024,5.368,1.024
		c1.9,0,3.683-0.344,5.374-1.024c1.694-0.681,3.193-1.637,4.49-2.873c1.288-1.225,2.309-2.678,3.053-4.344
		c0.753-1.665,1.127-3.497,1.127-5.477s-0.375-3.8-1.127-5.471c-0.744-1.66-1.765-3.113-3.053-4.344
		c-1.296-1.23-2.796-2.192-4.49-2.861c-1.691-0.681-3.474-1.024-5.374-1.024c-1.883,0-3.677,0.343-5.368,1.024
		c-1.688,0.669-3.17,1.631-4.446,2.861c-1.276,1.23-2.283,2.684-3.027,4.344c-0.75,1.671-1.125,3.491-1.125,5.471
		s0.375,3.812,1.125,5.477C326.881,218.357,327.888,219.811,329.164,221.036z"/>
	<path fill="#182E33" d="M856.732,303.924c-3.766-2.919-9.174-4.378-16.213-4.378h-6.735v33.884h6.735
		c7.039,0,12.447-1.459,16.213-4.372s5.643-7.107,5.643-12.567C862.375,311.02,860.498,306.831,856.732,303.924z"/>
	<path fill="#182E33" d="M1022.051,403.637c-7.908-12.219-20.768-20.115-35.252-21.627c-11.876-1.245-23.622-3.476-35.12-6.612
		v-28.222c0-80.839-39.081-111.153-118.009-111.153h-19.274c3.508-7.445,5.482-15.663,5.482-24.322
		c0-21.411-11.9-40.207-29.839-50.958c0.464-29.96,7.063-59.583,19.304-86.874c5.951-13.294,5.579-28.368-1.024-41.341
		c-6.593-12.979-18.565-22.17-32.803-25.168c-41.942-8.888-85.636-9.832-128.728-2.255c-3.56,0.624-7.131,1.322-10.679,2.055
		c-14.25,2.976-26.251,12.138-32.877,25.105c-6.627,12.974-7.039,28.047-1.11,41.358c7.365,16.533,12.682,33.93,15.817,51.745
		c1.5,8.537,2.487,17.166,2.975,25.838H294.699c-35.716,0-64.676,27.08-64.676,60.495c0,8.659,1.98,16.876,5.485,24.322H94.168
		C36.66,236.023,0,282.635,0,340.137c0,57.491,36.66,104.108,94.168,104.108h289.179c7.134,21.738,16.573,43.123,28.459,63.751
		c11.903,20.683,25.721,39.642,40.995,56.759c9.694,10.867,23.652,16.699,38.194,15.972c14.533-0.732,27.838-7.938,36.394-19.726
		c16.401-22.6,37.026-41.977,60.649-56.931c0.646-0.408,1.303-0.801,1.953-1.203c10.259,16.776,28.743,27.975,49.838,27.975H754.53
		c23.906,0,44.444-14.383,53.471-34.962c29.694,15.823,55.426,38.329,75.033,65.487c8.532,11.806,21.78,19.022,36.328,19.801
		c14.535,0.767,28.477-5.008,38.211-15.841c31.767-35.367,55.31-76.576,69.788-120.676
		C1031.905,430.82,1029.96,415.867,1022.051,403.637z M758.713,219.822c-0.257-0.549-0.703-1.053-1.321-1.522
		c-0.612-0.458-1.414-0.881-2.409-1.282c-0.984-0.389-2.169-0.835-3.583-1.316c-1.671-0.527-3.308-1.11-4.916-1.751
		c-1.607-0.629-3.016-1.477-4.274-2.535c-1.265-1.047-2.267-2.386-3.033-3.989c-0.767-1.596-1.156-3.628-1.156-6.089
		c0-2.466,0.412-4.693,1.219-6.696c0.808-1.997,1.952-3.708,3.423-5.139s3.29-2.529,5.408-3.325c2.123-0.79,4.509-1.185,7.153-1.185
		c2.461,0,5.024,0.338,7.708,1.019c2.685,0.676,5.248,1.683,7.709,2.999l-5.128,10.083c-1.419-1.145-2.827-1.992-4.218-2.535
		c-1.419-0.555-2.787-0.83-4.103-0.83c-1.672,0-3.022,0.401-4.081,1.19c-1.047,0.79-1.579,1.82-1.579,3.102
		c0,0.87,0.269,1.602,0.79,2.174c0.521,0.561,1.23,1.064,2.065,1.488c0.87,0.401,1.831,0.772,2.913,1.076
		c1.076,0.309,2.146,0.641,3.188,0.984c4.224,1.413,7.313,3.285,9.265,5.643c1.952,2.346,2.931,5.408,2.931,9.19
		c0,2.553-0.43,4.853-1.282,6.919s-2.111,3.84-3.748,5.305c-1.666,1.476-3.674,2.621-6.066,3.428
		c-2.403,0.818-5.104,1.225-8.149,1.225c-6.283,0-12.098-1.877-17.46-5.603l5.534-10.416c1.935,1.706,3.846,2.987,5.74,3.823
		c1.883,0.835,3.748,1.247,5.591,1.247c2.117,0,3.686-0.475,4.721-1.442c1.024-0.973,1.552-2.072,1.552-3.302
		C759.114,221.019,758.977,220.372,758.713,219.822z M678.183,186.378h12.922l23.847,30.382v-30.382h12.859v49.685h-12.859
		l-23.847-30.376v30.376h-12.922V186.378z M654.846,186.378h12.933v49.685h-12.933V186.378z M584.736,186.378h12.916v38.743h15.485
		v10.942h-28.401V186.378z M523.571,200.903c1.368-3.182,3.256-5.963,5.666-8.332c2.42-2.375,5.305-4.229,8.675-5.574
		c3.359-1.339,7.051-2.003,11.097-2.003c4.006,0,7.691,0.664,11.068,2.003c3.394,1.345,6.306,3.199,8.732,5.574
		c2.438,2.369,4.344,5.15,5.711,8.332c1.356,3.182,2.038,6.627,2.038,10.312c0,3.697-0.682,7.131-2.038,10.324
		c-1.367,3.182-3.273,5.958-5.711,8.333c-2.427,2.369-5.339,4.223-8.732,5.574c-3.377,1.339-7.062,2.009-11.068,2.009
		c-4.046,0-7.737-0.669-11.097-2.009c-3.37-1.351-6.255-3.205-8.675-5.574c-2.41-2.375-4.298-5.15-5.666-8.333
		c-1.356-3.193-2.037-6.627-2.037-10.324C521.534,207.53,522.215,204.085,523.571,200.903z M479,200.577
		c1.419-3.188,3.333-5.935,5.729-8.241s5.171-4.103,8.335-5.396c3.165-1.299,6.481-1.946,9.949-1.946
		c1.986,0,3.923,0.212,5.84,0.618c1.911,0.423,3.914,1.076,6.026,1.946v15.428c-2.987-3.651-6.678-5.471-11.073-5.471
		c-1.94,0-3.723,0.355-5.365,1.047c-1.654,0.704-3.073,1.665-4.258,2.867c-1.179,1.213-2.12,2.656-2.795,4.315
		c-0.684,1.671-1.024,3.474-1.024,5.414c0,1.974,0.34,3.8,1.024,5.471c0.675,1.671,1.622,3.119,2.83,4.349
		c1.208,1.225,2.624,2.197,4.25,2.896c1.631,0.698,3.391,1.059,5.276,1.059c4.126,0,7.837-1.757,11.136-5.282v15.291l-1.316,0.469
		c-1.983,0.692-3.831,1.213-5.537,1.545c-1.717,0.332-3.405,0.498-5.073,0.498c-3.428,0-6.71-0.658-9.854-1.951
		c-3.147-1.293-5.915-3.113-8.298-5.471c-2.401-2.346-4.321-5.133-5.774-8.367c-1.445-3.228-2.175-6.753-2.175-10.576
		S477.572,203.764,479,200.577z M416.813,186.378h34.142v10.942H440.34v38.743h-12.917v-38.743h-10.61V186.378z M313.535,200.903
		c1.368-3.182,3.265-5.963,5.68-8.332c2.412-2.375,5.302-4.229,8.656-5.574c3.365-1.339,7.07-2.003,11.108-2.003
		c4,0,7.691,0.664,11.076,2.003c3.379,1.345,6.29,3.199,8.73,5.574c2.44,2.369,4.335,5.15,5.7,8.332
		c1.368,3.182,2.048,6.627,2.048,10.312c0,3.697-0.681,7.131-2.048,10.324c-1.365,3.182-3.259,5.958-5.7,8.333
		c-2.441,2.369-5.351,4.223-8.73,5.574c-3.385,1.339-7.076,2.009-11.076,2.009c-4.038,0-7.743-0.669-11.108-2.009
		c-3.354-1.351-6.244-3.205-8.656-5.574c-2.415-2.375-4.312-5.15-5.68-8.333c-1.354-3.193-2.037-6.627-2.037-10.324
		C311.498,207.53,312.182,204.085,313.535,200.903z M139.292,317.945c-8.258-10.084-18.465-15.125-30.608-15.125
		c-5.345,0-10.287,0.979-14.845,2.924c-4.552,1.94-8.467,4.578-11.757,7.915c-3.271,3.348-5.849,7.33-7.731,11.932
		c-1.891,4.624-2.824,9.603-2.824,14.937c0,5.471,0.933,10.513,2.824,15.125c1.883,4.618,4.49,8.624,7.829,12.023
		c3.342,3.399,7.257,6.077,11.752,8.023c4.495,1.945,9.354,2.907,14.576,2.907c11.417,0,21.675-4.854,30.786-14.57v42.269
		l-3.643,1.271c-5.468,1.945-10.57,3.37-15.306,4.28c-4.738,0.91-9.411,1.362-14.023,1.362c-9.48,0-18.556-1.786-27.237-5.368
		c-8.69-3.583-16.341-8.619-22.951-15.12c-6.624-6.495-11.935-14.215-15.946-23.143c-4.003-8.922-6.009-18.667-6.009-29.243
		c0-10.553,1.972-20.235,5.92-29.049c3.946-8.801,9.228-16.39,15.852-22.776c6.615-6.369,14.295-11.354,23.045-14.936
		c8.736-3.571,17.918-5.368,27.506-5.368c5.462,0,10.836,0.572,16.124,1.729c5.276,1.156,10.839,2.941,16.667,5.368V317.945z
		 M234.498,409.394l-34.067-52.832v52.832h-35.707V272.037h55.565c7.646,0,14.324,1.122,20.041,3.371
		c5.7,2.249,10.416,5.316,14.118,9.197c3.703,3.891,6.49,8.378,8.381,13.482c1.875,5.104,2.819,10.564,2.819,16.396
		c0,10.45-2.524,18.914-7.56,25.415c-5.039,6.501-12.481,10.896-22.316,13.202l43.175,56.295H234.498z M290.541,236.063h-12.916
		v-49.685h28.471v10.942h-15.555v8.298h14.172v10.942h-14.172V236.063z M373.464,302.276h-42.452v22.96h40.08v30.238h-40.08v23.692
		h42.452v30.228h-78.156V272.037h78.156V302.276z M374.7,186.378h20.104c2.764,0,5.179,0.401,7.248,1.213
		c2.06,0.813,3.769,1.929,5.102,3.325c1.345,1.414,2.353,3.039,3.03,4.882c0.678,1.843,1.03,3.823,1.03,5.929
		c0,3.777-0.913,6.845-2.738,9.196c-1.826,2.352-4.516,3.943-8.075,4.779l15.624,20.361H399.94l-12.318-19.114v19.114H374.7V186.378
		z M488.671,409.394l-8.207-23.864h-51.004l-8.204,23.864h-38.068l52.283-137.357h38.983l52.28,137.357H488.671z M613.567,302.276
		h-29.335v107.118h-35.704V302.276h-29.323v-30.239h94.362V302.276z M619.794,186.378h12.928v38.743h15.474v10.942h-28.401V186.378z
		 M670.995,495.476h-12.916v-20.499h-18.65v20.499h-12.917v-49.697h12.917v19.183h18.65v-19.183h12.916V495.476z M724.703,474.587
		c0,7.726-1.769,13.368-5.3,16.934c-3.542,3.554-8.979,5.34-16.315,5.34c-7.336,0-12.778-1.786-16.338-5.34
		c-3.565-3.565-5.34-9.208-5.34-16.934v-28.809h12.916v27.023c0,1.447,0.052,2.936,0.166,4.452c0.104,1.511,0.436,2.884,0.984,4.12
		c0.544,1.225,1.42,2.232,2.604,2.987c1.19,0.772,2.855,1.162,5.007,1.162c2.157,0,3.812-0.39,4.979-1.162
		c1.161-0.755,2.037-1.763,2.598-2.987c0.578-1.236,0.916-2.609,1.024-4.12c0.108-1.517,0.166-3.005,0.166-4.452v-27.023h12.848
		V474.587z M771.795,487.235c-0.818,1.797-1.957,3.319-3.428,4.556c-1.477,1.225-3.256,2.14-5.373,2.758
		c-2.106,0.618-4.487,0.928-7.119,0.928h-20.751v-49.697h19.24c4.572,0,8.034,1.1,10.415,3.297c2.369,2.197,3.554,5.356,3.554,9.494
		c0,2.501-0.452,4.578-1.351,6.227c-0.898,1.642-2.277,3.044-4.114,4.183c1.837,0.355,3.41,0.893,4.704,1.614
		c1.305,0.721,2.357,1.619,3.17,2.667c0.808,1.059,1.385,2.243,1.74,3.56c0.354,1.315,0.526,2.724,0.526,4.223
		C773.009,483.367,772.608,485.426,771.795,487.235z M771.258,369.232c-3.771,8.802-9.02,16.481-15.761,23.04
		c-6.741,6.558-14.788,11.697-24.127,15.394c-9.362,3.697-19.561,5.552-30.611,5.552c-11.177,0-21.414-1.854-30.708-5.552
		c-9.288-3.696-17.266-8.836-23.95-15.394c-6.672-6.559-11.903-14.238-15.668-23.04c-3.761-8.813-5.644-18.312-5.644-28.517
		c0-10.203,1.883-19.697,5.644-28.505c3.765-8.802,8.996-16.493,15.668-23.051c6.685-6.558,14.662-11.691,23.95-15.394
		c9.294-3.697,19.531-5.551,30.708-5.551c11.051,0,21.249,1.854,30.611,5.551c9.339,3.703,17.386,8.836,24.127,15.394
		s11.989,14.25,15.761,23.051c3.766,8.808,5.653,18.302,5.653,28.505C776.911,350.919,775.023,360.418,771.258,369.232z
		 M867.846,409.394l-34.062-52.832v52.832h-35.71V272.037h55.568c7.646,0,14.317,1.122,20.041,3.371
		c5.688,2.249,10.403,5.316,14.112,9.197c3.708,3.891,6.495,8.378,8.378,13.482s2.815,10.564,2.815,16.396
		c0,10.45-2.519,18.914-7.549,25.415c-5.047,6.501-12.48,10.896-22.324,13.202l43.179,56.295H867.846z"/>
	<path fill="#182E33" d="M539.194,221.036c1.271,1.236,2.759,2.192,4.446,2.873c1.694,0.681,3.479,1.024,5.368,1.024
		s3.68-0.344,5.368-1.024c1.693-0.681,3.193-1.637,4.498-2.873c1.287-1.225,2.312-2.678,3.056-4.344
		c0.738-1.665,1.116-3.497,1.116-5.477s-0.378-3.8-1.116-5.471c-0.744-1.66-1.769-3.113-3.056-4.344
		c-1.305-1.23-2.805-2.192-4.498-2.861c-1.688-0.681-3.479-1.024-5.368-1.024s-3.674,0.343-5.368,1.024
		c-1.688,0.669-3.176,1.631-4.446,2.861c-1.282,1.23-2.289,2.684-3.033,4.344c-0.744,1.671-1.127,3.491-1.127,5.471
		s0.383,3.812,1.127,5.477C536.905,218.357,537.912,219.811,539.194,221.036z"/>
	<path fill="#182E33" d="M727.993,313.573c-3.594-3.399-7.72-6.044-12.396-7.932c-4.669-1.878-9.614-2.821-14.839-2.821
		s-10.169,0.943-14.839,2.821c-4.692,1.888-8.79,4.532-12.304,7.932c-3.525,3.399-6.318,7.416-8.384,12.018
		c-2.061,4.624-3.097,9.66-3.097,15.125s1.036,10.513,3.097,15.119c2.065,4.619,4.858,8.625,8.384,12.023
		c3.514,3.399,7.611,6.055,12.304,7.927c4.67,1.883,9.614,2.821,14.839,2.821s10.17-0.938,14.839-2.821
		c4.676-1.872,8.802-4.527,12.396-7.927c3.583-3.398,6.398-7.404,8.476-12.023c2.055-4.606,3.091-9.654,3.091-15.119
		s-1.036-10.501-3.091-15.125C734.392,320.989,731.576,316.972,727.993,313.573z"/>
	<polygon fill="#182E33" points="438.938,358.381 470.994,358.381 454.967,312.657 	"/>
</g>
</svg>
