<?xml version="1.0" encoding="UTF-8" standalone="no"?>
<!-- Created with Inkscape (http://www.inkscape.org/) -->

<svg
   width="36in"
   height="27.75in"
   viewBox="0 0 36 27.75"
   version="1.1"
   id="svg5"
   inkscape:version="1.2.2 (b0a8486, 2022-12-01)"
   sodipodi:docname="router-table-top-build2-cnc-vectors-only.svg"
   inkscape:export-filename="router-table-top.png"
   inkscape:export-xdpi="72"
   inkscape:export-ydpi="72"
   xmlns:inkscape="http://www.inkscape.org/namespaces/inkscape"
   xmlns:sodipodi="http://sodipodi.sourceforge.net/DTD/sodipodi-0.dtd"
   xmlns="http://www.w3.org/2000/svg"
   xmlns:svg="http://www.w3.org/2000/svg">
  <sodipodi:namedview
     id="namedview7"
     pagecolor="#ffffff"
     bordercolor="#666666"
     borderopacity="1.0"
     inkscape:showpageshadow="2"
     inkscape:pageopacity="1"
     inkscape:pagecheckerboard="0"
     inkscape:deskcolor="#d1d1d1"
     inkscape:document-units="in"
     showgrid="false"
     inkscape:zoom="0.5271961"
     inkscape:cx="1650.2398"
     inkscape:cy="1366.6641"
     inkscape:window-width="3828"
     inkscape:window-height="2088"
     inkscape:window-x="0"
     inkscape:window-y="37"
     inkscape:window-maximized="1"
     inkscape:current-layer="layer1" />
  <defs
     id="defs2" />
  <g
     inkscape:label="Layer 1"
     inkscape:groupmode="layer"
     id="layer1">
    <rect
       style="vector-effect:non-scaling-stroke;fill:none;fill-rule:evenodd;stroke:#000000;stroke-width:0.0104167;stroke-linecap:round;stroke-dasharray:none;-inkscape-stroke:hairline;stop-color:#000000"
       id="rect358"
       width="37"
       height="1.76"
       x="-0.5"
       y="22" />
    <rect
       style="vector-effect:non-scaling-stroke;fill:none;fill-rule:evenodd;stroke:#000000;stroke-width:0.0104167;stroke-linecap:round;stroke-dasharray:none;-inkscape-stroke:hairline;stop-color:#000000"
       id="rect369"
       width="14.5"
       height="0.75999999"
       x="-0.5"
       y="-5.3800001"
       transform="rotate(90)"
       ry="0"
       rx="0" />
    <rect
       style="vector-effect:non-scaling-stroke;fill:none;fill-rule:evenodd;stroke:#000000;stroke-width:0.0104167;stroke-linecap:round;stroke-dasharray:none;-inkscape-stroke:hairline;stop-color:#000000"
       id="rect865"
       width="11.8125"
       height="9.3125"
       x="12.09375"
       y="11.09375"
       ry="0.75"
       rx="0.75" />
    <path
       id="rect867"
       style="vector-effect:non-scaling-stroke;fill:none;fill-rule:evenodd;stroke:#000000;stroke-width:0.0104167;stroke-linecap:round;stroke-dasharray:none;-inkscape-stroke:hairline;stop-color:#000000"
       d="m 17.75,11.843994 c -0.1385,0 -0.25,0.1115 -0.25,0.25 h -3.656006 c -0.415499,0 -0.75,0.334501 -0.75,0.75 V 15.25 c -0.1385,0 -0.25,0.1115 -0.25,0.25 V 16 c 0,0.1385 0.1115,0.25 0.25,0.25 v 2.406006 c 0,0.415499 0.334501,0.75 0.75,0.75 H 16 c 1.1e-5,0.13849 0.111507,0.24998 0.25,0.24998 h 3.5 c 0.138493,0 0.249989,-0.11149 0.25,-0.24998 h 2.156006 c 0.415499,0 0.75,-0.334501 0.75,-0.75 v -5.812012 c 0,-0.415499 -0.334501,-0.75 -0.75,-0.75 H 18.5 c 0,-0.1385 -0.1115,-0.25 -0.25,-0.25 z" />
    <rect
       style="vector-effect:non-scaling-stroke;fill:none;fill-rule:evenodd;stroke:#000000;stroke-width:0.0104167;stroke-linecap:round;stroke-dasharray:none;-inkscape-stroke:hairline;stop-color:#000000"
       id="rect2942"
       width="14.5"
       height="0.75999999"
       x="-0.5"
       y="-31.380001"
       transform="rotate(90)"
       ry="0"
       rx="0" />
  </g>
</svg>
