<?xml version="1.0" encoding="UTF-8" standalone="no"?>
<!-- Created with Inkscape (http://www.inkscape.org/) -->

<svg
   width="12in"
   height="12in"
   viewBox="0 0 304.8 304.8"
   version="1.1"
   id="svg5"
   inkscape:version="1.2.2 (b0a8486, 2022-12-01)"
   sodipodi:docname="stencils.svg"
   xmlns:inkscape="http://www.inkscape.org/namespaces/inkscape"
   xmlns:sodipodi="http://sodipodi.sourceforge.net/DTD/sodipodi-0.dtd"
   xmlns="http://www.w3.org/2000/svg"
   xmlns:svg="http://www.w3.org/2000/svg">
  <sodipodi:namedview
     id="namedview7"
     pagecolor="#ffffff"
     bordercolor="#666666"
     borderopacity="1.0"
     inkscape:showpageshadow="2"
     inkscape:pageopacity="0.0"
     inkscape:pagecheckerboard="0"
     inkscape:deskcolor="#d1d1d1"
     inkscape:document-units="mm"
     showgrid="false"
     inkscape:zoom="0.51496004"
     inkscape:cx="130.10718"
     inkscape:cy="701.99622"
     inkscape:window-width="3828"
     inkscape:window-height="2088"
     inkscape:window-x="0"
     inkscape:window-y="37"
     inkscape:window-maximized="1"
     inkscape:current-layer="layer1" />
  <defs
     id="defs2" />
  <g
     inkscape:label="Layer 1"
     inkscape:groupmode="layer"
     id="layer1">
    <g
       aria-label="METAL
ONLY"
       id="text256"
       style="font-size:101.6px;line-height:125%;letter-spacing:0px;word-spacing:0px;fill:none;stroke:#ff0000;stroke-width:0.264583px">
      <path
         d="m 75.387428,125.0069 h -7.518399 l -9.4488,-30.988003 V 59.474898 l 13.208,40.944802 18.287999,-56.692802 h 10.160002 z m -22.047199,-81.280002 1.016,3.1496 V 125.0069 h -12.192 V 43.726898 Z M 88.900228,125.0069 V 94.526897 L 101.09223,54.394898 V 125.0069 Z"
         style="font-family:'Legal Vandal Stencil';-inkscape-font-specification:'Legal Vandal Stencil';text-align:center;text-anchor:middle"
         id="path1685" />
      <path
         d="m 113.28411,43.726898 h 12.192 V 125.0069 h -12.192 z m 16.256,81.280002 v -10.16 h 15.24 v 10.16 z m 0,-71.120002 v -10.16 h 14.224 v 10.16 z m 0,34.544 v -10.16 h 10.16 v 10.16 z"
         style="font-family:'Legal Vandal Stencil';-inkscape-font-specification:'Legal Vandal Stencil';text-align:center;text-anchor:middle"
         id="path1687" />
      <path
         d="M 157.98805,125.0069 V 57.950898 h 12.192 V 125.0069 Z m -12.192,-81.280002 h 36.576 v 10.16 h -36.576 z"
         style="font-family:'Legal Vandal Stencil';-inkscape-font-specification:'Legal Vandal Stencil';text-align:center;text-anchor:middle"
         id="path1689" />
      <path
         d="m 198.01826,102.6549 h 9.144 l 1.9304,10.16 h -13.0048 l -2.3368,12.192 h -12.3952 l 17.272,-81.280002 h 10.5664 z m 8.7376,-24.485602 5.3848,-28.0416 15.9512,74.879202 h -12.3952 z"
         style="font-family:'Legal Vandal Stencil';-inkscape-font-specification:'Legal Vandal Stencil';text-align:center;text-anchor:middle"
         id="path1691" />
      <path
         d="m 234.18777,43.726898 h 12.192 V 125.0069 h -12.192 z m 16.256,81.280002 v -10.16 h 12.192 v 10.16 z"
         style="font-family:'Legal Vandal Stencil';-inkscape-font-specification:'Legal Vandal Stencil';text-align:center;text-anchor:middle"
         id="path1693" />
      <path
         d="m 78.232217,244.91871 q 0,2.032 1.1176,3.556 1.1176,1.524 2.9464,2.2352 v 10.3632 q -3.4544,-0.3048 -6.4008,-1.7272 -2.9464,-1.4224 -5.1816,-3.7592 -2.1336,-2.4384 -3.4544,-5.588 -1.2192,-3.2512 -1.2192,-7.112 v -46.736 q 0,-3.8608 1.2192,-7.0104 1.3208,-3.2512 3.4544,-5.588 2.2352,-2.3368 5.1816,-3.7592 2.9464,-1.524 6.4008,-1.8288 v 10.4648 q -1.8288,0.6096 -2.9464,2.1336 -1.1176,1.524 -1.1176,3.556 z m 24.384003,-2.032 q 0,3.8608 -1.3208,7.112 -1.2192,3.1496 -3.454403,5.588 -2.1336,2.3368 -5.1816,3.7592 -2.9464,1.4224 -6.2992,1.7272 v -10.3632 q 1.7272,-0.7112 2.8448,-2.2352 1.2192,-1.524 1.2192,-3.556 v -50.8 q 0,-2.032 -1.2192,-3.556 -1.1176,-1.524 -2.8448,-2.1336 v -10.4648 q 3.3528,0.3048 6.2992,1.8288 3.048,1.4224 5.1816,3.7592 2.235203,2.3368 3.454403,5.588 1.3208,3.1496 1.3208,7.0104 z"
         style="font-family:'Legal Vandal Stencil';-inkscape-font-specification:'Legal Vandal Stencil';text-align:center;text-anchor:middle"
         id="path1695" />
      <path
         d="m 125.98412,213.42271 v 46.736 h -12.192 v -81.28 h 8.9408 l 31.6992,76.2 v 5.08 h -9.0424 z m 28.448,30.988 -12.192,-29.3624 v -36.1696 h 12.192 z"
         style="font-family:'Legal Vandal Stencil';-inkscape-font-specification:'Legal Vandal Stencil';text-align:center;text-anchor:middle"
         id="path1697" />
      <path
         d="m 166.62397,178.87871 h 12.192 v 81.28 h -12.192 z m 16.256,81.28 v -10.16 h 12.192 v 10.16 z"
         style="font-family:'Legal Vandal Stencil';-inkscape-font-specification:'Legal Vandal Stencil';text-align:center;text-anchor:middle"
         id="path1699" />
      <path
         d="m 222.50379,233.74271 v 26.416 h -12.192 v -30.48 l -17.272,-50.8 h 12.8016 z m 1.6256,-8.7376 -5.588,-18.3896 8.4328,-27.7368 h 12.8016 z"
         style="font-family:'Legal Vandal Stencil';-inkscape-font-specification:'Legal Vandal Stencil';text-align:center;text-anchor:middle"
         id="path1701" />
    </g>
    <text
       xml:space="preserve"
       style="font-style:normal;font-weight:normal;font-size:101.6px;line-height:125%;font-family:sans-serif;letter-spacing:0px;word-spacing:0px;fill:none;fill-opacity:1;stroke:#ff0000;stroke-width:0.264583px;stroke-linecap:butt;stroke-linejoin:miter;stroke-opacity:1"
       x="-152.2731"
       y="125.0069"
       id="text1683"><tspan
         sodipodi:role="line"
         id="tspan1679"
         style="font-style:normal;font-variant:normal;font-weight:normal;font-stretch:normal;font-size:101.6px;font-family:'Legal Vandal Stencil';-inkscape-font-specification:'Legal Vandal Stencil';text-align:center;text-anchor:middle;fill:none;stroke:#ff0000;stroke-width:0.264583px;stroke-opacity:1"
         x="-152.27312"
         y="125.0069">METAL</tspan><tspan
         sodipodi:role="line"
         style="font-style:normal;font-variant:normal;font-weight:normal;font-stretch:normal;font-size:101.6px;font-family:'Legal Vandal Stencil';-inkscape-font-specification:'Legal Vandal Stencil';text-align:center;text-anchor:middle;fill:none;stroke:#ff0000;stroke-width:0.264583px;stroke-opacity:1"
         x="-152.2731"
         y="260.15872"
         id="tspan1681">ONLY</tspan></text>
  </g>
</svg>
