<?xml version="1.0" encoding="UTF-8"?>
<svg xmlns="http://www.w3.org/2000/svg" xmlns:xlink="http://www.w3.org/1999/xlink" width="170mm" height="320mm" viewBox="0 9680 170 320"      version="1.1">
<g id="surface7499">
<path style="fill:none;stroke-width:0.2;stroke-linecap:butt;stroke-linejoin:miter;stroke:rgb(0%,0%,0%);stroke-opacity:1;stroke-miterlimit:10;" d="M 0 0 L 10 0 M 10 0 C 10.054688 0 10.101562 0.0429688 10.101562 0.101562 M 10.101562 0.101562 L 10.101562 3.101562 C 10.101562 3.046875 10.058594 3 10 3 M 10 3 L 16 3 C 15.945312 3 15.898437 3.042969 15.898437 3.101562 M 15.898437 3.101562 L 15.898437 0.101562 C 15.898437 0.046875 15.941406 0 16 0 M 16 0 L 22 0 M 22 0 C 22.054688 0 22.101562 0.0429688 22.101562 0.101562 M 22.101562 0.101562 L 22.101562 3.101562 C 22.101562 3.046875 22.058594 3 22 3 M 22 3 L 28 3 C 27.945312 3 27.898438 3.042969 27.898438 3.101562 M 27.898438 3.101562 L 27.898438 0.101562 C 27.898438 0.046875 27.941406 0 28 0 M 28 0 L 34 0 M 34 0 C 34.054688 0 34.101562 0.0429688 34.101562 0.101562 M 34.101562 0.101562 L 34.101562 3.101562 C 34.101562 3.046875 34.058594 3 34 3 M 34 3 L 40 3 C 39.945312 3 39.898438 3.042969 39.898438 3.101562 M 39.898438 3.101562 L 39.898438 0.101562 C 39.898438 0.046875 39.941406 0 40 0 M 40 0 L 46 0 M 46 0 C 46.054688 0 46.101562 0.0429688 46.101562 0.101562 M 46.101562 0.101562 L 46.101562 3.101562 C 46.101562 3.046875 46.058594 3 46 3 M 46 3 L 52 3 C 51.945312 3 51.898438 3.042969 51.898438 3.101562 M 51.898438 3.101562 L 51.898438 0.101562 C 51.898438 0.046875 51.941406 0 52 0 M 52 0 L 58 0 M 58 0 C 58.054688 0 58.101562 0.0429688 58.101562 0.101562 M 58.101562 0.101562 L 58.101562 3.101562 C 58.101562 3.046875 58.058594 3 58 3 M 58 3 L 64 3 C 63.945312 3 63.898437 3.042969 63.898437 3.101562 M 63.898437 3.101562 L 63.898437 0.101562 C 63.898437 0.046875 63.941406 0 64 0 M 64 0 L 74 0 M 74 0 L 77 0 C 77.054688 0 77.101562 0.0429688 77.101562 0.101562 M 77.101562 0.101562 L 77.101562 3.101562 M 77.101562 3.101562 L 77.101562 10.601562 M 77.101562 10.601562 C 77.101562 10.65625 77.058594 10.703125 77 10.703125 M 77 10.703125 L 74 10.703125 C 74.054688 10.703125 74.101562 10.660156 74.101562 10.601562 M 74.101562 10.601562 L 74.101562 16.601562 C 74.101562 16.546875 74.058594 16.5 74 16.5 M 74 16.5 L 77 16.5 C 77.054688 16.5 77.101562 16.542969 77.101562 16.601562 M 77.101562 16.601562 L 77.101562 24.101562 M 77.101562 24.101562 C 77.101562 24.15625 77.058594 24.203125 77 24.203125 M 77 24.203125 L 74 24.203125 M 74 24.203125 L 64 24.203125 M 64 24.203125 C 64.054688 24.203125 64.101562 24.160156 64.101562 24.101562 M 64.101562 24.101562 L 64.101562 27.101562 C 64.101562 27.15625 64.058594 27.203125 64 27.203125 M 64 27.203125 L 58 27.203125 C 57.945312 27.203125 57.898437 27.160156 57.898437 27.101562 M 57.898437 27.101562 L 57.898437 24.101562 C 57.898437 24.15625 57.941406 24.203125 58 24.203125 M 58 24.203125 L 52 24.203125 M 52 24.203125 C 52.054687 24.203125 52.101562 24.160156 52.101562 24.101562 M 52.101562 24.101562 L 52.101562 27.101562 C 52.101562 27.15625 52.058594 27.203125 52 27.203125 M 52 27.203125 L 46 27.203125 C 45.945312 27.203125 45.898437 27.160156 45.898437 27.101562 M 45.898437 27.101562 L 45.898437 24.101562 C 45.898437 24.15625 45.941406 24.203125 46 24.203125 M 46 24.203125 L 40 24.203125 M 40 24.203125 C 40.054687 24.203125 40.101562 24.160156 40.101562 24.101562 M 40.101562 24.101562 L 40.101562 27.101562 C 40.101562 27.15625 40.058594 27.203125 40 27.203125 M 40 27.203125 L 34 27.203125 C 33.945312 27.203125 33.898437 27.160156 33.898437 27.101562 M 33.898437 27.101562 L 33.898437 24.101562 C 33.898437 24.15625 33.941406 24.203125 34 24.203125 M 34 24.203125 L 28 24.203125 M 28 24.203125 C 28.054687 24.203125 28.101562 24.160156 28.101562 24.101562 M 28.101562 24.101562 L 28.101562 27.101562 C 28.101562 27.15625 28.058594 27.203125 28 27.203125 M 28 27.203125 L 22 27.203125 C 21.945312 27.203125 21.898437 27.160156 21.898437 27.101562 M 21.898437 27.101562 L 21.898437 24.101562 C 21.898437 24.15625 21.941406 24.203125 22 24.203125 M 22 24.203125 L 16 24.203125 M 16 24.203125 C 16.054687 24.203125 16.101562 24.160156 16.101562 24.101562 M 16.101562 24.101562 L 16.101562 27.101562 C 16.101562 27.15625 16.058594 27.203125 16 27.203125 M 16 27.203125 L 10 27.203125 C 9.945312 27.203125 9.898437 27.160156 9.898437 27.101562 M 9.898437 27.101562 L 9.898437 24.101562 C 9.898437 24.15625 9.941406 24.203125 10 24.203125 M 10 24.203125 L -0.000000000000005773 24.203125 M -0.000000000000005773 24.203125 L -3 24.203125 C -3.054688 24.203125 -3.101563 24.160156 -3.101563 24.101562 M -3.101563 24.101562 L -3.101563 24.101562 M -3.101563 24.101562 L -3.101563 16.601562 M -3.101563 16.601562 C -3.101563 16.546875 -3.058594 16.5 -3 16.5 M -3 16.5 L -0.000000000000003997 16.5 C -0.0546875 16.5 -0.101563 16.542969 -0.101563 16.601562 M -0.101563 16.601562 L -0.101563 10.601562 C -0.101563 10.65625 -0.0585938 10.703125 -0.000000000000002665 10.703125 M -0.000000000000002665 10.703125 L -3 10.703125 C -3.054688 10.703125 -3.101563 10.660156 -3.101563 10.601562 M -3.101563 10.601562 L -3.101563 3.101562 M -3.101563 3.101562 L -3.101562 0.101562 C -3.101562 0.046875 -3.058594 0 -3 0 M -3 0 L 0 0 " transform="matrix(1,0.000000000000000245,0.000000000000000245,-1,3.851562,9999.148438)"/>
<path style="fill:none;stroke-width:0.2;stroke-linecap:butt;stroke-linejoin:miter;stroke:rgb(0%,0%,0%);stroke-opacity:1;stroke-miterlimit:10;" d="M 0 0 L 10 0 M 10 0 C 10.054688 0 10.101562 0.0429688 10.101562 0.101562 M 10.101562 0.101562 L 10.101562 3.101562 C 10.101562 3.046875 10.058594 3 10 3 M 10 3 L 16 3 C 15.945312 3 15.898437 3.042969 15.898437 3.101562 M 15.898437 3.101562 L 15.898437 0.101562 C 15.898437 0.046875 15.941406 0 16 0 M 16 0 L 22 0 M 22 0 C 22.054688 0 22.101562 0.0429688 22.101562 0.101562 M 22.101562 0.101562 L 22.101562 3.101562 C 22.101562 3.046875 22.058594 3 22 3 M 22 3 L 28 3 C 27.945312 3 27.898438 3.042969 27.898438 3.101562 M 27.898438 3.101562 L 27.898438 0.101562 C 27.898438 0.046875 27.941406 0 28 0 M 28 0 L 34 0 M 34 0 C 34.054688 0 34.101562 0.0429688 34.101562 0.101562 M 34.101562 0.101562 L 34.101562 3.101562 C 34.101562 3.046875 34.058594 3 34 3 M 34 3 L 40 3 C 39.945312 3 39.898438 3.042969 39.898438 3.101562 M 39.898438 3.101562 L 39.898438 0.101562 C 39.898438 0.046875 39.941406 0 40 0 M 40 0 L 46 0 M 46 0 C 46.054688 0 46.101562 0.0429688 46.101562 0.101562 M 46.101562 0.101562 L 46.101562 3.101562 C 46.101562 3.046875 46.058594 3 46 3 M 46 3 L 52 3 C 51.945312 3 51.898438 3.042969 51.898438 3.101562 M 51.898438 3.101562 L 51.898438 0.101562 C 51.898438 0.046875 51.941406 0 52 0 M 52 0 L 58 0 M 58 0 C 58.054688 0 58.101562 0.0429688 58.101562 0.101562 M 58.101562 0.101562 L 58.101562 3.101562 C 58.101562 3.046875 58.058594 3 58 3 M 58 3 L 64 3 C 63.945312 3 63.898438 3.042969 63.898438 3.101562 M 63.898438 3.101562 L 63.898438 0.101562 C 63.898438 0.046875 63.941406 0 64 0 M 64 0 L 74 0 M 74 0 L 77 0 C 77.054688 0 77.101562 0.0429688 77.101562 0.101562 M 77.101562 0.101562 L 77.101562 3.101562 M 77.101562 3.101562 L 77.101562 10.601562 M 77.101562 10.601562 C 77.101562 10.65625 77.058594 10.703125 77 10.703125 M 77 10.703125 L 74 10.703125 C 74.054688 10.703125 74.101562 10.660156 74.101562 10.601562 M 74.101562 10.601562 L 74.101562 16.601562 C 74.101562 16.546875 74.058594 16.5 74 16.5 M 74 16.5 L 77 16.5 C 77.054688 16.5 77.101562 16.542969 77.101562 16.601562 M 77.101562 16.601562 L 77.101562 24.101562 M 77.101562 24.101562 C 77.101562 24.15625 77.058594 24.203125 77 24.203125 M 77 24.203125 L 74 24.203125 M 74 24.203125 L 64 24.203125 M 64 24.203125 C 64.054687 24.203125 64.101562 24.160156 64.101562 24.101562 M 64.101562 24.101562 L 64.101562 27.101562 C 64.101562 27.15625 64.058594 27.203125 64 27.203125 M 64 27.203125 L 58 27.203125 C 57.945312 27.203125 57.898437 27.160156 57.898437 27.101562 M 57.898437 27.101562 L 57.898437 24.101562 C 57.898437 24.15625 57.941406 24.203125 58 24.203125 M 58 24.203125 L 52 24.203125 M 52 24.203125 C 52.054687 24.203125 52.101562 24.160156 52.101562 24.101562 M 52.101562 24.101562 L 52.101562 27.101562 C 52.101562 27.15625 52.058594 27.203125 52 27.203125 M 52 27.203125 L 46 27.203125 C 45.945312 27.203125 45.898437 27.160156 45.898437 27.101562 M 45.898437 27.101562 L 45.898437 24.101562 C 45.898437 24.15625 45.941406 24.203125 46 24.203125 M 46 24.203125 L 40 24.203125 M 40 24.203125 C 40.054687 24.203125 40.101562 24.160156 40.101562 24.101562 M 40.101562 24.101562 L 40.101562 27.101562 C 40.101562 27.15625 40.058594 27.203125 40 27.203125 M 40 27.203125 L 34 27.203125 C 33.945312 27.203125 33.898437 27.160156 33.898437 27.101562 M 33.898437 27.101562 L 33.898437 24.101562 C 33.898437 24.15625 33.941406 24.203125 34 24.203125 M 34 24.203125 L 28 24.203125 M 28 24.203125 C 28.054687 24.203125 28.101562 24.160156 28.101562 24.101562 M 28.101562 24.101562 L 28.101562 27.101562 C 28.101562 27.15625 28.058594 27.203125 28 27.203125 M 28 27.203125 L 22 27.203125 C 21.945312 27.203125 21.898437 27.160156 21.898437 27.101562 M 21.898437 27.101562 L 21.898437 24.101562 C 21.898437 24.15625 21.941406 24.203125 22 24.203125 M 22 24.203125 L 16 24.203125 M 16 24.203125 C 16.054687 24.203125 16.101562 24.160156 16.101562 24.101562 M 16.101562 24.101562 L 16.101562 27.101562 C 16.101562 27.15625 16.058594 27.203125 16 27.203125 M 16 27.203125 L 10 27.203125 C 9.945312 27.203125 9.898437 27.160156 9.898437 27.101562 M 9.898437 27.101562 L 9.898437 24.101562 C 9.898437 24.15625 9.941406 24.203125 10 24.203125 M 10 24.203125 L -0.000000000000005773 24.203125 M -0.000000000000005773 24.203125 L -3 24.203125 C -3.054688 24.203125 -3.101563 24.160156 -3.101563 24.101562 M -3.101563 24.101562 L -3.101563 24.101562 M -3.101563 24.101562 L -3.101563 16.601562 M -3.101563 16.601562 C -3.101563 16.546875 -3.058594 16.5 -3 16.5 M -3 16.5 L -0.000000000000003997 16.5 C -0.0546875 16.5 -0.101563 16.542969 -0.101563 16.601562 M -0.101563 16.601562 L -0.101563 10.601562 C -0.101563 10.65625 -0.0585938 10.703125 -0.000000000000002665 10.703125 M -0.000000000000002665 10.703125 L -3 10.703125 C -3.054688 10.703125 -3.101563 10.660156 -3.101563 10.601562 M -3.101563 10.601562 L -3.101563 3.101562 M -3.101563 3.101562 L -3.101562 0.101562 C -3.101562 0.046875 -3.058594 0 -3 0 M -3 0 L 0 0 " transform="matrix(1,0.000000000000000245,0.000000000000000245,-1,3.851562,9970.449219)"/>
<path style="fill:none;stroke-width:0.2;stroke-linecap:butt;stroke-linejoin:miter;stroke:rgb(0%,0%,0%);stroke-opacity:1;stroke-miterlimit:10;" d="M 0 0 L 10 0 M 10 0 C 9.945312 0 9.898438 0.0429688 9.898438 0.101562 M 9.898438 0.101562 L 9.898438 -2.898438 C 9.898438 -2.953125 9.941406 -3 10 -3 M 10 -3 L 16 -3 C 16.054688 -3 16.101562 -2.957031 16.101562 -2.898438 M 16.101562 -2.898438 L 16.101562 0.101562 C 16.101562 0.046875 16.058594 0 16 0 M 16 0 L 22 0 M 22 0 C 21.945312 0 21.898438 0.0429688 21.898438 0.101562 M 21.898438 0.101562 L 21.898438 -2.898438 C 21.898438 -2.953125 21.941406 -3 22 -3 M 22 -3 L 28 -3 C 28.054688 -3 28.101562 -2.957031 28.101562 -2.898438 M 28.101562 -2.898438 L 28.101562 0.101562 C 28.101562 0.046875 28.058594 0 28 0 M 28 0 L 34 0 M 34 0 C 33.945312 0 33.898438 0.0429688 33.898438 0.101562 M 33.898438 0.101562 L 33.898438 -2.898438 C 33.898438 -2.953125 33.941406 -3 34 -3 M 34 -3 L 40 -3 C 40.054688 -3 40.101562 -2.957031 40.101562 -2.898438 M 40.101562 -2.898438 L 40.101562 0.101562 C 40.101562 0.046875 40.058594 0 40 0 M 40 0 L 46 0 M 46 0 C 45.945312 0 45.898438 0.0429688 45.898438 0.101562 M 45.898438 0.101562 L 45.898438 -2.898438 C 45.898438 -2.953125 45.941406 -3 46 -3 M 46 -3 L 52 -3 C 52.054688 -3 52.101562 -2.957031 52.101562 -2.898438 M 52.101562 -2.898438 L 52.101562 0.101562 C 52.101562 0.046875 52.058594 0 52 0 M 52 0 L 58 0 M 58 0 C 57.945312 0 57.898438 0.0429688 57.898438 0.101562 M 57.898438 0.101562 L 57.898438 -2.898438 C 57.898438 -2.953125 57.941406 -3 58 -3 M 58 -3 L 64 -3 C 64.054688 -3 64.101562 -2.957031 64.101562 -2.898438 M 64.101562 -2.898438 L 64.101562 0.101562 C 64.101562 0.046875 64.058594 0 64 0 M 64 0 L 74 0 M 74 0 C 74.054688 0 74.101562 0.0429688 74.101562 0.101562 M 74.101562 0.101562 L 74.101562 0.101562 M 74.101562 0.101562 L 74.101562 10.101562 M 74.101562 10.101562 C 74.101562 10.046875 74.058594 10 74 10 M 74 10 L 77 10 C 77.054688 10 77.101562 10.042969 77.101562 10.101562 M 77.101562 10.101562 L 77.101562 16.101562 C 77.101562 16.15625 77.058594 16.203125 77 16.203125 M 77 16.203125 L 74 16.203125 C 74.054688 16.203125 74.101562 16.160156 74.101562 16.101562 M 74.101562 16.101562 L 74.101562 22.101562 M 74.101562 22.101562 C 74.101562 22.046875 74.058594 22 74 22 M 74 22 L 77 22 C 77.054688 22 77.101562 22.042969 77.101562 22.101562 M 77.101562 22.101562 L 77.101562 28.101562 C 77.101562 28.15625 77.058594 28.203125 77 28.203125 M 77 28.203125 L 74 28.203125 C 74.054688 28.203125 74.101562 28.160156 74.101562 28.101562 M 74.101562 28.101562 L 74.101562 34.101562 M 74.101562 34.101562 C 74.101562 34.046875 74.058594 34 74 34 M 74 34 L 77 34 C 77.054688 34 77.101562 34.042969 77.101562 34.101562 M 77.101562 34.101562 L 77.101562 40.101562 C 77.101562 40.15625 77.058594 40.203125 77 40.203125 M 77 40.203125 L 74 40.203125 C 74.054688 40.203125 74.101562 40.160156 74.101562 40.101562 M 74.101562 40.101562 L 74.101562 46.101562 M 74.101562 46.101562 C 74.101562 46.046875 74.058594 46 74 46 M 74 46 L 77 46 C 77.054688 46 77.101562 46.042969 77.101562 46.101562 M 77.101562 46.101562 L 77.101562 52.101562 C 77.101562 52.15625 77.058594 52.203125 77 52.203125 M 77 52.203125 L 74 52.203125 C 74.054687 52.203125 74.101562 52.160156 74.101562 52.101562 M 74.101562 52.101562 L 74.101562 58.101562 M 74.101562 58.101562 C 74.101562 58.046875 74.058594 58 74 58 M 74 58 L 77 58 C 77.054687 58 77.101562 58.042969 77.101562 58.101562 M 77.101562 58.101562 L 77.101562 64.101562 C 77.101562 64.15625 77.058594 64.203125 77 64.203125 M 77 64.203125 L 74 64.203125 C 74.054687 64.203125 74.101562 64.160156 74.101562 64.101562 M 74.101562 64.101562 L 74.101562 74.101562 M 74.101562 74.101562 C 74.101562 74.15625 74.058594 74.203125 74 74.203125 M 74 74.203125 L 74 74.203125 M 74 74.203125 L 64 74.203125 M 64 74.203125 C 64.054687 74.203125 64.101562 74.160156 64.101562 74.101562 M 64.101562 74.101562 L 64.101562 77.101562 C 64.101562 77.15625 64.058594 77.203125 64 77.203125 M 64 77.203125 L 58 77.203125 C 57.945312 77.203125 57.898437 77.160156 57.898437 77.101562 M 57.898437 77.101562 L 57.898437 74.101562 C 57.898437 74.15625 57.941406 74.203125 58 74.203125 M 58 74.203125 L 52 74.203125 M 52 74.203125 C 52.054687 74.203125 52.101562 74.160156 52.101562 74.101562 M 52.101562 74.101562 L 52.101562 77.101562 C 52.101562 77.15625 52.058594 77.203125 52 77.203125 M 52 77.203125 L 46 77.203125 C 45.945312 77.203125 45.898437 77.160156 45.898437 77.101562 M 45.898437 77.101562 L 45.898437 74.101562 C 45.898437 74.15625 45.941406 74.203125 46 74.203125 M 46 74.203125 L 40 74.203125 M 40 74.203125 C 40.054687 74.203125 40.101562 74.160156 40.101562 74.101562 M 40.101562 74.101562 L 40.101562 77.101562 C 40.101562 77.15625 40.058594 77.203125 40 77.203125 M 40 77.203125 L 34 77.203125 C 33.945312 77.203125 33.898437 77.160156 33.898437 77.101562 M 33.898437 77.101562 L 33.898437 74.101562 C 33.898437 74.15625 33.941406 74.203125 34 74.203125 M 34 74.203125 L 28 74.203125 M 28 74.203125 C 28.054687 74.203125 28.101562 74.160156 28.101562 74.101562 M 28.101562 74.101562 L 28.101562 77.101562 C 28.101562 77.15625 28.058594 77.203125 28 77.203125 M 28 77.203125 L 22 77.203125 C 21.945312 77.203125 21.898437 77.160156 21.898437 77.101562 M 21.898437 77.101562 L 21.898437 74.101562 C 21.898437 74.15625 21.941406 74.203125 22 74.203125 M 22 74.203125 L 16 74.203125 M 16 74.203125 C 16.054687 74.203125 16.101562 74.160156 16.101562 74.101562 M 16.101562 74.101562 L 16.101562 77.101562 C 16.101562 77.15625 16.058594 77.203125 16 77.203125 M 16 77.203125 L 10 77.203125 C 9.945312 77.203125 9.898437 77.160156 9.898437 77.101562 M 9.898437 77.101562 L 9.898437 74.101562 C 9.898437 74.15625 9.941406 74.203125 10 74.203125 M 10 74.203125 L -0.000000000000018208 74.203125 M -0.000000000000018208 74.203125 C -0.0546875 74.203125 -0.101563 74.160156 -0.101563 74.101562 M -0.101563 74.101562 L -0.101563 74.101562 M -0.101563 74.101562 L -0.101563 64.101562 M -0.101563 64.101562 C -0.101563 64.15625 -0.0585938 64.203125 -0.000000000000015987 64.203125 M -0.000000000000015987 64.203125 L -3 64.203125 C -3.054688 64.203125 -3.101563 64.160156 -3.101563 64.101562 M -3.101563 64.101562 L -3.101563 58.101562 C -3.101563 58.046875 -3.058594 58 -3 58 M -3 58 L -0.000000000000014211 58 C -0.0546875 58 -0.101563 58.042969 -0.101563 58.101562 M -0.101563 58.101562 L -0.101563 52.101562 M -0.101563 52.101562 C -0.101563 52.15625 -0.0585938 52.203125 -0.000000000000012879 52.203125 M -0.000000000000012879 52.203125 L -3 52.203125 C -3.054688 52.203125 -3.101563 52.160156 -3.101563 52.101562 M -3.101563 52.101562 L -3.101563 46.101562 C -3.101563 46.046875 -3.058594 46 -3 46 M -3 46 L -0.000000000000011546 46 C -0.0546875 46 -0.101563 46.042969 -0.101563 46.101562 M -0.101563 46.101562 L -0.101563 40.101562 M -0.101563 40.101562 C -0.101563 40.15625 -0.0585938 40.203125 -0.000000000000010214 40.203125 M -0.000000000000010214 40.203125 L -3 40.203125 C -3.054688 40.203125 -3.101563 40.160156 -3.101563 40.101562 M -3.101563 40.101562 L -3.101563 34.101562 C -3.101563 34.046875 -3.058594 34 -3 34 M -3 34 L -0.000000000000008438 34 C -0.0546875 34 -0.101563 34.042969 -0.101563 34.101562 M -0.101563 34.101562 L -0.101563 28.101562 M -0.101563 28.101562 C -0.101563 28.15625 -0.0585938 28.203125 -0.000000000000007105 28.203125 M -0.000000000000007105 28.203125 L -3 28.203125 C -3.054688 28.203125 -3.101563 28.160156 -3.101563 28.101562 M -3.101563 28.101562 L -3.101563 22.101562 C -3.101563 22.046875 -3.058594 22 -3 22 M -3 22 L -0.000000000000005773 22 C -0.0546875 22 -0.101563 22.042969 -0.101563 22.101562 M -0.101563 22.101562 L -0.101563 16.101562 M -0.101563 16.101562 C -0.101563 16.15625 -0.0585938 16.203125 -0.000000000000003997 16.203125 M -0.000000000000003997 16.203125 L -3 16.203125 C -3.054688 16.203125 -3.101563 16.160156 -3.101563 16.101562 M -3.101563 16.101562 L -3.101563 10.101562 C -3.101563 10.046875 -3.058594 10 -3 10 M -3 10 L -0.000000000000002665 10 C -0.0546875 10 -0.101563 10.042969 -0.101563 10.101562 M -0.101563 10.101562 L -0.101563 0.101562 M -0.101563 0.101562 C -0.101562 0.046875 -0.0585938 0 0 0 M 0 0 L 0 0 " transform="matrix(1,0.000000000000000245,0.000000000000000245,-1,3.851563,9938.75)"/>
<path style="fill:none;stroke-width:0.2;stroke-linecap:butt;stroke-linejoin:miter;stroke:rgb(100%,0%,0%);stroke-opacity:1;stroke-miterlimit:10;" d="M 6.097656 6.101562 L 6.097656 16.101562 M 6.097656 16.101562 C 6.097656 16.15625 6.054687 16.203125 5.996094 16.203125 M 5.996094 16.203125 L 2.996094 16.203125 C 3.050781 16.203125 3.097656 16.160156 3.097656 16.101562 M 3.097656 16.101562 L 3.097656 22.101562 C 3.097656 22.046875 3.054687 22 2.996094 22 M 2.996094 22 L 5.996094 22 C 6.050781 22 6.097656 22.042969 6.097656 22.101562 M 6.097656 22.101562 L 6.097656 28.101562 M 6.097656 28.101562 C 6.097656 28.15625 6.054687 28.203125 5.996094 28.203125 M 5.996094 28.203125 L 2.996094 28.203125 C 3.050781 28.203125 3.097656 28.160156 3.097656 28.101562 M 3.097656 28.101562 L 3.097656 34.101562 C 3.097656 34.046875 3.054687 34 2.996094 34 M 2.996094 34 L 5.996094 34 C 6.050781 34 6.097656 34.042969 6.097656 34.101562 M 6.097656 34.101562 L 6.097656 40.101562 M 6.097656 40.101562 C 6.097656 40.15625 6.054687 40.203125 5.996094 40.203125 M 5.996094 40.203125 L 2.996094 40.203125 C 3.050781 40.203125 3.097656 40.160156 3.097656 40.101562 M 3.097656 40.101562 L 3.097656 46.101562 C 3.097656 46.046875 3.054687 46 2.996094 46 M 2.996094 46 L 5.996094 46 C 6.050781 46 6.097656 46.042969 6.097656 46.101562 M 6.097656 46.101562 L 6.097656 52.101562 M 6.097656 52.101562 C 6.097656 52.15625 6.054687 52.203125 5.996094 52.203125 M 5.996094 52.203125 L 2.996094 52.203125 C 3.050781 52.203125 3.097656 52.160156 3.097656 52.101562 M 3.097656 52.101562 L 3.097656 58.101562 C 3.097656 58.046875 3.054687 58 2.996094 58 M 2.996094 58 L 5.996094 58 C 6.050781 58 6.097656 58.042969 6.097656 58.101562 M 6.097656 58.101562 L 6.097656 64.101562 M 6.097656 64.101562 C 6.097656 64.15625 6.054687 64.203125 5.996094 64.203125 M 5.996094 64.203125 L 2.996094 64.203125 C 3.050781 64.203125 3.097656 64.160156 3.097656 64.101562 M 3.097656 64.101562 L 3.097656 70.101562 C 3.097656 70.046875 3.054687 70 2.996094 70 M 2.996094 70 L 5.996094 70 C 6.050781 70 6.097656 70.042969 6.097656 70.101562 M 6.097656 70.101562 L 6.097656 80.101562 C 6.097656 80.046875 6.054687 80 5.996094 80 M 5.996094 80 L 15.996094 80 M 15.996094 80 C 16.050781 80 16.097656 80.042969 16.097656 80.101562 M 16.097656 80.101562 L 16.097656 83.101562 C 16.097656 83.046875 16.054687 83 15.996094 83 M 15.996094 83 L 21.996094 83 C 21.941406 83 21.894531 83.042969 21.894531 83.101562 M 21.894531 83.101562 L 21.894531 80.101562 C 21.894531 80.046875 21.9375 80 21.996094 80 M 21.996094 80 L 27.996094 80 M 27.996094 80 C 28.050781 80 28.097656 80.042969 28.097656 80.101562 M 28.097656 80.101562 L 28.097656 83.101562 C 28.097656 83.046875 28.054687 83 27.996094 83 M 27.996094 83 L 33.996094 83 C 33.941406 83 33.894531 83.042969 33.894531 83.101562 M 33.894531 83.101562 L 33.894531 80.101562 C 33.894531 80.046875 33.9375 80 33.996094 80 M 33.996094 80 L 39.996094 80 M 39.996094 80 C 40.050781 80 40.097656 80.042969 40.097656 80.101562 M 40.097656 80.101562 L 40.097656 83.101562 C 40.097656 83.046875 40.054687 83 39.996094 83 M 39.996094 83 L 45.996094 83 C 45.941406 83 45.894531 83.042969 45.894531 83.101562 M 45.894531 83.101562 L 45.894531 80.101562 C 45.894531 80.046875 45.9375 80 45.996094 80 M 45.996094 80 L 51.996094 80 M 51.996094 80 C 52.050781 80 52.097656 80.042969 52.097656 80.101562 M 52.097656 80.101562 L 52.097656 83.101562 C 52.097656 83.046875 52.054687 83 51.996094 83 M 51.996094 83 L 57.996094 83 C 57.941406 83 57.894531 83.042969 57.894531 83.101562 M 57.894531 83.101562 L 57.894531 80.101562 C 57.894531 80.046875 57.9375 80 57.996094 80 M 57.996094 80 L 63.996094 80 M 63.996094 80 C 64.050781 80 64.097656 80.042969 64.097656 80.101562 M 64.097656 80.101562 L 64.097656 83.101562 C 64.097656 83.046875 64.054687 83 63.996094 83 M 63.996094 83 L 69.996094 83 C 69.941406 83 69.894531 83.042969 69.894531 83.101562 M 69.894531 83.101562 L 69.894531 80.101562 C 69.894531 80.046875 69.9375 80 69.996094 80 M 69.996094 80 L 79.996094 80 C 79.941406 80 79.894531 80.042969 79.894531 80.101562 M 79.894531 80.101562 L 79.894531 70.101562 M 79.894531 70.101562 C 79.894531 70.046875 79.9375 70 79.996094 70 M 79.996094 70 L 82.996094 70 C 82.941406 70 82.894531 70.042969 82.894531 70.101562 M 82.894531 70.101562 L 82.894531 64.101562 C 82.894531 64.15625 82.9375 64.203125 82.996094 64.203125 M 82.996094 64.203125 L 79.996094 64.203125 C 79.941406 64.203125 79.894531 64.160156 79.894531 64.101562 M 79.894531 64.101562 L 79.894531 58.101562 M 79.894531 58.101562 C 79.894531 58.046875 79.9375 58 79.996094 58 M 79.996094 58 L 82.996094 58 C 82.941406 58 82.894531 58.042969 82.894531 58.101562 M 82.894531 58.101562 L 82.894531 52.101562 C 82.894531 52.15625 82.9375 52.203125 82.996094 52.203125 M 82.996094 52.203125 L 79.996094 52.203125 C 79.941406 52.203125 79.894531 52.160156 79.894531 52.101562 M 79.894531 52.101562 L 79.894531 46.101562 M 79.894531 46.101562 C 79.894531 46.046875 79.9375 46 79.996094 46 M 79.996094 46 L 82.996094 46 C 82.941406 46 82.894531 46.042969 82.894531 46.101562 M 82.894531 46.101562 L 82.894531 40.101562 C 82.894531 40.15625 82.9375 40.203125 82.996094 40.203125 M 82.996094 40.203125 L 79.996094 40.203125 C 79.941406 40.203125 79.894531 40.160156 79.894531 40.101562 M 79.894531 40.101562 L 79.894531 34.101562 M 79.894531 34.101562 C 79.894531 34.046875 79.9375 34 79.996094 34 M 79.996094 34 L 82.996094 34 C 82.941406 34 82.894531 34.042969 82.894531 34.101562 M 82.894531 34.101562 L 82.894531 28.101562 C 82.894531 28.15625 82.9375 28.203125 82.996094 28.203125 M 82.996094 28.203125 L 79.996094 28.203125 C 79.941406 28.203125 79.894531 28.160156 79.894531 28.101562 M 79.894531 28.101562 L 79.894531 22.101562 M 79.894531 22.101562 C 79.894531 22.046875 79.9375 22 79.996094 22 M 79.996094 22 L 82.996094 22 C 82.941406 22 82.894531 22.042969 82.894531 22.101562 M 82.894531 22.101562 L 82.894531 16.101562 C 82.894531 16.15625 82.9375 16.203125 82.996094 16.203125 M 82.996094 16.203125 L 79.996094 16.203125 C 79.941406 16.203125 79.894531 16.160156 79.894531 16.101562 M 79.894531 16.101562 L 79.894531 6.101562 C 79.894531 6.15625 79.9375 6.203125 79.996094 6.203125 M 79.996094 6.203125 L 69.996094 6.203125 M 69.996094 6.203125 C 69.941406 6.203125 69.894531 6.160156 69.894531 6.101562 M 69.894531 6.101562 L 69.894531 3.101562 C 69.894531 3.15625 69.9375 3.203125 69.996094 3.203125 M 69.996094 3.203125 L 63.996094 3.203125 C 64.050781 3.203125 64.097656 3.160156 64.097656 3.101562 M 64.097656 3.101562 L 64.097656 6.101562 C 64.097656 6.15625 64.054688 6.203125 63.996094 6.203125 M 63.996094 6.203125 L 57.996094 6.203125 M 57.996094 6.203125 C 57.941406 6.203125 57.894531 6.160156 57.894531 6.101562 M 57.894531 6.101562 L 57.894531 3.101562 C 57.894531 3.15625 57.9375 3.203125 57.996094 3.203125 M 57.996094 3.203125 L 51.996094 3.203125 C 52.050781 3.203125 52.097656 3.160156 52.097656 3.101562 M 52.097656 3.101562 L 52.097656 6.101562 C 52.097656 6.15625 52.054688 6.203125 51.996094 6.203125 M 51.996094 6.203125 L 45.996094 6.203125 M 45.996094 6.203125 C 45.941406 6.203125 45.894531 6.160156 45.894531 6.101562 M 45.894531 6.101562 L 45.894531 3.101562 C 45.894531 3.15625 45.9375 3.203125 45.996094 3.203125 M 45.996094 3.203125 L 39.996094 3.203125 C 40.050781 3.203125 40.097656 3.160156 40.097656 3.101562 M 40.097656 3.101562 L 40.097656 6.101562 C 40.097656 6.15625 40.054688 6.203125 39.996094 6.203125 M 39.996094 6.203125 L 33.996094 6.203125 M 33.996094 6.203125 C 33.941406 6.203125 33.894531 6.160156 33.894531 6.101562 M 33.894531 6.101562 L 33.894531 3.101562 C 33.894531 3.15625 33.9375 3.203125 33.996094 3.203125 M 33.996094 3.203125 L 27.996094 3.203125 C 28.050781 3.203125 28.097656 3.160156 28.097656 3.101562 M 28.097656 3.101562 L 28.097656 6.101562 C 28.097656 6.15625 28.054687 6.203125 27.996094 6.203125 M 27.996094 6.203125 L 21.996094 6.203125 M 21.996094 6.203125 C 21.941406 6.203125 21.894531 6.160156 21.894531 6.101562 M 21.894531 6.101562 L 21.894531 3.101562 C 21.894531 3.15625 21.9375 3.203125 21.996094 3.203125 M 21.996094 3.203125 L 15.996094 3.203125 C 16.050781 3.203125 16.097656 3.160156 16.097656 3.101562 M 16.097656 3.101562 L 16.097656 6.101562 C 16.097656 6.15625 16.054687 6.203125 15.996094 6.203125 M 15.996094 6.203125 L 5.996094 6.203125 C 6.050781 6.203125 6.097656 6.160156 6.097656 6.101562 M 0 0 L 86 0 M 86 0 C 86.054688 0 86.101562 0.0429688 86.101562 0.101562 M 86.101562 0.101562 L 86.101562 0.101562 M 86.101562 0.101562 L 86.101562 86.101562 M 86.101562 86.101562 C 86.101562 86.15625 86.058594 86.203125 86 86.203125 M 86 86.203125 L 86 86.203125 M 86 86.203125 L -0.000000000000021205 86.203125 M -0.000000000000021205 86.203125 C -0.0546875 86.203125 -0.101563 86.160156 -0.101563 86.101562 M -0.101563 86.101562 L -0.101563 86.101562 M -0.101563 86.101562 L -0.101563 0.101562 M -0.101563 0.101562 C -0.101563 0.046875 -0.0585938 0 0 0 M 0 0 L 0 0 " transform="matrix(1,0.000000000000000245,0.000000000000000245,-1,0.851563,9860.050781)"/>
<path style="fill:none;stroke-width:0.2;stroke-linecap:butt;stroke-linejoin:miter;stroke:rgb(0%,0%,0%);stroke-opacity:1;stroke-miterlimit:10;" d="M 0 0 L 10 0 M 10 0 C 10.054688 0 10.101562 0.0429688 10.101562 0.101562 M 10.101562 0.101562 L 10.101562 3.101562 C 10.101562 3.046875 10.058594 3 10 3 M 10 3 L 16 3 C 15.945312 3 15.898438 3.042969 15.898438 3.101562 M 15.898438 3.101562 L 15.898438 0.101562 C 15.898438 0.046875 15.941406 0 16 0 M 16 0 L 22 0 M 22 0 C 22.054688 0 22.101562 0.0429688 22.101562 0.101562 M 22.101562 0.101562 L 22.101562 3.101562 C 22.101562 3.046875 22.058594 3 22 3 M 22 3 L 28 3 C 27.945312 3 27.898438 3.042969 27.898438 3.101562 M 27.898438 3.101562 L 27.898438 0.101562 C 27.898438 0.046875 27.941406 0 28 0 M 28 0 L 34 0 M 34 0 C 34.054688 0 34.101562 0.0429688 34.101562 0.101562 M 34.101562 0.101562 L 34.101562 3.101562 C 34.101562 3.046875 34.058594 3 34 3 M 34 3 L 40 3 C 39.945312 3 39.898438 3.042969 39.898438 3.101562 M 39.898438 3.101562 L 39.898438 0.101562 C 39.898438 0.046875 39.941406 0 40 0 M 40 0 L 46 0 M 46 0 C 46.054688 0 46.101562 0.0429688 46.101562 0.101562 M 46.101562 0.101562 L 46.101562 3.101562 C 46.101562 3.046875 46.058594 3 46 3 M 46 3 L 52 3 C 51.945312 3 51.898438 3.042969 51.898438 3.101562 M 51.898438 3.101562 L 51.898438 0.101562 C 51.898438 0.046875 51.941406 0 52 0 M 52 0 L 58 0 M 58 0 C 58.054688 0 58.101562 0.0429688 58.101562 0.101562 M 58.101562 0.101562 L 58.101562 3.101562 C 58.101562 3.046875 58.058594 3 58 3 M 58 3 L 64 3 C 63.945312 3 63.898437 3.042969 63.898437 3.101562 M 63.898437 3.101562 L 63.898437 0.101562 C 63.898437 0.046875 63.941406 0 64 0 M 64 0 L 74 0 M 74 0 L 77 0 C 77.054688 0 77.101562 0.0429688 77.101562 0.101562 M 77.101562 0.101562 L 77.101562 3.101562 M 77.101562 3.101562 L 77.101562 13.101562 M 77.101562 13.101562 C 77.101562 13.15625 77.058594 13.203125 77 13.203125 M 77 13.203125 L 74 13.203125 C 74.054688 13.203125 74.101562 13.160156 74.101562 13.101562 M 74.101562 13.101562 L 74.101562 19.101562 C 74.101562 19.046875 74.058594 19 74 19 M 74 19 L 77 19 C 77.054688 19 77.101562 19.042969 77.101562 19.101562 M 77.101562 19.101562 L 77.101562 25.101562 M 77.101562 25.101562 C 77.101562 25.15625 77.058594 25.203125 77 25.203125 M 77 25.203125 L 74 25.203125 C 74.054688 25.203125 74.101562 25.160156 74.101562 25.101562 M 74.101562 25.101562 L 74.101562 31.101562 C 74.101562 31.046875 74.058594 31 74 31 M 74 31 L 77 31 C 77.054688 31 77.101562 31.042969 77.101562 31.101562 M 77.101562 31.101562 L 77.101562 37.101562 M 77.101562 37.101562 C 77.101562 37.15625 77.058594 37.203125 77 37.203125 M 77 37.203125 L 74 37.203125 C 74.054688 37.203125 74.101562 37.160156 74.101562 37.101562 M 74.101562 37.101562 L 74.101562 43.101562 C 74.101562 43.046875 74.058594 43 74 43 M 74 43 L 77 43 C 77.054688 43 77.101562 43.042969 77.101562 43.101562 M 77.101562 43.101562 L 77.101562 49.101562 M 77.101562 49.101562 C 77.101562 49.15625 77.058594 49.203125 77 49.203125 M 77 49.203125 L 74 49.203125 C 74.054688 49.203125 74.101562 49.160156 74.101562 49.101562 M 74.101562 49.101562 L 74.101562 55.101562 C 74.101562 55.046875 74.058594 55 74 55 M 74 55 L 77 55 C 77.054687 55 77.101562 55.042969 77.101562 55.101562 M 77.101562 55.101562 L 77.101562 61.101562 M 77.101562 61.101562 C 77.101562 61.15625 77.058594 61.203125 77 61.203125 M 77 61.203125 L 74 61.203125 C 74.054687 61.203125 74.101562 61.160156 74.101562 61.101562 M 74.101562 61.101562 L 74.101562 67.101562 C 74.101562 67.046875 74.058594 67 74 67 M 74 67 L 77 67 C 77.054687 67 77.101562 67.042969 77.101562 67.101562 M 77.101562 67.101562 L 77.101562 77.101562 M 77.101562 77.101562 L 77.101562 80.101562 C 77.101562 80.15625 77.058594 80.203125 77 80.203125 M 77 80.203125 L 74 80.203125 M 74 80.203125 L 64 80.203125 M 64 80.203125 C 63.945312 80.203125 63.898437 80.160156 63.898437 80.101562 M 63.898437 80.101562 L 63.898437 77.101562 C 63.898437 77.15625 63.941406 77.203125 64 77.203125 M 64 77.203125 L 58 77.203125 C 58.054687 77.203125 58.101562 77.160156 58.101562 77.101562 M 58.101562 77.101562 L 58.101562 80.101562 C 58.101562 80.15625 58.058594 80.203125 58 80.203125 M 58 80.203125 L 52 80.203125 M 52 80.203125 C 51.945312 80.203125 51.898437 80.160156 51.898437 80.101562 M 51.898437 80.101562 L 51.898437 77.101562 C 51.898437 77.15625 51.941406 77.203125 52 77.203125 M 52 77.203125 L 46 77.203125 C 46.054687 77.203125 46.101562 77.160156 46.101562 77.101562 M 46.101562 77.101562 L 46.101562 80.101562 C 46.101562 80.15625 46.058594 80.203125 46 80.203125 M 46 80.203125 L 40 80.203125 M 40 80.203125 C 39.945312 80.203125 39.898437 80.160156 39.898437 80.101562 M 39.898437 80.101562 L 39.898437 77.101562 C 39.898437 77.15625 39.941406 77.203125 40 77.203125 M 40 77.203125 L 34 77.203125 C 34.054687 77.203125 34.101562 77.160156 34.101562 77.101562 M 34.101562 77.101562 L 34.101562 80.101562 C 34.101562 80.15625 34.058594 80.203125 34 80.203125 M 34 80.203125 L 28 80.203125 M 28 80.203125 C 27.945312 80.203125 27.898437 80.160156 27.898437 80.101562 M 27.898437 80.101562 L 27.898437 77.101562 C 27.898437 77.15625 27.941406 77.203125 28 77.203125 M 28 77.203125 L 22 77.203125 C 22.054687 77.203125 22.101562 77.160156 22.101562 77.101562 M 22.101562 77.101562 L 22.101562 80.101562 C 22.101562 80.15625 22.058594 80.203125 22 80.203125 M 22 80.203125 L 16 80.203125 M 16 80.203125 C 15.945312 80.203125 15.898437 80.160156 15.898437 80.101562 M 15.898437 80.101562 L 15.898437 77.101562 C 15.898437 77.15625 15.941406 77.203125 16 77.203125 M 16 77.203125 L 10 77.203125 C 10.054687 77.203125 10.101562 77.160156 10.101562 77.101562 M 10.101562 77.101562 L 10.101562 80.101562 C 10.101562 80.15625 10.058594 80.203125 10 80.203125 M 10 80.203125 L -0.00000000000001954 80.203125 M -0.00000000000001954 80.203125 L -3 80.203125 C -3.054688 80.203125 -3.101563 80.160156 -3.101563 80.101562 M -3.101563 80.101562 L -3.101563 77.101562 M -3.101563 77.101562 L -3.101563 67.101562 M -3.101563 67.101562 C -3.101563 67.046875 -3.058594 67 -3 67 M -3 67 L -0.000000000000016431 67 C -0.0546875 67 -0.101563 67.042969 -0.101563 67.101562 M -0.101563 67.101562 L -0.101563 61.101562 C -0.101563 61.15625 -0.0585938 61.203125 -0.000000000000015099 61.203125 M -0.000000000000015099 61.203125 L -3 61.203125 C -3.054688 61.203125 -3.101563 61.160156 -3.101563 61.101562 M -3.101563 61.101562 L -3.101563 55.101562 M -3.101563 55.101562 C -3.101563 55.046875 -3.058594 55 -3 55 M -3 55 L -0.000000000000013767 55 C -0.0546875 55 -0.101563 55.042969 -0.101563 55.101562 M -0.101563 55.101562 L -0.101563 49.101562 C -0.101563 49.15625 -0.0585938 49.203125 -0.00000000000001199 49.203125 M -0.00000000000001199 49.203125 L -3 49.203125 C -3.054688 49.203125 -3.101563 49.160156 -3.101563 49.101562 M -3.101563 49.101562 L -3.101563 43.101562 M -3.101563 43.101562 C -3.101563 43.046875 -3.058594 43 -3 43 M -3 43 L -0.000000000000010658 43 C -0.0546875 43 -0.101563 43.042969 -0.101563 43.101562 M -0.101563 43.101562 L -0.101563 37.101562 C -0.101563 37.15625 -0.0585938 37.203125 -0.000000000000009326 37.203125 M -0.000000000000009326 37.203125 L -3 37.203125 C -3.054688 37.203125 -3.101563 37.160156 -3.101563 37.101562 M -3.101563 37.101562 L -3.101563 31.101562 M -3.101563 31.101562 C -3.101563 31.046875 -3.058594 31 -3 31 M -3 31 L -0.00000000000000755 31 C -0.0546875 31 -0.101563 31.042969 -0.101563 31.101562 M -0.101563 31.101562 L -0.101563 25.101562 C -0.101563 25.15625 -0.0585938 25.203125 -0.000000000000006217 25.203125 M -0.000000000000006217 25.203125 L -3 25.203125 C -3.054688 25.203125 -3.101563 25.160156 -3.101563 25.101562 M -3.101563 25.101562 L -3.101563 19.101562 M -3.101563 19.101562 C -3.101563 19.046875 -3.058594 19 -3 19 M -3 19 L -0.000000000000004885 19 C -0.0546875 19 -0.101563 19.042969 -0.101563 19.101562 M -0.101563 19.101562 L -0.101563 13.101562 C -0.101563 13.15625 -0.0585938 13.203125 -0.000000000000003553 13.203125 M -0.000000000000003553 13.203125 L -3 13.203125 C -3.054688 13.203125 -3.101563 13.160156 -3.101563 13.101562 M -3.101563 13.101562 L -3.101563 3.101562 M -3.101563 3.101562 L -3.101562 0.101562 C -3.101562 0.046875 -3.058594 0 -3 0 M -3 0 L 0 0 " transform="matrix(1,0.000000000000000245,0.000000000000000245,-1,3.851562,9772.351562)"/>
<path style="fill:none;stroke-width:0.2;stroke-linecap:butt;stroke-linejoin:miter;stroke:rgb(0%,0%,0%);stroke-opacity:1;stroke-miterlimit:10;" d="M 0 0 L 10 0 M 10 0 C 10.054688 0 10.101562 0.0429688 10.101562 0.101562 M 10.101562 0.101562 L 10.101562 3.101562 C 10.101562 3.046875 10.058594 3 10 3 M 10 3 L 16 3 C 15.945312 3 15.898438 3.042969 15.898438 3.101562 M 15.898438 3.101562 L 15.898438 0.101562 C 15.898438 0.046875 15.941406 0 16 0 M 16 0 L 22 0 M 22 0 C 22.054688 0 22.101562 0.0429688 22.101562 0.101562 M 22.101562 0.101562 L 22.101562 3.101562 C 22.101562 3.046875 22.058594 3 22 3 M 22 3 L 28 3 C 27.945312 3 27.898438 3.042969 27.898438 3.101562 M 27.898438 3.101562 L 27.898438 0.101562 C 27.898438 0.046875 27.941406 0 28 0 M 28 0 L 34 0 M 34 0 C 34.054688 0 34.101562 0.0429688 34.101562 0.101562 M 34.101562 0.101562 L 34.101562 3.101562 C 34.101562 3.046875 34.058594 3 34 3 M 34 3 L 40 3 C 39.945312 3 39.898438 3.042969 39.898438 3.101562 M 39.898438 3.101562 L 39.898438 0.101562 C 39.898438 0.046875 39.941406 0 40 0 M 40 0 L 46 0 M 46 0 C 46.054688 0 46.101562 0.0429688 46.101562 0.101562 M 46.101562 0.101562 L 46.101562 3.101562 C 46.101562 3.046875 46.058594 3 46 3 M 46 3 L 52 3 C 51.945312 3 51.898438 3.042969 51.898438 3.101562 M 51.898438 3.101562 L 51.898438 0.101562 C 51.898438 0.046875 51.941406 0 52 0 M 52 0 L 58 0 M 58 0 C 58.054688 0 58.101562 0.0429688 58.101562 0.101562 M 58.101562 0.101562 L 58.101562 3.101562 C 58.101562 3.046875 58.058594 3 58 3 M 58 3 L 64 3 C 63.945312 3 63.898438 3.042969 63.898438 3.101562 M 63.898438 3.101562 L 63.898438 0.101562 C 63.898438 0.046875 63.941406 0 64 0 M 64 0 L 74 0 M 74 0 C 74.054688 0 74.101562 0.0429688 74.101562 0.101562 M 74.101562 0.101562 L 74.101562 3.101562 M 74.101562 3.101562 L 74.101562 10.601562 M 74.101562 10.601562 C 74.101562 10.546875 74.058594 10.5 74 10.5 M 74 10.5 L 77 10.5 C 77.054688 10.5 77.101562 10.542969 77.101562 10.601562 M 77.101562 10.601562 L 77.101562 16.601562 C 77.101562 16.65625 77.058594 16.703125 77 16.703125 M 77 16.703125 L 74 16.703125 C 74.054688 16.703125 74.101562 16.660156 74.101562 16.601562 M 74.101562 16.601562 L 74.101562 24.101562 M 74.101562 24.101562 C 74.101562 24.15625 74.058594 24.203125 74 24.203125 M 74 24.203125 L 74 24.203125 M 74 24.203125 L 64 24.203125 M 64 24.203125 C 64.054688 24.203125 64.101562 24.160156 64.101562 24.101562 M 64.101562 24.101562 L 64.101562 27.101562 C 64.101562 27.15625 64.058594 27.203125 64 27.203125 M 64 27.203125 L 58 27.203125 C 57.945312 27.203125 57.898438 27.160156 57.898438 27.101562 M 57.898438 27.101562 L 57.898438 24.101562 C 57.898438 24.15625 57.941406 24.203125 58 24.203125 M 58 24.203125 L 52 24.203125 M 52 24.203125 C 52.054688 24.203125 52.101562 24.160156 52.101562 24.101562 M 52.101562 24.101562 L 52.101562 27.101562 C 52.101562 27.15625 52.058594 27.203125 52 27.203125 M 52 27.203125 L 46 27.203125 C 45.945312 27.203125 45.898438 27.160156 45.898438 27.101562 M 45.898438 27.101562 L 45.898438 24.101562 C 45.898438 24.15625 45.941406 24.203125 46 24.203125 M 46 24.203125 L 40 24.203125 M 40 24.203125 C 40.054688 24.203125 40.101562 24.160156 40.101562 24.101562 M 40.101562 24.101562 L 40.101562 27.101562 C 40.101562 27.15625 40.058594 27.203125 40 27.203125 M 40 27.203125 L 34 27.203125 C 33.945312 27.203125 33.898438 27.160156 33.898438 27.101562 M 33.898438 27.101562 L 33.898438 24.101562 C 33.898438 24.15625 33.941406 24.203125 34 24.203125 M 34 24.203125 L 28 24.203125 M 28 24.203125 C 28.054688 24.203125 28.101562 24.160156 28.101562 24.101562 M 28.101562 24.101562 L 28.101562 27.101562 C 28.101562 27.15625 28.058594 27.203125 28 27.203125 M 28 27.203125 L 22 27.203125 C 21.945312 27.203125 21.898438 27.160156 21.898438 27.101562 M 21.898438 27.101562 L 21.898438 24.101562 C 21.898438 24.15625 21.941406 24.203125 22 24.203125 M 22 24.203125 L 16 24.203125 M 16 24.203125 C 16.054688 24.203125 16.101562 24.160156 16.101562 24.101562 M 16.101562 24.101562 L 16.101562 27.101562 C 16.101562 27.15625 16.058594 27.203125 16 27.203125 M 16 27.203125 L 10 27.203125 C 9.945312 27.203125 9.898438 27.160156 9.898438 27.101562 M 9.898438 27.101562 L 9.898438 24.101562 C 9.898438 24.15625 9.941406 24.203125 10 24.203125 M 10 24.203125 L 0 24.203125 M 0 24.203125 C -0.0546875 24.203125 -0.101562 24.160156 -0.101562 24.101562 M -0.101562 24.101562 L -0.101562 24.101562 M -0.101562 24.101562 L -0.101562 16.601562 M -0.101562 16.601562 C -0.101562 16.65625 -0.0585938 16.703125 0 16.703125 M 0 16.703125 L -3 16.703125 C -3.054688 16.703125 -3.101562 16.660156 -3.101562 16.601562 M -3.101562 16.601562 L -3.101562 10.601562 C -3.101562 10.546875 -3.058594 10.5 -3 10.5 M -3 10.5 L 0 10.5 C -0.0546875 10.5 -0.101562 10.542969 -0.101562 10.601562 M -0.101562 10.601562 L -0.101562 3.101562 M -0.101562 3.101562 L -0.101562 0.101562 C -0.101562 0.046875 -0.0585938 0 0 0 M 0 0 L 0 0 " transform="matrix(1,0.000000000000000245,0.000000000000000245,-1,85.550781,9999.148438)"/>
<path style="fill:none;stroke-width:0.2;stroke-linecap:butt;stroke-linejoin:miter;stroke:rgb(0%,0%,0%);stroke-opacity:1;stroke-miterlimit:10;" d="M 0 0 L 10 0 M 10 0 C 10.054688 0 10.101562 0.0429688 10.101562 0.101562 M 10.101562 0.101562 L 10.101562 3.101562 C 10.101562 3.046875 10.058594 3 10 3 M 10 3 L 16 3 C 15.945312 3 15.898438 3.042969 15.898438 3.101562 M 15.898438 3.101562 L 15.898438 0.101562 C 15.898438 0.046875 15.941406 0 16 0 M 16 0 L 22 0 M 22 0 C 22.054688 0 22.101562 0.0429688 22.101562 0.101562 M 22.101562 0.101562 L 22.101562 3.101562 C 22.101562 3.046875 22.058594 3 22 3 M 22 3 L 28 3 C 27.945312 3 27.898438 3.042969 27.898438 3.101562 M 27.898438 3.101562 L 27.898438 0.101562 C 27.898438 0.046875 27.941406 0 28 0 M 28 0 L 34 0 M 34 0 C 34.054688 0 34.101562 0.0429688 34.101562 0.101562 M 34.101562 0.101562 L 34.101562 3.101562 C 34.101562 3.046875 34.058594 3 34 3 M 34 3 L 40 3 C 39.945312 3 39.898438 3.042969 39.898438 3.101562 M 39.898438 3.101562 L 39.898438 0.101562 C 39.898438 0.046875 39.941406 0 40 0 M 40 0 L 46 0 M 46 0 C 46.054688 0 46.101562 0.0429688 46.101562 0.101562 M 46.101562 0.101562 L 46.101562 3.101562 C 46.101562 3.046875 46.058594 3 46 3 M 46 3 L 52 3 C 51.945312 3 51.898438 3.042969 51.898438 3.101562 M 51.898438 3.101562 L 51.898438 0.101562 C 51.898438 0.046875 51.941406 0 52 0 M 52 0 L 58 0 M 58 0 C 58.054688 0 58.101562 0.0429688 58.101562 0.101562 M 58.101562 0.101562 L 58.101562 3.101562 C 58.101562 3.046875 58.058594 3 58 3 M 58 3 L 64 3 C 63.945312 3 63.898438 3.042969 63.898438 3.101562 M 63.898438 3.101562 L 63.898438 0.101562 C 63.898438 0.046875 63.941406 0 64 0 M 64 0 L 74 0 M 74 0 C 74.054688 0 74.101562 0.0429688 74.101562 0.101562 M 74.101562 0.101562 L 74.101562 3.101562 M 74.101562 3.101562 L 74.101562 10.601562 M 74.101562 10.601562 C 74.101562 10.546875 74.058594 10.5 74 10.5 M 74 10.5 L 77 10.5 C 77.054688 10.5 77.101562 10.542969 77.101562 10.601562 M 77.101562 10.601562 L 77.101562 16.601562 C 77.101562 16.65625 77.058594 16.703125 77 16.703125 M 77 16.703125 L 74 16.703125 C 74.054688 16.703125 74.101562 16.660156 74.101562 16.601562 M 74.101562 16.601562 L 74.101562 24.101562 M 74.101562 24.101562 C 74.101562 24.15625 74.058594 24.203125 74 24.203125 M 74 24.203125 L 74 24.203125 M 74 24.203125 L 64 24.203125 M 64 24.203125 C 64.054688 24.203125 64.101562 24.160156 64.101562 24.101562 M 64.101562 24.101562 L 64.101562 27.101562 C 64.101562 27.15625 64.058594 27.203125 64 27.203125 M 64 27.203125 L 58 27.203125 C 57.945312 27.203125 57.898438 27.160156 57.898438 27.101562 M 57.898438 27.101562 L 57.898438 24.101562 C 57.898438 24.15625 57.941406 24.203125 58 24.203125 M 58 24.203125 L 52 24.203125 M 52 24.203125 C 52.054688 24.203125 52.101562 24.160156 52.101562 24.101562 M 52.101562 24.101562 L 52.101562 27.101562 C 52.101562 27.15625 52.058594 27.203125 52 27.203125 M 52 27.203125 L 46 27.203125 C 45.945312 27.203125 45.898438 27.160156 45.898438 27.101562 M 45.898438 27.101562 L 45.898438 24.101562 C 45.898438 24.15625 45.941406 24.203125 46 24.203125 M 46 24.203125 L 40 24.203125 M 40 24.203125 C 40.054687 24.203125 40.101562 24.160156 40.101562 24.101562 M 40.101562 24.101562 L 40.101562 27.101562 C 40.101562 27.15625 40.058594 27.203125 40 27.203125 M 40 27.203125 L 34 27.203125 C 33.945312 27.203125 33.898437 27.160156 33.898437 27.101562 M 33.898437 27.101562 L 33.898437 24.101562 C 33.898437 24.15625 33.941406 24.203125 34 24.203125 M 34 24.203125 L 28 24.203125 M 28 24.203125 C 28.054687 24.203125 28.101562 24.160156 28.101562 24.101562 M 28.101562 24.101562 L 28.101562 27.101562 C 28.101562 27.15625 28.058594 27.203125 28 27.203125 M 28 27.203125 L 22 27.203125 C 21.945312 27.203125 21.898437 27.160156 21.898437 27.101562 M 21.898437 27.101562 L 21.898437 24.101562 C 21.898437 24.15625 21.941406 24.203125 22 24.203125 M 22 24.203125 L 16 24.203125 M 16 24.203125 C 16.054687 24.203125 16.101562 24.160156 16.101562 24.101562 M 16.101562 24.101562 L 16.101562 27.101562 C 16.101562 27.15625 16.058594 27.203125 16 27.203125 M 16 27.203125 L 10 27.203125 C 9.945312 27.203125 9.898437 27.160156 9.898437 27.101562 M 9.898437 27.101562 L 9.898437 24.101562 C 9.898437 24.15625 9.941406 24.203125 10 24.203125 M 10 24.203125 L -0.000000000000014211 24.203125 M -0.000000000000014211 24.203125 C -0.0546875 24.203125 -0.101563 24.160156 -0.101563 24.101562 M -0.101563 24.101562 L -0.101563 24.101562 M -0.101563 24.101562 L -0.101562 16.601562 M -0.101562 16.601562 C -0.101562 16.65625 -0.0585938 16.703125 0 16.703125 M 0 16.703125 L -3 16.703125 C -3.054688 16.703125 -3.101562 16.660156 -3.101562 16.601562 M -3.101562 16.601562 L -3.101562 10.601562 C -3.101562 10.546875 -3.058594 10.5 -3 10.5 M -3 10.5 L 0 10.5 C -0.0546875 10.5 -0.101562 10.542969 -0.101562 10.601562 M -0.101562 10.601562 L -0.101562 3.101562 M -0.101562 3.101562 L -0.101562 0.101562 C -0.101562 0.046875 -0.0585938 0 0 0 M 0 0 L 0 0 " transform="matrix(1,0.000000000000000245,0.000000000000000245,-1,85.550781,9970.449219)"/>
</g>
</svg>
