<?xml version="1.0" encoding="UTF-8" standalone="no"?>
<!-- Created with Inkscape (http://www.inkscape.org/) -->

<svg
   xmlns:dc="http://purl.org/dc/elements/1.1/"
   xmlns:cc="http://creativecommons.org/ns#"
   xmlns:rdf="http://www.w3.org/1999/02/22-rdf-syntax-ns#"
   xmlns:svg="http://www.w3.org/2000/svg"
   xmlns="http://www.w3.org/2000/svg"
   xmlns:sodipodi="http://sodipodi.sourceforge.net/DTD/sodipodi-0.dtd"
   xmlns:inkscape="http://www.inkscape.org/namespaces/inkscape"
   width="264.99271mm"
   height="248.86775mm"
   viewBox="0 0 264.99271 248.86775"
   version="1.1"
   id="svg8"
   inkscape:version="0.92.1 r15371"
   sodipodi:docname="SawStopBox3.svg">
  <defs
     id="defs2" />
  <sodipodi:namedview
     id="base"
     pagecolor="#ffffff"
     bordercolor="#666666"
     borderopacity="1.0"
     inkscape:pageopacity="0.0"
     inkscape:pageshadow="2"
     inkscape:zoom="0.42951187"
     inkscape:cx="1103.9063"
     inkscape:cy="681.97438"
     inkscape:document-units="mm"
     inkscape:current-layer="layer1"
     showgrid="false"
     fit-margin-top="0"
     fit-margin-left="0"
     fit-margin-right="0"
     fit-margin-bottom="0"
     showguides="true"
     inkscape:guide-bbox="true"
     inkscape:window-width="1920"
     inkscape:window-height="1017"
     inkscape:window-x="-8"
     inkscape:window-y="-8"
     inkscape:window-maximized="1">
    <sodipodi:guide
       position="118.30664,128.87806"
       orientation="1,0"
       id="guide885"
       inkscape:locked="false"
       inkscape:label=""
       inkscape:color="rgb(0,0,255)" />
    <sodipodi:guide
       position="154.63212,48.397413"
       orientation="0,1"
       id="guide887"
       inkscape:locked="false"
       inkscape:label=""
       inkscape:color="rgb(0,0,255)" />
    <sodipodi:guide
       position="58.201563,96.2015"
       orientation="1,0"
       id="guide893"
       inkscape:locked="false"
       inkscape:label=""
       inkscape:color="rgb(0,0,255)" />
    <sodipodi:guide
       position="100.7439,23.280457"
       orientation="0,1"
       id="guide895"
       inkscape:locked="false"
       inkscape:label=""
       inkscape:color="rgb(0,0,255)" />
    <sodipodi:guide
       position="102.29741,11.280456"
       orientation="0,1"
       id="guide899"
       inkscape:locked="false"
       inkscape:label=""
       inkscape:color="rgb(0,0,255)" />
    <sodipodi:guide
       position="83.160306,76.973621"
       orientation="1,0"
       id="guide1829"
       inkscape:locked="false"
       inkscape:label=""
       inkscape:color="rgb(0,0,255)" />
    <sodipodi:guide
       position="103.0203,114.65862"
       orientation="1,0"
       id="guide1831"
       inkscape:locked="false"
       inkscape:label=""
       inkscape:color="rgb(0,0,255)" />
    <sodipodi:guide
       position="18.303125,60.90076"
       orientation="0,1"
       id="guide1837"
       inkscape:locked="false"
       inkscape:label=""
       inkscape:color="rgb(0,0,255)" />
    <sodipodi:guide
       position="233.19681,68.420998"
       orientation="1,0"
       id="guide1916"
       inkscape:locked="false"
       inkscape:label=""
       inkscape:color="rgb(0,0,255)" />
    <sodipodi:guide
       position="24.100002,68.59996"
       orientation="0,1"
       id="guide4580"
       inkscape:locked="false" />
    <sodipodi:guide
       position="24.303126,35.90076"
       orientation="0,1"
       id="guide4582"
       inkscape:locked="false" />
  </sodipodi:namedview>
  <metadata
     id="metadata5">
    <rdf:RDF>
      <cc:Work
         rdf:about="">
        <dc:format>image/svg+xml</dc:format>
        <dc:type
           rdf:resource="http://purl.org/dc/dcmitype/StillImage" />
        <dc:title></dc:title>
      </cc:Work>
    </rdf:RDF>
  </metadata>
  <g
     inkscape:label="Layer 1"
     inkscape:groupmode="layer"
     id="layer1"
     transform="translate(-14.663111,-32.488147)">
    <path
       inkscape:connector-curvature="0"
       style="fill:none;stroke:#000000;stroke-width:0.2;stroke-linecap:butt;stroke-linejoin:miter;stroke-miterlimit:10;stroke-opacity:1"
       d="m 178.04707,281.2559 h 9.5 m 0,0 c 0.0547,0 0.10156,-0.043 0.10156,-0.10156 m 0,0 v -3 c 0,0.0547 -0.043,0.10156 -0.10156,0.10156 m 0,0 h 6 c -0.0547,0 -0.10156,-0.043 -0.10156,-0.10156 m 0,0 v 3 c 0,0.0547 0.043,0.10156 0.10156,0.10156 m 0,0 h 6 m 0,0 c 0.0547,0 0.10156,-0.043 0.10156,-0.10156 m 0,0 v -3 c 0,0.0547 -0.043,0.10156 -0.10156,0.10156 m 0,0 h 6 c -0.0547,0 -0.10156,-0.043 -0.10156,-0.10156 m 0,0 v 3 c 0,0.0547 0.043,0.10156 0.10156,0.10156 m 0,0 h 6 m 0,0 c 0.0547,0 0.10156,-0.043 0.10156,-0.10156 m 0,0 v -3 c 0,0.0547 -0.043,0.10156 -0.10156,0.10156 m 0,0 h 6 c -0.0547,0 -0.10156,-0.043 -0.10156,-0.10156 m 0,0 v 3 c 0,0.0547 0.043,0.10156 0.10156,0.10156 m 0,0 h 6 m 0,0 c 0.0547,0 0.10156,-0.043 0.10156,-0.10156 m 0,0 v -3 c 0,0.0547 -0.043,0.10156 -0.10156,0.10156 m 0,0 h 6 c -0.0547,0 -0.10156,-0.043 -0.10156,-0.10156 m 0,0 v 3 c 0,0.0547 0.043,0.10156 0.10156,0.10156 m 0,0 h 6 m 0,0 c 0.0547,0 0.10156,-0.043 0.10156,-0.10156 m 0,0 v -3 c 0,0.0547 -0.043,0.10156 -0.10156,0.10156 m 0,0 h 6 c -0.0547,0 -0.10156,-0.043 -0.10156,-0.10156 m 0,0 v 3 c 0,0.0547 0.043,0.10156 0.10156,0.10156 m 0,0 h 6 m 0,0 c 0.0547,0 0.10156,-0.043 0.10156,-0.10156 m 0,0 v -3 c 0,0.0547 -0.043,0.10156 -0.10156,0.10156 m 0,0 h 6 c -0.0547,0 -0.10156,-0.043 -0.10156,-0.10156 m 0,0 v 3 c 0,0.0547 0.043,0.10156 0.10156,0.10156 m 0,0 h 9.5 m 0,0 c 0.0547,0 0.10156,-0.043 0.10156,-0.10156 m 0,0 v -3 m 0,0 v -9.5 m 0,0 c 0,0.0547 -0.043,0.10156 -0.10156,0.10156 m 0,0 h 3 c 0.0547,0 0.10156,-0.043 0.10156,-0.10156 m 0,0 v -6 c 0,-0.0547 -0.043,-0.10157 -0.10156,-0.10157 m 0,0 h -3 c 0.0547,0 0.10156,0.043 0.10156,0.10157 m 0,0 v -9.5 m 0,0 c 0,-0.0547 -0.043,-0.10157 -0.10156,-0.10157 m 0,0 v 0 m 0,0 h -9.5 m 0,0 c 0.0547,0 0.10156,0.043 0.10156,0.10157 m 0,0 v -3 c 0,-0.0547 -0.043,-0.10157 -0.10156,-0.10157 m 0,0 h -6 c -0.0547,0 -0.10156,0.043 -0.10156,0.10157 m 0,0 v 3 c 0,-0.0547 0.043,-0.10157 0.10156,-0.10157 m 0,0 h -6 m 0,0 c 0.0547,0 0.10156,0.043 0.10156,0.10157 m 0,0 v -3 c 0,-0.0547 -0.043,-0.10157 -0.10156,-0.10157 m 0,0 h -6 c -0.0547,0 -0.10156,0.043 -0.10156,0.10157 m 0,0 v 3 c 0,-0.0547 0.043,-0.10157 0.10156,-0.10157 m 0,0 h -6 m 0,0 c 0.0547,0 0.10156,0.043 0.10156,0.10157 m 0,0 v -3 c 0,-0.0547 -0.043,-0.10157 -0.10156,-0.10157 m 0,0 h -6 c -0.0547,0 -0.10156,0.043 -0.10156,0.10157 m 0,0 v 3 c 0,-0.0547 0.043,-0.10157 0.10156,-0.10157 m 0,0 h -6 m 0,0 c 0.0547,0 0.10156,0.043 0.10156,0.10157 m 0,0 v -3 c 0,-0.0547 -0.043,-0.10157 -0.10156,-0.10157 m 0,0 h -6 c -0.0547,0 -0.10156,0.043 -0.10156,0.10157 m 0,0 v 3 c 0,-0.0547 0.043,-0.10157 0.10156,-0.10157 m 0,0 h -6 m 0,0 c 0.0547,0 0.10156,0.043 0.10156,0.10157 m 0,0 v -3 c 0,-0.0547 -0.043,-0.10157 -0.10156,-0.10157 m 0,0 h -6 c -0.0547,0 -0.10156,0.043 -0.10156,0.10157 m 0,0 v 3 c 0,-0.0547 0.043,-0.10157 0.10156,-0.10157 m 0,0 h -6 m 0,0 c 0.0547,0 0.10156,0.043 0.10156,0.10157 m 0,0 v -3 c 0,-0.0547 -0.043,-0.10157 -0.10156,-0.10157 m 0,0 h -6 c -0.0547,0 -0.10156,0.043 -0.10156,0.10157 m 0,0 v 3 c 0,-0.0547 0.043,-0.10157 0.10156,-0.10157 m 0,0 h -9.5 m 0,0 c -0.0547,0 -0.10156,0.043 -0.10156,0.10157 m 0,0 v 0 m 0,0 v 9.5 m 0,0 c 0,-0.0547 0.043,-0.10157 0.10156,-0.10157 m 0,0 h -3 c -0.0547,0 -0.10156,0.043 -0.10156,0.10157 m 0,0 v 6 c 0,0.0547 0.043,0.10156 0.10156,0.10156 m 0,0 h 3 c -0.0547,0 -0.10156,-0.043 -0.10156,-0.10156 m 0,0 v 9.5 m 0,0 v 3 c 0,0.0547 0.043,0.10156 0.10156,0.10156 m 0,0 v 0"
       id="path848" />
    <path
       inkscape:connector-curvature="0"
       style="fill:none;stroke:#000000;stroke-width:0.2;stroke-linecap:butt;stroke-linejoin:miter;stroke-miterlimit:10;stroke-opacity:1"
       d="m 178.04707,248.5567 h 9.5 m 0,0 c 0.0547,0 0.10156,-0.043 0.10156,-0.10156 m 0,0 v -3 c 0,0.0547 -0.043,0.10156 -0.10156,0.10156 m 0,0 h 6 c -0.0547,0 -0.10156,-0.043 -0.10156,-0.10156 m 0,0 v 3 c 0,0.0547 0.043,0.10156 0.10156,0.10156 m 0,0 h 6 m 0,0 c 0.0547,0 0.10156,-0.043 0.10156,-0.10156 m 0,0 v -3 c 0,0.0547 -0.043,0.10156 -0.10156,0.10156 m 0,0 h 6 c -0.0547,0 -0.10156,-0.043 -0.10156,-0.10156 m 0,0 v 3 c 0,0.0547 0.043,0.10156 0.10156,0.10156 m 0,0 h 6 m 0,0 c 0.0547,0 0.10156,-0.043 0.10156,-0.10156 m 0,0 v -3 c 0,0.0547 -0.043,0.10156 -0.10156,0.10156 m 0,0 h 6 c -0.0547,0 -0.10156,-0.043 -0.10156,-0.10156 m 0,0 v 3 c 0,0.0547 0.043,0.10156 0.10156,0.10156 m 0,0 h 6 m 0,0 c 0.0547,0 0.10156,-0.043 0.10156,-0.10156 m 0,0 v -3 c 0,0.0547 -0.043,0.10156 -0.10156,0.10156 m 0,0 h 6 c -0.0547,0 -0.10156,-0.043 -0.10156,-0.10156 m 0,0 v 3 c 0,0.0547 0.043,0.10156 0.10156,0.10156 m 0,0 h 6 m 0,0 c 0.0547,0 0.10156,-0.043 0.10156,-0.10156 m 0,0 v -3 c 0,0.0547 -0.043,0.10156 -0.10156,0.10156 m 0,0 h 6 c -0.0547,0 -0.10156,-0.043 -0.10156,-0.10156 m 0,0 v 3 c 0,0.0547 0.043,0.10156 0.10156,0.10156 m 0,0 h 6 m 0,0 c 0.0547,0 0.10156,-0.043 0.10156,-0.10156 m 0,0 v -3 c 0,0.0547 -0.043,0.10156 -0.10156,0.10156 m 0,0 h 6 c -0.0547,0 -0.10156,-0.043 -0.10156,-0.10156 m 0,0 v 3 c 0,0.0547 0.043,0.10156 0.10156,0.10156 m 0,0 h 9.5 m 0,0 c 0.0547,0 0.10156,-0.043 0.10156,-0.10156 m 0,0 v -3 m 0,0 v -9.5 m 0,0 c 0,0.0547 -0.043,0.10156 -0.10156,0.10156 m 0,0 h 3 c 0.0547,0 0.10156,-0.043 0.10156,-0.10156 m 0,0 v -6 c 0,-0.0547 -0.043,-0.10157 -0.10156,-0.10157 m 0,0 h -3 c 0.0547,0 0.10156,0.043 0.10156,0.10157 m 0,0 v -9.5 m 0,0 c 0,-0.0547 -0.043,-0.10157 -0.10156,-0.10157 m 0,0 v 0 m 0,0 h -9.5 m 0,0 c 0.0547,0 0.10156,0.043 0.10156,0.10157 m 0,0 v -3 c 0,-0.0547 -0.043,-0.10157 -0.10156,-0.10157 m 0,0 h -6 c -0.0547,0 -0.10156,0.043 -0.10156,0.10157 m 0,0 v 3 c 0,-0.0547 0.043,-0.10157 0.10156,-0.10157 m 0,0 h -6 m 0,0 c 0.0547,0 0.10156,0.043 0.10156,0.10157 m 0,0 v -3 c 0,-0.0547 -0.043,-0.10157 -0.10156,-0.10157 m 0,0 h -6 c -0.0547,0 -0.10156,0.043 -0.10156,0.10157 m 0,0 v 3 c 0,-0.0547 0.043,-0.10157 0.10156,-0.10157 m 0,0 h -6 m 0,0 c 0.0547,0 0.10156,0.043 0.10156,0.10157 m 0,0 v -3 c 0,-0.0547 -0.043,-0.10157 -0.10156,-0.10157 m 0,0 h -6 c -0.0547,0 -0.10156,0.043 -0.10156,0.10157 m 0,0 v 3 c 0,-0.0547 0.043,-0.10157 0.10156,-0.10157 m 0,0 h -6 m 0,0 c 0.0547,0 0.10156,0.043 0.10156,0.10157 m 0,0 v -3 c 0,-0.0547 -0.043,-0.10157 -0.10156,-0.10157 m 0,0 h -6 c -0.0547,0 -0.10156,0.043 -0.10156,0.10157 m 0,0 v 3 c 0,-0.0547 0.043,-0.10157 0.10156,-0.10157 m 0,0 h -6 m 0,0 c 0.0547,0 0.10156,0.043 0.10156,0.10157 m 0,0 v -3 c 0,-0.0547 -0.043,-0.10157 -0.10156,-0.10157 m 0,0 h -6 c -0.0547,0 -0.10156,0.043 -0.10156,0.10157 m 0,0 v 3 c 0,-0.0547 0.043,-0.10157 0.10156,-0.10157 m 0,0 h -6 m 0,0 c 0.0547,0 0.10156,0.043 0.10156,0.10157 m 0,0 v -3 c 0,-0.0547 -0.043,-0.10157 -0.10156,-0.10157 m 0,0 h -6 c -0.0547,0 -0.10156,0.043 -0.10156,0.10157 m 0,0 v 3 c 0,-0.0547 0.043,-0.10157 0.10156,-0.10157 m 0,0 h -9.5 m 0,0 c -0.0547,0 -0.10156,0.043 -0.10156,0.10157 m 0,0 v 0 m 0,0 v 9.5 m 0,0 c 0,-0.0547 0.043,-0.10157 0.10156,-0.10157 m 0,0 h -3 c -0.0547,0 -0.10156,0.043 -0.10156,0.10157 m 0,0 v 6 c 0,0.0547 0.043,0.10156 0.10156,0.10156 m 0,0 h 3 c -0.0547,0 -0.10156,-0.043 -0.10156,-0.10156 m 0,0 v 9.5 m 0,0 v 3 c 0,0.0547 0.043,0.10156 0.10156,0.10156 m 0,0 v 0"
       id="path850" />
    <circle
       style="fill:none;fill-opacity:1;stroke:#0000ff;stroke-width:0.2;stroke-miterlimit:4;stroke-dasharray:none;stroke-dashoffset:0;stroke-opacity:1"
       id="path891"
       cx="132.97011"
       cy="232.95848"
       r="4.25" />
    <rect
       style="fill:none;fill-opacity:1;stroke:#0000ff;stroke-width:0.2;stroke-miterlimit:4;stroke-dasharray:none;stroke-dashoffset:0;stroke-opacity:1"
       id="rect901"
       width="10.000001"
       height="12"
       x="72.864677"
       y="258.07544" />
    <g
       transform="translate(35.427182,16.522908)"
       id="slot">
      <path
         d="m 82.260956,190.82449 3.123982,-5.85747 2.735294,1.45883 -3.123982,5.85746 z"
         id="slot-inner-close-tab"
         style="fill:none;stroke:#0000ff;stroke-width:0.2;stroke-miterlimit:4;stroke-dasharray:none;stroke-opacity:1"
         inkscape:connector-curvature="0" />
    </g>
    <g
       transform="translate(35.427182,16.522908)"
       id="sloth">
      <path
         d="m 119.18403,121.59372 3.12398,-5.85747 2.7353,1.45883 -3.12399,5.85746 z"
         id="sloth-inner-close-tab"
         style="fill:none;stroke:#0000ff;stroke-width:0.2;stroke-miterlimit:4;stroke-dasharray:none;stroke-opacity:1"
         inkscape:connector-curvature="0" />
    </g>
    <path
       inkscape:connector-curvature="0"
       d="m 97.823418,207.3474 -3.123982,-5.85747 -2.735294,1.45883 3.123982,5.85746 z"
       id="slotN-inner-close-tab"
       style="fill:none;stroke:#0000ff;stroke-width:0.2;stroke-miterlimit:4;stroke-dasharray:none;stroke-opacity:1" />
    <rect
       y="145.85144"
       x="235.81709"
       height="10.2"
       width="20.200001"
       id="rect1884"
       style="fill:none;fill-opacity:1;stroke:#000018;stroke-width:0.2;stroke-miterlimit:4;stroke-dasharray:none;stroke-dashoffset:0;stroke-opacity:1" />
    <rect
       y="158.21375"
       x="235.99808"
       height="10.2"
       width="20.200001"
       id="rect1884-4"
       style="fill:none;fill-opacity:1;stroke:#000018;stroke-width:0.2;stroke-miterlimit:4;stroke-dasharray:none;stroke-dashoffset:0;stroke-opacity:1" />
    <g
       transform="translate(35.427182,16.522908)"
       id="slotZ">
      <path
         style="fill:none;stroke:#0000ff;stroke-width:0.2;stroke-miterlimit:4;stroke-dasharray:none;stroke-opacity:1"
         id="slotZ-inner-close-tab"
         d="m 25.473162,121.59372 -3.123982,-5.85747 -2.735294,1.45883 3.123982,5.85746 z"
         inkscape:connector-curvature="0" />
    </g>
    <g
       transform="translate(-65.129812,-79.559351)"
       id="g2182">
      <rect
         y="213.49437"
         x="285.11252"
         height="65"
         width="1"
         id="rect5668"
         style="fill:none;fill-opacity:1;stroke:#0000ff;stroke-width:0.2;stroke-miterlimit:4;stroke-dasharray:none;stroke-dashoffset:0;stroke-opacity:1" />
      <path
         sodipodi:nodetypes="cccccccccccccccccccccccccccccccccccccccccccccccccccccccc"
         inkscape:connector-curvature="0"
         d="m 289.11254,203.46914 v 6.54039 h -3 v 6.5404 h 3 v 6.54039 h -3 v 6.54039 h 3 v 6.5404 h -3 v 6.54039 h 3 v 6.54039 h -3 v 6.54039 h 3 v 6.5404 h -3 v 6.54039 h 3 v 6.54039 h -3 v 6.5404 h 3 v 6.54039 h -3 -10.00001 -3 v -6.54039 h 3 v -6.5404 h -3 v -6.54039 h 3 v -6.54039 h -3 v -6.5404 h 3 v -6.54039 h -3 v -6.54039 h 3 v -6.54039 h -3 v -6.5404 h 3 v -6.54039 h -3 v -6.54039 h 3 v -6.5404 h -3 v -6.54039 h 8 z"
         style="fill:none;fill-opacity:1;stroke:#00000b;stroke-width:0.2;stroke-miterlimit:4;stroke-dasharray:none;stroke-dashoffset:0;stroke-opacity:1"
         id="rect946" />
    </g>
    <g
       id="g2209"
       transform="translate(-88.129779,-79.559351)">
      <rect
         style="fill:none;fill-opacity:1;stroke:#0000ff;stroke-width:0.2;stroke-miterlimit:4;stroke-dasharray:none;stroke-dashoffset:0;stroke-opacity:1"
         id="rect2205"
         width="1"
         height="65"
         x="285.11252"
         y="213.49437" />
      <path
         id="path2207"
         style="fill:none;fill-opacity:1;stroke:#00000b;stroke-width:0.2;stroke-miterlimit:4;stroke-dasharray:none;stroke-dashoffset:0;stroke-opacity:1"
         d="m 289.11254,203.46914 v 6.54039 h -3 v 6.5404 h 3 v 6.54039 h -3 v 6.54039 h 3 v 6.5404 h -3 v 6.54039 h 3 v 6.54039 h -3 v 6.54039 h 3 v 6.5404 h -3 v 6.54039 h 3 v 6.54039 h -3 v 6.5404 h 3 v 6.54039 h -3 -10.00001 -3 v -6.54039 h 3 v -6.5404 h -3 v -6.54039 h 3 v -6.54039 h -3 v -6.5404 h 3 v -6.54039 h -3 v -6.54039 h 3 v -6.54039 h -3 v -6.5404 h 3 v -6.54039 h -3 v -6.54039 h 3 v -6.5404 h -3 v -6.54039 h 8 z"
         inkscape:connector-curvature="0"
         sodipodi:nodetypes="cccccccccccccccccccccccccccccccccccccccccccccccccccccccc" />
    </g>
    <path
       id="path2227"
       style="fill:none;stroke:#000000;stroke-width:0.26458332px;stroke-linecap:butt;stroke-linejoin:miter;stroke-opacity:1"
       d="m 231.03907,108.38992 8.5,1e-5 m -19.99998,0 8.5,-1e-5 m 26.50001,-74.999988 25,-5e-6 m -100.00002,0 25,5e-6 m 50.00002,0 -23.50003,50.181196 v 24.818792 m -26.49999,-74.999988 23.50001,50.181196 v 24.818792 m 11.49998,1e-5 3.07693,-5.76923 2.64706,1.41176 3.07692,-5.769232 -2.64706,-1.41176 3.07693,-5.76923 2.64706,1.41176 3.07692,-5.76923 -2.64706,-1.41176 3.07693,-5.76924 2.64706,1.41177 3.07693,-5.76923 -2.64707,-1.41177 3.07694,-5.76923 2.64706,1.41177 3.07692,-5.769232 -2.64706,-1.411766 3.07693,-5.769231 2.64705,1.411766 3.07693,-5.769231 -2.64706,-1.411766 3.07693,-5.76923 2.64705,1.411765 3.07693,-5.769231 -2.64706,-1.411765 3.07692,-5.76923 m -100.00002,0 3.07693,5.76923 -2.64706,1.411765 3.07692,5.769231 2.64706,-1.411765 3.07693,5.76923 -2.64706,1.411765 3.07692,5.769231 2.64706,-1.411765 3.07692,5.769231 -2.64705,1.411766 3.07692,5.769232 2.64706,-1.41177 3.07692,5.76923 -2.64706,1.41177 3.07693,5.76923 2.64706,-1.41177 3.07692,5.76924 -2.64706,1.41176 3.07692,5.76923 2.64706,-1.41176 3.07693,5.76923 -2.64706,1.41176 3.07692,5.769232 2.64706,-1.41176 3.07692,5.76923"
       inkscape:connector-curvature="0"
       sodipodi:nodetypes="cccccccccccccccccccccccccccccccccccccccccccccccccccccccccccccccccc" />
    <circle
       style="fill:none;fill-opacity:1;stroke:#0000ff;stroke-width:0.2;stroke-miterlimit:4;stroke-dasharray:none;stroke-dashoffset:0;stroke-opacity:1"
       id="path891-3"
       cx="220.3436"
       cy="232.9585"
       r="4.25" />
    <path
       inkscape:connector-curvature="0"
       id="path4592"
       d="m 18.06435,123.79125 h 6 m 0,0 c 0.05469,0 0.101562,-0.043 0.101562,-0.1016 m 0,0 v -3 c 0,0.055 -0.04297,0.1016 -0.101562,0.1016 m 0,0 h 6 c -0.05469,0 -0.101562,-0.043 -0.101562,-0.1016 m 0,0 v 3 c 0,0.055 0.04297,0.1016 0.101562,0.1016 m 0,0 h 6 m 0,0 c 0.05469,0 0.101562,-0.043 0.101562,-0.1016 m 0,0 v -3 c 0,0.055 -0.04297,0.1016 -0.101562,0.1016 m 0,0 h 6.000001 c -0.05469,0 -0.101563,-0.043 -0.101563,-0.1016 m 0,0 v 3 c 0,0.055 0.04297,0.1016 0.101563,0.1016 m 0,0 h 5.999998 m 0,0 c 0.05469,0 0.101563,-0.043 0.101563,-0.1016 m 0,0 v -3 c 0,0.055 -0.04297,0.1016 -0.101563,0.1016 m 0,0 h 6.000002 c -0.05469,0 -0.101563,-0.043 -0.101563,-0.1016 m 0,0 v 3 c 0,0.055 0.04297,0.1016 0.101563,0.1016 m 0,0 h 5.999998 m 0,0 c 0.05469,0 0.101563,-0.043 0.101563,-0.1016 m 0,0 v -3 c 0,0.055 -0.04297,0.1016 -0.101563,0.1016 m 0,0 h 6.000001 c -0.05469,0 -0.101563,-0.043 -0.101563,-0.1016 m 0,0 v 3 c 0,0.055 0.04297,0.1016 0.101563,0.1016 m 0,0 h 5.999999 m 0,0 c 0.05469,0 0.101563,-0.043 0.101563,-0.1016 m 0,0 v -3 c 0,0.055 -0.04297,0.1016 -0.101563,0.1016 m 0,0 h 6.000001 c -0.05469,0 -0.101563,-0.043 -0.101563,-0.1016 m 0,0 v 3 c 0,0.055 0.04297,0.1016 0.101563,0.1016 m 0,0 h 5.999999 m 0,0 c 0.05469,0 0.101563,-0.043 0.101563,-0.1016 m 0,0 v -3 c 0,0.055 -0.04297,0.1016 -0.101563,0.1016 m 0,0 h 6.000001 c -0.05469,0 -0.101563,-0.043 -0.101563,-0.1016 m 0,0 v 3 c 0,0.055 0.04297,0.1016 0.101563,0.1016 m 0,0 h 5.999999 m 0,0 c 0.05469,0 0.101563,-0.043 0.101563,-0.1016 m 0,0 v -3 c 0,0.055 -0.04297,0.1016 -0.101563,0.1016 m 0,0 h 6.000001 c -0.0547,0 -0.10156,-0.043 -0.10156,-0.1016 m 0,0 v 3 c 0,0.055 0.043,0.1016 0.10156,0.1016 m 0,0 h 6 m 0,0 c 0.0547,0 0.10157,-0.043 0.10157,-0.1016 m 0,0 v -3 c 0,0.055 -0.043,0.1016 -0.10157,0.1016 m 0,0 h 6 c -0.0547,0 -0.10156,-0.043 -0.10156,-0.1016 m 0,0 v 3 c 0,0.055 0.043,0.1016 0.10156,0.1016 m 0,0 h 6 m 0,0 c 0.0547,0 0.10156,-0.043 0.10156,-0.1016 m 0,0 v -3 c 0,0.055 -0.043,0.1016 -0.10156,0.1016 m 0,0 h 6 c -0.0547,0 -0.10156,-0.043 -0.10156,-0.1016 m 0,0 v 3 c 0,0.055 0.043,0.1016 0.10156,0.1016 m 0,0 h 6 m 0,0 c 0.0547,0 0.10156,-0.043 0.10156,-0.1016 m 0,0 v -3 c 0,0.055 -0.043,0.1016 -0.10156,0.1016 m 0,0 h 6 c -0.0547,0 -0.10156,-0.043 -0.10156,-0.1016 m 0,0 v 3 c 0,0.055 0.043,0.1016 0.10156,0.1016 m 0,0 h 6 m 0,0 c 0.0547,0 0.10156,-0.043 0.10156,-0.1016 m 0,0 v -3 c 0,0.055 -0.043,0.1016 -0.10156,0.1016 m 0,0 h 6 c -0.0547,0 -0.10156,-0.043 -0.10156,-0.1016 m 0,0 v 3 c 0,0.055 0.043,0.1016 0.10156,0.1016 m 0,0 h 6 m 0,0 c 0.0547,0 0.10156,-0.043 0.10156,-0.1016 m 0,0 v -3 c 0,0.055 -0.043,0.1016 -0.10156,0.1016 m 0,0 h 6 c -0.0547,0 -0.10156,-0.043 -0.10156,-0.1016 m 0,0 v 3 c 0,0.055 0.043,0.1016 0.10156,0.1016 m 0,0 h 6 m 0,0 h 3 c 0.0547,0 0.10156,-0.043 0.10156,-0.1016 m 0,0 v -3 m 0,0 v -9.5 m 0,0 c 0,-0.055 -0.043,-0.1015 -0.10156,-0.1015 m 0,0 h -3 c 0.0547,0 0.10156,0.043 0.10156,0.1015 m 0,0 v -6 c 0,0.055 -0.043,0.1016 -0.10156,0.1016 m 0,0 h 3 c 0.0547,0 0.10156,-0.043 0.10156,-0.1016 m 0,0 v -6 m 0,0 c 0,-0.055 -0.043,-0.1015 -0.10156,-0.1015 m 0,0 h -3 c 0.0547,0 0.10156,0.043 0.10156,0.1015 m 0,0 v -6 c 0,0.055 -0.043,0.1016 -0.10156,0.1016 m 0,0 h 3 c 0.0547,0 0.10156,-0.043 0.10156,-0.1016 m 0,0 v -6 m 0,0 c 0,-0.055 -0.043,-0.1015 -0.10156,-0.1015 m 0,0 h -3 c 0.0547,0 0.10156,0.043 0.10156,0.1015 m 0,0 v -6 c 0,0.055 -0.043,0.1016 -0.10156,0.1016 m 0,0 h 3 c 0.0547,0 0.10156,-0.043 0.10156,-0.1016 m 0,0 v -6 m 0,0 c 0,-0.055 -0.043,-0.1015 -0.10156,-0.1015 m 0,0 h -3 c 0.0547,0 0.10156,0.043 0.10156,0.1015 m 0,0 v -6.000003 c 0,0.055 -0.043,0.1016 -0.10156,0.1016 m 0,0 h 3 c 0.0547,0 0.10156,-0.043 0.10156,-0.1016 m 0,0 v -6.000001 m 0,0 c 0,-0.055 -0.043,-0.1015 -0.10156,-0.1015 m 0,0 h -3 c 0.0547,0 0.10156,0.043 0.10156,0.1015 m 0,0 v -5.999999 c 0,0.055 -0.043,0.1016 -0.10156,0.1016 m 0,0 h 3 c 0.0547,0 0.10156,-0.043 0.10156,-0.1016 m 0,0 v -6 m 0,0 c 0,-0.055 -0.043,-0.1015 -0.10156,-0.1015 m 0,0 h -3 c 0.0547,0 0.10156,0.043 0.10156,0.1015 m 0,0 v -6 c 0,0.055 -0.043,0.1016 -0.10156,0.1016 m 0,0 h 3 c 0.0547,0 0.10156,-0.043 0.10156,-0.1016 m 0,0 v -9.5 m 0,0 v -3 c 0,-0.055 -0.043,-0.1015 -0.10156,-0.1015 m 0,0 h -3 m 0,0 h -6 m 0,0 c -0.0547,0 -0.10156,0.043 -0.10156,0.1015 m 0,0 v 3 c 0,-0.055 0.043,-0.1015 0.10156,-0.1015 m 0,0 h -6 c 0.0547,0 0.10156,0.043 0.10156,0.1015 m 0,0 v -3 c 0,-0.055 -0.043,-0.1015 -0.10156,-0.1015 m 0,0 h -6 m 0,0 c -0.0547,0 -0.10156,0.043 -0.10156,0.1015 m 0,0 v 3 c 0,-0.055 0.043,-0.1015 0.10156,-0.1015 m 0,0 h -6 c 0.0547,0 0.10156,0.043 0.10156,0.1015 m 0,0 v -3 c 0,-0.055 -0.043,-0.1015 -0.10156,-0.1015 m 0,0 h -6 m 0,0 c -0.0547,0 -0.10156,0.043 -0.10156,0.1015 m 0,0 v 3 c 0,-0.055 0.043,-0.1015 0.10156,-0.1015 m 0,0 h -6 c 0.0547,0 0.10156,0.043 0.10156,0.1015 m 0,0 v -3 c 0,-0.055 -0.043,-0.1015 -0.10156,-0.1015 m 0,0 h -6 m 0,0 c -0.0547,0 -0.10156,0.043 -0.10156,0.1015 m 0,0 v 3 c 0,-0.055 0.043,-0.1015 0.10156,-0.1015 m 0,0 h -6 c 0.0547,0 0.10156,0.043 0.10156,0.1015 m 0,0 v -3 c 0,-0.055 -0.043,-0.1015 -0.10156,-0.1015 m 0,0 h -6 m 0,0 c -0.0547,0 -0.10156,0.043 -0.10156,0.1015 m 0,0 v 3 c 0,-0.055 0.043,-0.1015 0.10156,-0.1015 m 0,0 h -6 c 0.0547,0 0.10157,0.043 0.10157,0.1015 m 0,0 v -3 c 0,-0.055 -0.043,-0.1015 -0.10157,-0.1015 m 0,0 h -6 m 0,0 c -0.0547,0 -0.10156,0.043 -0.10156,0.1015 m 0,0 v 3 c 0,-0.055 0.043,-0.1015 0.10156,-0.1015 m 0,0 h -6.000001 c 0.05469,0 0.101563,0.043 0.101563,0.1015 m 0,0 v -3 c 0,-0.055 -0.04297,-0.1015 -0.101563,-0.1015 m 0,0 H 90.06435 m 0,0 c -0.05469,0 -0.101563,0.043 -0.101563,0.1015 m 0,0 v 3 c 0,-0.055 0.04297,-0.1015 0.101563,-0.1015 m 0,0 h -6.000001 c 0.05469,0 0.101563,0.043 0.101563,0.1015 m 0,0 v -3 c 0,-0.055 -0.04297,-0.1015 -0.101563,-0.1015 m 0,0 H 78.06435 m 0,0 c -0.05469,0 -0.101563,0.043 -0.101563,0.1015 m 0,0 v 3 c 0,-0.055 0.04297,-0.1015 0.101563,-0.1015 m 0,0 h -6.000001 c 0.05469,0 0.101563,0.043 0.101563,0.1015 m 0,0 v -3 c 0,-0.055 -0.04297,-0.1015 -0.101563,-0.1015 m 0,0 H 66.06435 m 0,0 c -0.05469,0 -0.101563,0.043 -0.101563,0.1015 m 0,0 v 3 c 0,-0.055 0.04297,-0.1015 0.101563,-0.1015 m 0,0 h -6.000001 c 0.05469,0 0.101563,0.043 0.101563,0.1015 m 0,0 v -3 c 0,-0.055 -0.04297,-0.1015 -0.101563,-0.1015 m 0,0 h -5.999998 m 0,0 c -0.05469,0 -0.101563,0.043 -0.101563,0.1015 m 0,0 v 3 c 0,-0.055 0.04297,-0.1015 0.101563,-0.1015 m 0,0 h -6.000002 c 0.05469,0 0.101563,0.043 0.101563,0.1015 m 0,0 v -3 c 0,-0.055 -0.04297,-0.1015 -0.101563,-0.1015 m 0,0 h -5.999998 m 0,0 c -0.05469,0 -0.101563,0.043 -0.101563,0.1015 m 0,0 v 3 c 0,-0.055 0.04297,-0.1015 0.101563,-0.1015 m 0,0 H 36.06435 c 0.05469,0 0.101562,0.043 0.101562,0.1015 m 0,0 v -3 c 0,-0.055 -0.04297,-0.1015 -0.101562,-0.1015 m 0,0 h -6 m 0,0 c -0.05469,0 -0.101563,0.043 -0.101563,0.1015 m 0,0 v 3 c 0,-0.055 0.04297,-0.1015 0.101563,-0.1015 m 0,0 h -6 c 0.05469,0 0.101562,0.043 0.101562,0.1015 m 0,0 v -3 c 0,-0.055 -0.04297,-0.1015 -0.101562,-0.1015 m 0,0 h -6 m 0,0 h -3 c -0.05469,0 -0.101563,0.043 -0.101563,0.1015 m 0,0 v 3 m 0,0 v 9.5 m 0,0 c 0,0.055 0.04297,0.1016 0.101563,0.1016 m 0,0 h 3 c -0.05469,0 -0.101563,-0.043 -0.101563,-0.1016 m 0,0 v 6 c 0,-0.055 0.04297,-0.1015 0.101563,-0.1015 m 0,0 h -3 c -0.05469,0 -0.101563,0.043 -0.101563,0.1015 m 0,0 v 6 m 0,0 c 0,0.055 0.04297,0.1016 0.101563,0.1016 m 0,0 h 3 c -0.05469,0 -0.101563,-0.043 -0.101563,-0.1016 m 0,0 v 5.999999 c 0,-0.055 0.04297,-0.1015 0.101563,-0.1015 m 0,0 h -3 c -0.05469,0 -0.101563,0.043 -0.101563,0.1015 m 0,0 v 6.000001 m 0,0 c 0,0.055 0.04297,0.1016 0.101563,0.1016 m 0,0 h 3 c -0.05469,0 -0.101563,-0.043 -0.101563,-0.1016 m 0,0 v 6.000003 c 0,-0.055 0.04297,-0.1015 0.101563,-0.1015 m 0,0 h -3 c -0.05469,0 -0.101563,0.043 -0.101563,0.1015 m 0,0 v 6 m 0,0 c 0,0.055 0.04297,0.1016 0.101563,0.1016 m 0,0 h 3 c -0.05469,0 -0.101563,-0.043 -0.101563,-0.1016 m 0,0 v 6 c 0,-0.055 0.04297,-0.1015 0.101563,-0.1015 m 0,0 h -3 c -0.05469,0 -0.101563,0.043 -0.101563,0.1015 m 0,0 v 6 m 0,0 c 0,0.055 0.04297,0.1016 0.101563,0.1016 m 0,0 h 3 c -0.05469,0 -0.101563,-0.043 -0.101563,-0.1016 m 0,0 v 6 c 0,-0.055 0.04297,-0.1015 0.101563,-0.1015 m 0,0 h -3 c -0.05469,0 -0.101563,0.043 -0.101563,0.1015 m 0,0 v 6 m 0,0 c 0,0.055 0.04297,0.1016 0.101563,0.1016 m 0,0 h 3 c -0.05469,0 -0.101563,-0.043 -0.101563,-0.1016 m 0,0 v 6 c 0,-0.055 0.04297,-0.1015 0.101563,-0.1015 m 0,0 h -3 c -0.05469,0 -0.101563,0.043 -0.101563,0.1015 m 0,0 v 9.5 m 0,0 10e-7,3 c 0,0.055 0.04297,0.1016 0.101562,0.1016 m 0,0 h 3"
       style="fill:none;stroke:#000000;stroke-width:0.2;stroke-linecap:butt;stroke-linejoin:miter;stroke-miterlimit:10;stroke-opacity:1" />
    <path
       inkscape:connector-curvature="0"
       id="path4588"
       d="m 17.864675,212.8575 h 6 m 0,0 c -0.05469,0 -0.101562,-0.043 -0.101562,-0.1016 m 0,0 v 3 c 0,0.055 0.04297,0.1016 0.101562,0.1016 m 0,0 h 6 c 0.05469,0 0.101563,-0.043 0.101563,-0.1016 m 0,0 -1e-6,-3 c 0,0.055 -0.04297,0.1016 -0.101562,0.1016 m 0,0 h 6 m 0,0 c -0.05469,0 -0.101562,-0.043 -0.101562,-0.1016 m 0,0 v 3 c 0,0.055 0.04297,0.1016 0.101562,0.1016 m 0,0 h 6.000001 c 0.05469,0 0.10156,-0.043 0.10156,-0.1016 m 0,0 v -3 c 0,0.055 -0.04297,0.1016 -0.10156,0.1016 m 0,0 h 5.999998 m 0,0 c -0.05469,0 -0.101563,-0.043 -0.101563,-0.1016 m 0,0 v 3 c 0,0.055 0.04297,0.1016 0.101563,0.1016 m 0,0 h 6.000002 c 0.05469,0 0.10156,-0.043 0.10156,-0.1016 m 0,0 v -3 c 0,0.055 -0.04297,0.1016 -0.10156,0.1016 m 0,0 h 5.999998 m 0,0 c -0.05469,0 -0.101563,-0.043 -0.101563,-0.1016 m 0,0 v 3 c 0,0.055 0.04297,0.1016 0.101563,0.1016 m 0,0 h 6.000001 c 0.05469,0 0.101561,-0.043 0.101561,-0.1016 m 0,0 v -3 c 0,0.055 -0.04297,0.1016 -0.101561,0.1016 m 0,0 h 5.999999 m 0,0 c -0.05469,0 -0.101563,-0.043 -0.101563,-0.1016 m 0,0 v 3 c 0,0.055 0.04297,0.1016 0.101563,0.1016 m 0,0 h 6.000001 c 0.05469,0 0.101561,-0.043 0.101561,-0.1016 m 0,0 v -3 c 0,0.055 -0.04297,0.1016 -0.101561,0.1016 m 0,0 h 5.999997 m 0,0 c -0.0547,0 -0.10156,-0.043 -0.10156,-0.1016 m 0,0 v 3 c 0,0.055 0.043,0.1016 0.10156,0.1016 m 0,0 h 6 c 0.0547,0 0.10156,-0.043 0.10156,-0.1016 m 0,0 v -3 c 0,0.055 -0.043,0.1016 -0.10156,0.1016 m 0,0 h 6 m 0,0 c -0.0547,0 -0.10157,-0.043 -0.10157,-0.1016 m 0,0 v 3 c 0,0.055 0.043,0.1016 0.10157,0.1016 m 0,0 h 5.999988 c 0.0547,0 0.10156,-0.043 0.10156,-0.1016 m 0,0 v -3 c 0,0.055 -0.043,0.1016 -0.10156,0.1016 m 0,0 h 6 m 0,0 c -0.0547,0 -0.10156,-0.043 -0.10156,-0.1016 m 0,0 v 3 c 0,0.055 0.043,0.1016 0.10156,0.1016 m 0,0 h 6 c 0.0547,0 0.10156,-0.043 0.10156,-0.1016 m 0,0 v -3 c 0,0.055 -0.043,0.1016 -0.10156,0.1016 m 0,0 h 6 m 0,0 c -0.0547,0 -0.10156,-0.043 -0.10156,-0.1016 m 0,0 v 3 c 0,0.055 0.043,0.1016 0.10156,0.1016 m 0,0 h 6 c 0.0547,0 0.10156,-0.043 0.10156,-0.1016 m 0,0 v -3 c 0,0.055 -0.043,0.1016 -0.10156,0.1016 m 0,0 h 6 m 0,0 c -0.0547,0 -0.10156,-0.043 -0.10156,-0.1016 m 0,0 v 3 c 0,0.055 0.043,0.1016 0.10156,0.1016 m 0,0 h 6 c 0.0547,0 0.10156,-0.043 0.10156,-0.1016 m 0,0 v -3 c 0,0.055 -0.043,0.1016 -0.10156,0.1016 m 0,0 h 6 m 0,0 c -0.0547,0 -0.10156,-0.043 -0.10156,-0.1016 m 0,0 v 3 c 0,0.055 0.043,0.1016 0.10156,0.1016 m 0,0 h 6 c 0.0547,0 0.10156,-0.043 0.10156,-0.1016 m 0,0 v -3 c 0,0.055 -0.043,0.1016 -0.10156,0.1016 m 0,0 h 6 m 0,0 c -0.0547,0 -0.10156,-0.043 -0.10156,-0.1016 m 0,0 v 3 c 0,0.055 0.043,0.1016 0.10156,0.1016 m 0,0 h 6 c 0.0547,0 0.10156,-0.043 0.10156,-0.1016 m 0,0 v -3 c 0,0.055 -0.043,0.1016 -0.10156,0.1016 m 0,0 h 6 m 0,0 c 0.0547,0 0.10156,-0.043 0.10156,-0.1016 m 0,0 v 0 m 0,0 v -9.5 m 0,0 c 0,0.055 -0.043,0.1016 -0.10156,0.1016 m 0,0 h 3 c 0.0547,0 0.10156,-0.043 0.10156,-0.1016 m 0,0 v -6 c 0,-0.055 -0.043,-0.1015 -0.10156,-0.1015 m 0,0 h -3 c 0.0547,0 0.10156,0.043 0.10156,0.1015 m 0,0 v -6 m 0,0 c 0,0.055 -0.043,0.1016 -0.10156,0.1016 m 0,0 h 3 c 0.0547,0 0.10156,-0.043 0.10156,-0.1016 m 0,0 v -6 c 0,-0.055 -0.043,-0.1015 -0.10156,-0.1015 m 0,0 h -3 c 0.0547,0 0.10156,0.043 0.10156,0.1015 m 0,0 v -6 m 0,0 c 0,0.055 -0.043,0.1016 -0.10156,0.1016 m 0,0 h 3 c 0.0547,0 0.10156,-0.043 0.10156,-0.1016 m 0,0 v -6 c 0,-0.055 -0.043,-0.1015 -0.10156,-0.1015 m 0,0 h -3 c 0.0547,0 0.10156,0.043 0.10156,0.1015 m 0,0 v -6 m 0,0 c 0,0.055 -0.043,0.1016 -0.10156,0.1016 m 0,0 h 3 c 0.0547,0 0.10156,-0.043 0.10156,-0.1016 m 0,0 v -6 c 0,-0.055 -0.043,-0.1015 -0.10156,-0.1015 m 0,0 h -3 c 0.0547,0 0.10156,0.043 0.10156,0.1015 m 0,0 v -6 m 0,0 c 0,0.055 -0.043,0.1016 -0.10156,0.1016 m 0,0 h 3 c 0.0547,0 0.10156,-0.043 0.10156,-0.1016 m 0,0 v -6 c 0,-0.055 -0.043,-0.1015 -0.10156,-0.1015 m 0,0 h -3 c 0.0547,0 0.10156,0.043 0.10156,0.1015 m 0,0 v -6 m 0,0 c 0,0.055 -0.043,0.1016 -0.10156,0.1016 m 0,0 h 3 c 0.0547,0 0.10156,-0.043 0.10156,-0.1016 m 0,0 v -6 c 0,-0.055 -0.043,-0.1015 -0.10156,-0.1015 m 0,0 h -3 c 0.0547,0 0.10156,0.043 0.10156,0.1015 m 0,0 v -9.5 m 0,0 c 0,-0.055 -0.043,-0.1015 -0.10156,-0.1015 m 0,0 v 0 m 0,0 h -6 m 0,0 c 0.0547,0 0.10156,0.043 0.10156,0.1015 m 0,0 v -3 c 0,-0.055 -0.043,-0.1015 -0.10156,-0.1015 m 0,0 h -6 c -0.0547,0 -0.10156,0.043 -0.10156,0.1015 m 0,0 v 3 c 0,-0.055 0.043,-0.1015 0.10156,-0.1015 m 0,0 h -6 m 0,0 c 0.0547,0 0.10156,0.043 0.10156,0.1015 m 0,0 v -3 c 0,-0.055 -0.043,-0.1015 -0.10156,-0.1015 m 0,0 h -6 c -0.0547,0 -0.10156,0.043 -0.10156,0.1015 m 0,0 v 3 c 0,-0.055 0.043,-0.1015 0.10156,-0.1015 m 0,0 h -6 m 0,0 c 0.0547,0 0.10156,0.043 0.10156,0.1015 m 0,0 v -3 c 0,-0.055 -0.043,-0.1015 -0.10156,-0.1015 m 0,0 h -6 c -0.0547,0 -0.10156,0.043 -0.10156,0.1015 m 0,0 v 3 c 0,-0.055 0.043,-0.1015 0.10156,-0.1015 m 0,0 h -6 m 0,0 c 0.0547,0 0.10156,0.043 0.10156,0.1015 m 0,0 v -3 c 0,-0.055 -0.043,-0.1015 -0.10156,-0.1015 m 0,0 h -6 c -0.0547,0 -0.10156,0.043 -0.10156,0.1015 m 0,0 v 3 c 0,-0.055 0.043,-0.1015 0.10156,-0.1015 m 0,0 h -6 m 0,0 c 0.0547,0 0.10156,0.043 0.10156,0.1015 m 0,0 v -3 c 0,-0.055 -0.043,-0.1015 -0.10156,-0.1015 m 0,0 h -6 c -0.0547,0 -0.10156,0.043 -0.10156,0.1015 m 0,0 v 3 c 0,-0.055 0.043,-0.1015 0.10156,-0.1015 m 0,0 h -6 m 0,0 c 0.0547,0 0.10156,0.043 0.10156,0.1015 m 0,0 v -3 c 0,-0.055 -0.043,-0.1015 -0.10156,-0.1015 m 0,0 h -5.999988 c -0.0547,0 -0.10157,0.043 -0.10157,0.1015 m 0,0 v 3 c 0,-0.055 0.043,-0.1015 0.10157,-0.1015 m 0,0 h -6 m 0,0 c 0.0547,0 0.10156,0.043 0.10156,0.1015 m 0,0 v -3 c 0,-0.055 -0.043,-0.1015 -0.10156,-0.1015 m 0,0 h -6 c -0.0547,0 -0.10156,0.043 -0.10156,0.1015 m 0,0 v 3 c 0,-0.055 0.043,-0.1015 0.10156,-0.1015 m 0,0 h -5.999997 m 0,0 c 0.05469,0 0.101561,0.043 0.101561,0.1015 m 0,0 v -3 c 0,-0.055 -0.04297,-0.1015 -0.101561,-0.1015 m 0,0 h -6.000001 c -0.05469,0 -0.101563,0.043 -0.101563,0.1015 m 0,0 v 3 c 0,-0.055 0.04297,-0.1015 0.101563,-0.1015 m 0,0 h -5.999999 m 0,0 c 0.05469,0 0.101561,0.043 0.101561,0.1015 m 0,0 v -3 c 0,-0.055 -0.04297,-0.1015 -0.101561,-0.1015 m 0,0 h -6.000001 c -0.05469,0 -0.101563,0.043 -0.101563,0.1015 m 0,0 v 3 c 0,-0.055 0.04297,-0.1015 0.101563,-0.1015 m 0,0 h -5.999998 m 0,0 c 0.05469,0 0.10156,0.043 0.10156,0.1015 m 0,0 v -3 c 0,-0.055 -0.04297,-0.1015 -0.10156,-0.1015 m 0,0 h -6.000002 c -0.05469,0 -0.101563,0.043 -0.101563,0.1015 m 0,0 v 3 c 0,-0.055 0.04297,-0.1015 0.101563,-0.1015 m 0,0 h -5.999998 m 0,0 c 0.05469,0 0.10156,0.043 0.10156,0.1015 m 0,0 v -3 c 0,-0.055 -0.04297,-0.1015 -0.10156,-0.1015 m 0,0 h -6.000001 c -0.05469,0 -0.101563,0.043 -0.101563,0.1015 m 0,0 v 3 c 0,-0.055 0.04297,-0.1015 0.101563,-0.1015 m 0,0 h -6 m 0,0 c 0.05469,0 0.101562,0.043 0.101562,0.1015 m 0,0 v -3 c 0,-0.055 -0.04297,-0.1015 -0.101562,-0.1015 m 0,0 h -6 c -0.05469,0 -0.101563,0.043 -0.101563,0.1015 m 0,0 v 3 c 0,-0.055 0.04297,-0.1015 0.101563,-0.1015 m 0,0 h -6 m 0,0 c -0.05469,0 -0.101563,0.043 -0.101563,0.1015 m 0,0 v 0 m 0,0 v 9.5 m 0,0 c 0,-0.055 0.04297,-0.1015 0.101563,-0.1015 m 0,0 h -3 c -0.05469,0 -0.101563,0.043 -0.101563,0.1015 m 0,0 v 6 c 0,0.055 0.04297,0.1016 0.101563,0.1016 m 0,0 h 3 c -0.05469,0 -0.101563,-0.043 -0.101563,-0.1016 m 0,0 v 6 m 0,0 c 0,-0.055 0.04297,-0.1015 0.101563,-0.1015 m 0,0 h -3 c -0.05469,0 -0.101563,0.043 -0.101563,0.1015 m 0,0 v 6 c 0,0.055 0.04297,0.1016 0.101563,0.1016 m 0,0 h 3 c -0.05469,0 -0.101563,-0.043 -0.101563,-0.1016 m 0,0 v 6 m 0,0 c 0,-0.055 0.04297,-0.1015 0.101563,-0.1015 m 0,0 h -3 c -0.05469,0 -0.101563,0.043 -0.101563,0.1015 m 0,0 v 6 c 0,0.055 0.04297,0.1016 0.101563,0.1016 m 0,0 h 3 c -0.05469,0 -0.101563,-0.043 -0.101563,-0.1016 m 0,0 v 6 m 0,0 c 0,-0.055 0.04297,-0.1015 0.101563,-0.1015 m 0,0 h -3 c -0.05469,0 -0.101563,0.043 -0.101563,0.1015 m 0,0 v 6 c 0,0.055 0.04297,0.1016 0.101563,0.1016 m 0,0 h 3 c -0.05469,0 -0.101563,-0.043 -0.101563,-0.1016 m 0,0 v 6 m 0,0 c 0,-0.055 0.04297,-0.1015 0.101563,-0.1015 m 0,0 h -3 c -0.05469,0 -0.101563,0.043 -0.101563,0.1015 m 0,0 v 6 c 0,0.055 0.04297,0.1016 0.101563,0.1016 m 0,0 h 3 c -0.05469,0 -0.101563,-0.043 -0.101563,-0.1016 m 0,0 v 6 m 0,0 c 0,-0.055 0.04297,-0.1015 0.101563,-0.1015 m 0,0 h -3 c -0.05469,0 -0.101563,0.043 -0.101563,0.1015 m 0,0 v 6 c 0,0.055 0.04297,0.1016 0.101563,0.1016 m 0,0 h 3 c -0.05469,0 -0.101563,-0.043 -0.101563,-0.1016 m 0,0 1e-6,9.5 m 0,0 c 0,0.055 0.04297,0.1016 0.101562,0.1016 m 0,0 v 0"
       style="fill:none;stroke:#000000;stroke-width:0.2;stroke-linecap:butt;stroke-linejoin:miter;stroke-miterlimit:10;stroke-opacity:1" />
    <path
       inkscape:connector-curvature="0"
       id="path4586"
       d="m 17.864675,248.5567 h 6 m 0,0 c 0.05469,0 0.101562,-0.043 0.101562,-0.1016 m 0,0 v -3 c 0,0.055 -0.04297,0.1016 -0.101562,0.1016 m 0,0 h 6 c -0.05469,0 -0.101562,-0.043 -0.101562,-0.1016 m 0,0 v 3 c 0,0.055 0.04297,0.1016 0.101562,0.1016 m 0,0 h 6 m 0,0 c 0.05469,0 0.101562,-0.043 0.101562,-0.1016 m 0,0 v -3 c 0,0.055 -0.04297,0.1016 -0.101562,0.1016 m 0,0 h 6.000001 c -0.05469,0 -0.101563,-0.043 -0.101563,-0.1016 m 0,0 v 3 c 0,0.055 0.04297,0.1016 0.101563,0.1016 m 0,0 h 5.999998 m 0,0 c 0.05469,0 0.101563,-0.043 0.101563,-0.1016 m 0,0 v -3 c 0,0.055 -0.04297,0.1016 -0.101563,0.1016 m 0,0 h 6.000002 c -0.05469,0 -0.101563,-0.043 -0.101563,-0.1016 m 0,0 v 3 c 0,0.055 0.04297,0.1016 0.101563,0.1016 m 0,0 h 5.999998 m 0,0 c 0.05469,0 0.101563,-0.043 0.101563,-0.1016 m 0,0 v -3 c 0,0.055 -0.04297,0.1016 -0.101563,0.1016 m 0,0 h 6.000001 c -0.05469,0 -0.101563,-0.043 -0.101563,-0.1016 m 0,0 v 3 c 0,0.055 0.04297,0.1016 0.101563,0.1016 m 0,0 h 5.999999 m 0,0 c 0.05469,0 0.101563,-0.043 0.101563,-0.1016 m 0,0 v -3 c 0,0.055 -0.04297,0.1016 -0.101563,0.1016 m 0,0 h 6.000001 c -0.05469,0 -0.101563,-0.043 -0.101563,-0.1016 m 0,0 v 3 c 0,0.055 0.04297,0.1016 0.101563,0.1016 m 0,0 h 5.999999 m 0,0 c 0.05469,0 0.101563,-0.043 0.101563,-0.1016 m 0,0 v -3 c 0,0.055 -0.04297,0.1016 -0.101563,0.1016 m 0,0 h 6.000001 c -0.05469,0 -0.101563,-0.043 -0.101563,-0.1016 m 0,0 v 3 c 0,0.055 0.04297,0.1016 0.101563,0.1016 m 0,0 h 5.999999 m 0,0 c 0.05469,0 0.101563,-0.043 0.101563,-0.1016 m 0,0 v -3 c 0,0.055 -0.04297,0.1016 -0.101563,0.1016 m 0,0 h 5.999996 c -0.0547,0 -0.10156,-0.043 -0.10156,-0.1016 m 0,0 v 3 c 0,0.055 0.043,0.1016 0.10156,0.1016 m 0,0 h 6 m 0,0 c 0.0547,0 0.10157,-0.043 0.10157,-0.1016 m 0,0 v -3 c 0,0.055 -0.043,0.1016 -0.10157,0.1016 m 0,0 h 6 c -0.0547,0 -0.10156,-0.043 -0.10156,-0.1016 m 0,0 v 3 c 0,0.055 0.043,0.1016 0.10156,0.1016 m 0,0 h 6 m 0,0 c 0.0547,0 0.10156,-0.043 0.10156,-0.1016 m 0,0 v -3 c 0,0.055 -0.043,0.1016 -0.10156,0.1016 m 0,0 h 6 c -0.0547,0 -0.10156,-0.043 -0.10156,-0.1016 m 0,0 v 3 c 0,0.055 0.043,0.1016 0.10156,0.1016 m 0,0 h 6 m 0,0 c 0.0547,0 0.10156,-0.043 0.10156,-0.1016 m 0,0 v -3 c 0,0.055 -0.043,0.1016 -0.10156,0.1016 m 0,0 h 6 c -0.0547,0 -0.10156,-0.043 -0.10156,-0.1016 m 0,0 v 3 c 0,0.055 0.043,0.1016 0.10156,0.1016 m 0,0 h 6 m 0,0 c 0.0547,0 0.10156,-0.043 0.10156,-0.1016 m 0,0 v -3 c 0,0.055 -0.043,0.1016 -0.10156,0.1016 m 0,0 h 6 c -0.0547,0 -0.10156,-0.043 -0.10156,-0.1016 m 0,0 v 3 c 0,0.055 0.043,0.1016 0.10156,0.1016 m 0,0 h 6 m 0,0 c 0.0547,0 0.10156,-0.043 0.10156,-0.1016 m 0,0 v -3 c 0,0.055 -0.043,0.1016 -0.10156,0.1016 m 0,0 h 6 c -0.0547,0 -0.10156,-0.043 -0.10156,-0.1016 m 0,0 v 3 c 0,0.055 0.043,0.1016 0.10156,0.1016 m 0,0 h 6 m 0,0 h 3 c 0.0547,0 0.10156,-0.043 0.10156,-0.1016 m 0,0 v -3 m 0,0 v -9.5 m 0,0 c 0,-0.055 -0.043,-0.1015 -0.10156,-0.1015 m 0,0 h -3 c 0.0547,0 0.10156,0.043 0.10156,0.1015 m 0,0 v -6 c 0,0.055 -0.043,0.1016 -0.10156,0.1016 m 0,0 h 3 c 0.0547,0 0.10156,-0.043 0.10156,-0.1016 m 0,0 v -9.5 m 0,0 c 0,-0.055 -0.043,-0.1015 -0.10156,-0.1015 m 0,0 h -3 m 0,0 h -6 m 0,0 c 0.0547,0 0.10156,0.043 0.10156,0.1015 m 0,0 v -3 c 0,-0.055 -0.043,-0.1015 -0.10156,-0.1015 m 0,0 h -6 c -0.0547,0 -0.10156,0.043 -0.10156,0.1015 m 0,0 v 3 c 0,-0.055 0.043,-0.1015 0.10156,-0.1015 m 0,0 h -6 m 0,0 c 0.0547,0 0.10156,0.043 0.10156,0.1015 m 0,0 v -3 c 0,-0.055 -0.043,-0.1015 -0.10156,-0.1015 m 0,0 h -6 c -0.0547,0 -0.10156,0.043 -0.10156,0.1015 m 0,0 v 3 c 0,-0.055 0.043,-0.1015 0.10156,-0.1015 m 0,0 h -6 m 0,0 c 0.0547,0 0.10156,0.043 0.10156,0.1015 m 0,0 v -3 c 0,-0.055 -0.043,-0.1015 -0.10156,-0.1015 m 0,0 h -6 c -0.0547,0 -0.10156,0.043 -0.10156,0.1015 m 0,0 v 3 c 0,-0.055 0.043,-0.1015 0.10156,-0.1015 m 0,0 h -6 m 0,0 c 0.0547,0 0.10156,0.043 0.10156,0.1015 m 0,0 v -3 c 0,-0.055 -0.043,-0.1015 -0.10156,-0.1015 m 0,0 h -6 c -0.0547,0 -0.10156,0.043 -0.10156,0.1015 m 0,0 v 3 c 0,-0.055 0.043,-0.1015 0.10156,-0.1015 m 0,0 h -6 m 0,0 c 0.0547,0 0.10156,0.043 0.10156,0.1015 m 0,0 v -3 c 0,-0.055 -0.043,-0.1015 -0.10156,-0.1015 m 0,0 h -6 c -0.0547,0 -0.10156,0.043 -0.10156,0.1015 m 0,0 v 3 c 0,-0.055 0.043,-0.1015 0.10156,-0.1015 m 0,0 h -6 m 0,0 c 0.0547,0 0.10156,0.043 0.10156,0.1015 m 0,0 v -3 c 0,-0.055 -0.043,-0.1015 -0.10156,-0.1015 m 0,0 h -5.999996 c -0.05469,0 -0.101563,0.043 -0.101563,0.1015 m 0,0 v 3 c 0,-0.055 0.04297,-0.1015 0.101563,-0.1015 m 0,0 h -5.999999 m 0,0 c 0.05469,0 0.10156,0.043 0.10156,0.1015 m 0,0 v -3 c 0,-0.055 -0.04297,-0.1015 -0.10156,-0.1015 m 0,0 h -6.000001 c -0.05469,0 -0.101563,0.043 -0.101563,0.1015 m 0,0 v 3 c 0,-0.055 0.04297,-0.1015 0.101563,-0.1015 m 0,0 h -5.999999 m 0,0 c 0.05469,0 0.101561,0.043 0.101561,0.1015 m 0,0 v -3 c 0,-0.055 -0.04297,-0.1015 -0.101561,-0.1015 m 0,0 h -6.000001 c -0.05469,0 -0.101563,0.043 -0.101563,0.1015 m 0,0 v 3 c 0,-0.055 0.04297,-0.1015 0.101563,-0.1015 m 0,0 h -5.999999 m 0,0 c 0.05469,0 0.101561,0.043 0.101561,0.1015 m 0,0 v -3 c 0,-0.055 -0.04297,-0.1015 -0.101561,-0.1015 m 0,0 h -6.000001 c -0.05469,0 -0.101563,0.043 -0.101563,0.1015 m 0,0 v 3 c 0,-0.055 0.04297,-0.1015 0.101563,-0.1015 m 0,0 h -5.999998 m 0,0 c 0.05469,0 0.10156,0.043 0.10156,0.1015 m 0,0 v -3 c 0,-0.055 -0.04297,-0.1015 -0.10156,-0.1015 m 0,0 h -6.000002 c -0.05469,0 -0.101563,0.043 -0.101563,0.1015 m 0,0 v 3 c 0,-0.055 0.04297,-0.1015 0.101563,-0.1015 m 0,0 h -5.999998 m 0,0 c 0.05469,0 0.10156,0.043 0.10156,0.1015 m 0,0 v -3 c 0,-0.055 -0.04297,-0.1015 -0.10156,-0.1015 m 0,0 h -6.000001 c -0.05469,0 -0.101563,0.043 -0.101563,0.1015 m 0,0 v 3 c 0,-0.055 0.04297,-0.1015 0.101563,-0.1015 m 0,0 h -6 m 0,0 c 0.05469,0 0.101562,0.043 0.101562,0.1015 m 0,0 v -3 c 0,-0.055 -0.04297,-0.1015 -0.101562,-0.1015 m 0,0 h -6 c -0.05469,0 -0.101563,0.043 -0.101563,0.1015 m 0,0 v 3 c 0,-0.055 0.04297,-0.1015 0.101563,-0.1015 m 0,0 h -6 m 0,0 h -3 c -0.05469,0 -0.101563,0.043 -0.101563,0.1015 m 0,0 v 0 m 0,0 v 9.5 m 0,0 c 0,0.055 0.04297,0.1016 0.101563,0.1016 m 0,0 h 3 c -0.05469,0 -0.101563,-0.043 -0.101563,-0.1016 m 0,0 v 6 c 0,-0.055 0.04297,-0.1015 0.101563,-0.1015 m 0,0 h -3 c -0.05469,0 -0.101563,0.043 -0.101563,0.1015 m 0,0 v 9.5 m 0,0 1e-6,3 c 0,0.055 0.04297,0.1016 0.101562,0.1016 m 0,0 h 3"
       style="fill:none;stroke:#000000;stroke-width:0.2;stroke-linecap:butt;stroke-linejoin:miter;stroke-miterlimit:10;stroke-opacity:1" />
    <path
       inkscape:connector-curvature="0"
       id="path4584"
       d="m 17.864674,281.2559 h 6 m 0,0 c 0.05469,0 0.101562,-0.043 0.101562,-0.1016 m 0,0 v -3 c 0,0.055 -0.04297,0.1016 -0.101562,0.1016 m 0,0 h 6 c -0.05469,0 -0.101563,-0.043 -0.101563,-0.1016 m 0,0 1e-6,3 c 0,0.055 0.04297,0.1016 0.101562,0.1016 m 0,0 h 5.999999 m 0,0 c 0.0547,0 0.10156,-0.043 0.10156,-0.1016 m 0,0 v -3 c 0,0.055 -0.043,0.1016 -0.10156,0.1016 m 0,0 h 6 c -0.0547,0 -0.10156,-0.043 -0.10156,-0.1016 m 0,0 v 3 c 0,0.055 0.043,0.1016 0.10156,0.1016 m 0,0 h 6 m 0,0 c 0.0547,0 0.10156,-0.043 0.10156,-0.1016 m 0,0 v -3 c 0,0.055 -0.043,0.1016 -0.10156,0.1016 m 0,0 h 6 c -0.0547,0 -0.10156,-0.043 -0.10156,-0.1016 m 0,0 v 3 c 0,0.055 0.043,0.1016 0.10156,0.1016 m 0,0 h 6 m 0,0 c 0.0547,0 0.10156,-0.043 0.10156,-0.1016 m 0,0 v -3 c 0,0.055 -0.043,0.1016 -0.10156,0.1016 m 0,0 h 6 c -0.0547,0 -0.10156,-0.043 -0.10156,-0.1016 m 0,0 v 3 c 0,0.055 0.043,0.1016 0.10156,0.1016 m 0,0 h 6 m 0,0 c 0.0547,0 0.10156,-0.043 0.10156,-0.1016 m 0,0 v -3 c 0,0.055 -0.043,0.1016 -0.10156,0.1016 m 0,0 h 6 c -0.0547,0 -0.10156,-0.043 -0.10156,-0.1016 m 0,0 v 3 c 0,0.055 0.043,0.1016 0.10156,0.1016 m 0,0 h 6 m 0,0 c 0.0547,0 0.10156,-0.043 0.10156,-0.1016 m 0,0 v -3 c 0,0.055 -0.043,0.1016 -0.10156,0.1016 m 0,0 h 6 c -0.0547,0 -0.10156,-0.043 -0.10156,-0.1016 m 0,0 v 3 c 0,0.055 0.043,0.1016 0.10156,0.1016 m 0,0 h 6 m 0,0 c 0.0547,0 0.10156,-0.043 0.10156,-0.1016 m 0,0 v -3 c 0,0.055 -0.043,0.1016 -0.10156,0.1016 m 0,0 h 5.999997 c -0.0547,0 -0.10156,-0.043 -0.10156,-0.1016 m 0,0 v 3 c 0,0.055 0.043,0.1016 0.10156,0.1016 m 0,0 h 6 m 0,0 c 0.0547,0 0.10157,-0.043 0.10157,-0.1016 m 0,0 v -3 c 0,0.055 -0.043,0.1016 -0.10157,0.1016 m 0,0 h 6 c -0.0547,0 -0.10156,-0.043 -0.10156,-0.1016 m 0,0 v 3 c 0,0.055 0.043,0.1016 0.10156,0.1016 m 0,0 h 6 m 0,0 c 0.0547,0 0.10156,-0.043 0.10156,-0.1016 m 0,0 v -3 c 0,0.055 -0.043,0.1016 -0.10156,0.1016 m 0,0 h 6 c -0.0547,0 -0.10156,-0.043 -0.10156,-0.1016 m 0,0 v 3 c 0,0.055 0.043,0.1016 0.10156,0.1016 m 0,0 h 6 m 0,0 c 0.0547,0 0.10156,-0.043 0.10156,-0.1016 m 0,0 v -3 c 0,0.055 -0.043,0.1016 -0.10156,0.1016 m 0,0 h 6 c -0.0547,0 -0.10156,-0.043 -0.10156,-0.1016 m 0,0 v 3 c 0,0.055 0.043,0.1016 0.10156,0.1016 m 0,0 h 6 m 0,0 c 0.0547,0 0.10156,-0.043 0.10156,-0.1016 m 0,0 v -3 c 0,0.055 -0.043,0.1016 -0.10156,0.1016 m 0,0 h 6 c -0.0547,0 -0.10156,-0.043 -0.10156,-0.1016 m 0,0 v 3 c 0,0.055 0.043,0.1016 0.10156,0.1016 m 0,0 h 6 m 0,0 c 0.0547,0 0.10156,-0.043 0.10156,-0.1016 m 0,0 v -3 c 0,0.055 -0.043,0.1016 -0.10156,0.1016 m 0,0 h 6 c -0.0547,0 -0.10156,-0.043 -0.10156,-0.1016 m 0,0 v 3 c 0,0.055 0.043,0.1016 0.10156,0.1016 m 0,0 h 6 m 0,0 h 3 c 0.0547,0 0.10156,-0.043 0.10156,-0.1016 m 0,0 v -3 m 0,0 v -9.5 m 0,0 c 0,-0.055 -0.043,-0.1015 -0.10156,-0.1015 m 0,0 h -3 c 0.0547,0 0.10156,0.043 0.10156,0.1015 m 0,0 v -6 c 0,0.055 -0.043,0.1016 -0.10156,0.1016 m 0,0 h 3 c 0.0547,0 0.10156,-0.043 0.10156,-0.1016 m 0,0 v -9.5 m 0,0 c 0,-0.055 -0.043,-0.1015 -0.10156,-0.1015 m 0,0 h -3 m 0,0 h -6 m 0,0 c 0.0547,0 0.10156,0.043 0.10156,0.1015 m 0,0 v -3 c 0,-0.055 -0.043,-0.1015 -0.10156,-0.1015 m 0,0 h -6 c -0.0547,0 -0.10156,0.043 -0.10156,0.1015 m 0,0 v 3 c 0,-0.055 0.043,-0.1015 0.10156,-0.1015 m 0,0 h -6 m 0,0 c 0.0547,0 0.10156,0.043 0.10156,0.1015 m 0,0 v -3 c 0,-0.055 -0.043,-0.1015 -0.10156,-0.1015 m 0,0 h -6 c -0.0547,0 -0.10156,0.043 -0.10156,0.1015 m 0,0 v 3 c 0,-0.055 0.043,-0.1015 0.10156,-0.1015 m 0,0 h -6 m 0,0 c 0.0547,0 0.10156,0.043 0.10156,0.1015 m 0,0 v -3 c 0,-0.055 -0.043,-0.1015 -0.10156,-0.1015 m 0,0 h -6 c -0.0547,0 -0.10156,0.043 -0.10156,0.1015 m 0,0 v 3 c 0,-0.055 0.043,-0.1015 0.10156,-0.1015 m 0,0 h -6 m 0,0 c 0.0547,0 0.10156,0.043 0.10156,0.1015 m 0,0 v -3 c 0,-0.055 -0.043,-0.1015 -0.10156,-0.1015 m 0,0 h -6 c -0.0547,0 -0.10156,0.043 -0.10156,0.1015 m 0,0 v 3 c 0,-0.055 0.043,-0.1015 0.10156,-0.1015 m 0,0 h -6 m 0,0 c 0.0547,0 0.10156,0.043 0.10156,0.1015 m 0,0 v -3 c 0,-0.055 -0.043,-0.1015 -0.10156,-0.1015 m 0,0 h -6 c -0.0547,0 -0.10156,0.043 -0.10156,0.1015 m 0,0 v 3 c 0,-0.055 0.043,-0.1015 0.10156,-0.1015 m 0,0 h -6 m 0,0 c 0.0547,0 0.10156,0.043 0.10156,0.1015 m 0,0 v -3 c 0,-0.055 -0.043,-0.1015 -0.10156,-0.1015 m 0,0 h -5.999997 c -0.0547,0 -0.10156,0.043 -0.10156,0.1015 m 0,0 v 3 c 0,-0.055 0.043,-0.1015 0.10156,-0.1015 m 0,0 h -6 m 0,0 c 0.0547,0 0.10156,0.043 0.10156,0.1015 m 0,0 v -3 c 0,-0.055 -0.043,-0.1015 -0.10156,-0.1015 m 0,0 h -6 c -0.0547,0 -0.10156,0.043 -0.10156,0.1015 m 0,0 v 3 c 0,-0.055 0.043,-0.1015 0.10156,-0.1015 m 0,0 h -6 m 0,0 c 0.0547,0 0.10156,0.043 0.10156,0.1015 m 0,0 v -3 c 0,-0.055 -0.043,-0.1015 -0.10156,-0.1015 m 0,0 h -6 c -0.0547,0 -0.10156,0.043 -0.10156,0.1015 m 0,0 v 3 c 0,-0.055 0.043,-0.1015 0.10156,-0.1015 m 0,0 h -6 m 0,0 c 0.0547,0 0.10156,0.043 0.10156,0.1015 m 0,0 v -3 c 0,-0.055 -0.043,-0.1015 -0.10156,-0.1015 m 0,0 h -6 c -0.0547,0 -0.10156,0.043 -0.10156,0.1015 m 0,0 v 3 c 0,-0.055 0.043,-0.1015 0.10156,-0.1015 m 0,0 h -6 m 0,0 c 0.0547,0 0.10156,0.043 0.10156,0.1015 m 0,0 v -3 c 0,-0.055 -0.043,-0.1015 -0.10156,-0.1015 m 0,0 h -6 c -0.0547,0 -0.10156,0.043 -0.10156,0.1015 m 0,0 v 3 c 0,-0.055 0.043,-0.1015 0.10156,-0.1015 m 0,0 h -6 m 0,0 c 0.0547,0 0.10156,0.043 0.10156,0.1015 m 0,0 v -3 c 0,-0.055 -0.043,-0.1015 -0.10156,-0.1015 m 0,0 h -6 c -0.0547,0 -0.10156,0.043 -0.10156,0.1015 m 0,0 v 3 c 0,-0.055 0.043,-0.1015 0.10156,-0.1015 m 0,0 h -5.999999 m 0,0 c 0.05469,0 0.101562,0.043 0.101562,0.1015 m 0,0 v -3 c 0,-0.055 -0.04297,-0.1015 -0.101562,-0.1015 m 0,0 h -6 c -0.05469,0 -0.101563,0.043 -0.101563,0.1015 m 0,0 v 3 c 0,-0.055 0.04297,-0.1015 0.101563,-0.1015 m 0,0 h -6 m 0,0 h -3 c -0.05469,0 -0.101563,0.043 -0.101563,0.1015 m 0,0 v 0 m 0,0 v 9.5 m 0,0 c 0,0.055 0.04297,0.1016 0.101563,0.1016 m 0,0 h 3 c -0.05469,0 -0.101563,-0.043 -0.101563,-0.1016 m 0,0 v 6 c 0,-0.055 0.04297,-0.1015 0.101563,-0.1015 m 0,0 h -3 c -0.05469,0 -0.101563,0.043 -0.101563,0.1015 m 0,0 v 9.5 m 0,0 10e-7,3 c 0,0.055 0.04297,0.1016 0.101562,0.1016 m 0,0 h 3"
       style="fill:none;stroke:#000000;stroke-width:0.2;stroke-linecap:butt;stroke-linejoin:miter;stroke-miterlimit:10;stroke-opacity:1" />
  </g>
</svg>
