<?xml version="1.0" encoding="UTF-8"?>
<svg xmlns="http://www.w3.org/2000/svg" xmlns:xlink="http://www.w3.org/1999/xlink" width="250mm" height="360mm" viewBox="0 9640 250 360"      version="1.1">
<g id="surface7509">
<path style="fill:none;stroke-width:0.2;stroke-linecap:butt;stroke-linejoin:miter;stroke:rgb(0%,0%,0%);stroke-opacity:1;stroke-miterlimit:10;" d="M 0 0 L 6 0 M 6 0 C 6.054688 0 6.101562 0.0429688 6.101562 0.101562 M 6.101562 0.101562 L 6.101562 3.101562 C 6.101562 3.046875 6.058594 3 6 3 M 6 3 L 12 3 C 11.945312 3 11.898437 3.042969 11.898437 3.101562 M 11.898437 3.101562 L 11.898438 0.101562 C 11.898438 0.046875 11.941406 0 12 0 M 12 0 L 18 0 M 18 0 C 18.054688 0 18.101562 0.0429688 18.101562 0.101562 M 18.101562 0.101562 L 18.101562 3.101562 C 18.101562 3.046875 18.058594 3 18 3 M 18 3 L 24 3 C 23.945312 3 23.898438 3.042969 23.898438 3.101562 M 23.898438 3.101562 L 23.898438 0.101562 C 23.898438 0.046875 23.941406 0 24 0 M 24 0 L 30 0 M 30 0 C 30.054688 0 30.101563 0.0429688 30.101563 0.101562 M 30.101563 0.101562 L 30.101563 3.101562 C 30.101563 3.046875 30.058594 3 30 3 M 30 3 L 36 3 C 35.945312 3 35.898438 3.042969 35.898438 3.101562 M 35.898438 3.101562 L 35.898438 0.101562 C 35.898438 0.046875 35.941406 0 36 0 M 36 0 L 42 0 M 42 0 C 42.054688 0 42.101562 0.0429688 42.101562 0.101562 M 42.101562 0.101562 L 42.101562 3.101562 C 42.101562 3.046875 42.058594 3 42 3 M 42 3 L 48 3 C 47.945312 3 47.898438 3.042969 47.898438 3.101562 M 47.898438 3.101562 L 47.898438 0.101562 C 47.898438 0.046875 47.941406 0 48 0 M 48 0 L 54 0 M 54 0 C 54.054688 0 54.101562 0.0429688 54.101562 0.101562 M 54.101562 0.101562 L 54.101562 3.101562 C 54.101562 3.046875 54.058594 3 54 3 M 54 3 L 60 3 C 59.945312 3 59.898438 3.042969 59.898438 3.101562 M 59.898438 3.101562 L 59.898438 0.101562 C 59.898438 0.046875 59.941406 0 60 0 M 60 0 L 66 0 M 66 0 C 66.054688 0 66.101562 0.0429688 66.101562 0.101562 M 66.101562 0.101562 L 66.101562 3.101562 C 66.101562 3.046875 66.058594 3 66 3 M 66 3 L 72 3 C 71.945312 3 71.898438 3.042969 71.898438 3.101562 M 71.898438 3.101562 L 71.898438 0.101562 C 71.898438 0.046875 71.941406 0 72 0 M 72 0 L 78 0 M 78 0 C 78.054688 0 78.101562 0.0429688 78.101562 0.101562 M 78.101562 0.101562 L 78.101562 3.101562 C 78.101562 3.046875 78.058594 3 78 3 M 78 3 L 84 3 C 83.945312 3 83.898438 3.042969 83.898438 3.101562 M 83.898438 3.101562 L 83.898438 0.101562 C 83.898438 0.046875 83.941406 0 84 0 M 84 0 L 90 0 M 90 0 C 90.054688 0 90.101562 0.0429688 90.101562 0.101562 M 90.101562 0.101562 L 90.101562 3.101562 C 90.101562 3.046875 90.058594 3 90 3 M 90 3 L 96 3 C 95.945312 3 95.898438 3.042969 95.898438 3.101562 M 95.898438 3.101562 L 95.898438 0.101562 C 95.898438 0.046875 95.941406 0 96 0 M 96 0 L 102 0 M 102 0 C 102.054688 0 102.101562 0.0429688 102.101562 0.101562 M 102.101562 0.101562 L 102.101562 3.101562 C 102.101562 3.046875 102.058594 3 102 3 M 102 3 L 108 3 C 107.945312 3 107.898438 3.042969 107.898438 3.101562 M 107.898438 3.101562 L 107.898438 0.101562 C 107.898438 0.046875 107.941406 0 108 0 M 108 0 L 114 0 M 114 0 C 114.054688 0 114.101562 0.0429688 114.101562 0.101562 M 114.101562 0.101562 L 114.101562 3.101562 C 114.101562 3.046875 114.058594 3 114 3 M 114 3 L 120 3 C 119.945312 3 119.898438 3.042969 119.898438 3.101562 M 119.898438 3.101562 L 119.898438 0.101562 C 119.898438 0.046875 119.941406 0 120 0 M 120 0 L 126 0 M 126 0 C 126.054688 0 126.101562 0.0429688 126.101562 0.101562 M 126.101562 0.101562 L 126.101562 3.101562 C 126.101562 3.046875 126.058594 3 126 3 M 126 3 L 132 3 C 131.945312 3 131.898438 3.042969 131.898438 3.101562 M 131.898438 3.101562 L 131.898438 0.101562 C 131.898438 0.046875 131.941406 0 132 0 M 132 0 L 138 0 M 138 0 C 138.054688 0 138.101562 0.0429688 138.101562 0.101562 M 138.101562 0.101562 L 138.101562 3.101562 C 138.101562 3.046875 138.058594 3 138 3 M 138 3 L 144 3 C 143.945312 3 143.898438 3.042969 143.898438 3.101562 M 143.898438 3.101562 L 143.898438 0.101562 C 143.898438 0.046875 143.941406 0 144 0 M 144 0 L 150 0 M 150 0 L 153 0 C 153.054688 0 153.101562 0.0429688 153.101562 0.101562 M 153.101562 0.101562 L 153.101562 3.101562 M 153.101562 3.101562 L 153.101562 12.601562 M 153.101562 12.601562 C 153.101562 12.65625 153.058594 12.703125 153 12.703125 M 153 12.703125 L 150 12.703125 C 150.054688 12.703125 150.101562 12.660156 150.101562 12.601562 M 150.101562 12.601562 L 150.101562 18.601562 C 150.101562 18.546875 150.058594 18.5 150 18.5 M 150 18.5 L 153 18.5 C 153.054688 18.5 153.101562 18.542969 153.101562 18.601562 M 153.101562 18.601562 L 153.101562 28.101562 M 153.101562 28.101562 C 153.101562 28.15625 153.058594 28.203125 153 28.203125 M 153 28.203125 L 150 28.203125 M 150 28.203125 L 144 28.203125 M 144 28.203125 C 144.054688 28.203125 144.101562 28.160156 144.101562 28.101562 M 144.101562 28.101562 L 144.101562 31.101562 C 144.101562 31.15625 144.058594 31.203125 144 31.203125 M 144 31.203125 L 138 31.203125 C 137.945312 31.203125 137.898438 31.160156 137.898438 31.101562 M 137.898438 31.101562 L 137.898438 28.101562 C 137.898438 28.15625 137.941406 28.203125 138 28.203125 M 138 28.203125 L 132 28.203125 M 132 28.203125 C 132.054688 28.203125 132.101562 28.160156 132.101562 28.101562 M 132.101562 28.101562 L 132.101562 31.101562 C 132.101562 31.15625 132.058594 31.203125 132 31.203125 M 132 31.203125 L 126 31.203125 C 125.945312 31.203125 125.898438 31.160156 125.898438 31.101562 M 125.898438 31.101562 L 125.898438 28.101562 C 125.898438 28.15625 125.941406 28.203125 126 28.203125 M 126 28.203125 L 120 28.203125 M 120 28.203125 C 120.054688 28.203125 120.101562 28.160156 120.101562 28.101562 M 120.101562 28.101562 L 120.101562 31.101562 C 120.101562 31.15625 120.058594 31.203125 120 31.203125 M 120 31.203125 L 114 31.203125 C 113.945312 31.203125 113.898438 31.160156 113.898438 31.101562 M 113.898438 31.101562 L 113.898438 28.101562 C 113.898438 28.15625 113.941406 28.203125 114 28.203125 M 114 28.203125 L 108 28.203125 M 108 28.203125 C 108.054688 28.203125 108.101562 28.160156 108.101562 28.101562 M 108.101562 28.101562 L 108.101562 31.101562 C 108.101562 31.15625 108.058594 31.203125 108 31.203125 M 108 31.203125 L 102 31.203125 C 101.945312 31.203125 101.898438 31.160156 101.898438 31.101562 M 101.898438 31.101562 L 101.898438 28.101562 C 101.898438 28.15625 101.941406 28.203125 102 28.203125 M 102 28.203125 L 96 28.203125 M 96 28.203125 C 96.054688 28.203125 96.101562 28.160156 96.101562 28.101562 M 96.101562 28.101562 L 96.101562 31.101562 C 96.101562 31.15625 96.058594 31.203125 96 31.203125 M 96 31.203125 L 90 31.203125 C 89.945312 31.203125 89.898438 31.160156 89.898438 31.101562 M 89.898438 31.101562 L 89.898438 28.101562 C 89.898438 28.15625 89.941406 28.203125 90 28.203125 M 90 28.203125 L 84 28.203125 M 84 28.203125 C 84.054688 28.203125 84.101562 28.160156 84.101562 28.101562 M 84.101562 28.101562 L 84.101562 31.101562 C 84.101562 31.15625 84.058594 31.203125 84 31.203125 M 84 31.203125 L 78 31.203125 C 77.945312 31.203125 77.898438 31.160156 77.898438 31.101562 M 77.898438 31.101562 L 77.898438 28.101562 C 77.898438 28.15625 77.941406 28.203125 78 28.203125 M 78 28.203125 L 72 28.203125 M 72 28.203125 C 72.054688 28.203125 72.101562 28.160156 72.101562 28.101562 M 72.101562 28.101562 L 72.101562 31.101562 C 72.101562 31.15625 72.058594 31.203125 72 31.203125 M 72 31.203125 L 66 31.203125 C 65.945312 31.203125 65.898438 31.160156 65.898438 31.101562 M 65.898438 31.101562 L 65.898438 28.101562 C 65.898438 28.15625 65.941406 28.203125 66 28.203125 M 66 28.203125 L 60 28.203125 M 60 28.203125 C 60.054687 28.203125 60.101562 28.160156 60.101562 28.101562 M 60.101562 28.101562 L 60.101562 31.101562 C 60.101562 31.15625 60.058594 31.203125 60 31.203125 M 60 31.203125 L 54 31.203125 C 53.945312 31.203125 53.898437 31.160156 53.898437 31.101562 M 53.898437 31.101562 L 53.898437 28.101562 C 53.898437 28.15625 53.941406 28.203125 54 28.203125 M 54 28.203125 L 48 28.203125 M 48 28.203125 C 48.054687 28.203125 48.101562 28.160156 48.101562 28.101562 M 48.101562 28.101562 L 48.101562 31.101562 C 48.101562 31.15625 48.058594 31.203125 48 31.203125 M 48 31.203125 L 42 31.203125 C 41.945312 31.203125 41.898437 31.160156 41.898437 31.101562 M 41.898437 31.101562 L 41.898437 28.101562 C 41.898437 28.15625 41.941406 28.203125 42 28.203125 M 42 28.203125 L 36 28.203125 M 36 28.203125 C 36.054687 28.203125 36.101562 28.160156 36.101562 28.101562 M 36.101562 28.101562 L 36.101562 31.101562 C 36.101562 31.15625 36.058594 31.203125 36 31.203125 M 36 31.203125 L 30 31.203125 C 29.945312 31.203125 29.898437 31.160156 29.898437 31.101562 M 29.898437 31.101562 L 29.898437 28.101562 C 29.898437 28.15625 29.941406 28.203125 30 28.203125 M 30 28.203125 L 24 28.203125 M 24 28.203125 C 24.054687 28.203125 24.101562 28.160156 24.101562 28.101562 M 24.101562 28.101562 L 24.101562 31.101562 C 24.101562 31.15625 24.058594 31.203125 24 31.203125 M 24 31.203125 L 18 31.203125 C 17.945312 31.203125 17.898437 31.160156 17.898437 31.101562 M 17.898437 31.101562 L 17.898437 28.101562 C 17.898437 28.15625 17.941406 28.203125 18 28.203125 M 18 28.203125 L 12 28.203125 M 12 28.203125 C 12.054687 28.203125 12.101562 28.160156 12.101562 28.101562 M 12.101562 28.101562 L 12.101562 31.101562 C 12.101562 31.15625 12.058594 31.203125 12 31.203125 M 12 31.203125 L 6 31.203125 C 5.945312 31.203125 5.898437 31.160156 5.898437 31.101562 M 5.898437 31.101562 L 5.898437 28.101562 C 5.898437 28.15625 5.941406 28.203125 6 28.203125 M 6 28.203125 L -0.000000000000007105 28.203125 M -0.000000000000007105 28.203125 L -3 28.203125 C -3.054688 28.203125 -3.101563 28.160156 -3.101563 28.101562 M -3.101563 28.101562 L -3.101563 28.101562 M -3.101563 28.101562 L -3.101563 18.601562 M -3.101563 18.601562 C -3.101563 18.546875 -3.058594 18.5 -3 18.5 M -3 18.5 L -0.000000000000004441 18.5 C -0.0546875 18.5 -0.101563 18.542969 -0.101563 18.601562 M -0.101563 18.601562 L -0.101563 12.601562 C -0.101563 12.65625 -0.0585938 12.703125 -0.000000000000003109 12.703125 M -0.000000000000003109 12.703125 L -3 12.703125 C -3.054688 12.703125 -3.101563 12.660156 -3.101563 12.601562 M -3.101563 12.601562 L -3.101563 3.101562 M -3.101563 3.101562 L -3.101562 0.101562 C -3.101562 0.046875 -3.058594 0 -3 0 M -3 0 L 0 0 " transform="matrix(1,0.000000000000000245,0.000000000000000245,-1,3.851562,9999.148438)"/>
<path style="fill:none;stroke-width:0.2;stroke-linecap:butt;stroke-linejoin:miter;stroke:rgb(0%,0%,0%);stroke-opacity:1;stroke-miterlimit:10;" d="M 0 0 L 6 0 M 6 0 C 6.054688 0 6.101562 0.0429688 6.101562 0.101562 M 6.101562 0.101562 L 6.101562 3.101562 C 6.101562 3.046875 6.058594 3 6 3 M 6 3 L 12 3 C 11.945312 3 11.898438 3.042969 11.898438 3.101562 M 11.898438 3.101562 L 11.898438 0.101562 C 11.898438 0.046875 11.941406 0 12 0 M 12 0 L 18 0 M 18 0 C 18.054688 0 18.101562 0.0429688 18.101562 0.101562 M 18.101562 0.101562 L 18.101562 3.101562 C 18.101562 3.046875 18.058594 3 18 3 M 18 3 L 24 3 C 23.945312 3 23.898438 3.042969 23.898438 3.101562 M 23.898438 3.101562 L 23.898438 0.101562 C 23.898438 0.046875 23.941406 0 24 0 M 24 0 L 30 0 M 30 0 C 30.054688 0 30.101563 0.0429688 30.101563 0.101562 M 30.101563 0.101562 L 30.101562 3.101562 C 30.101562 3.046875 30.058594 3 30 3 M 30 3 L 36 3 C 35.945312 3 35.898437 3.042969 35.898437 3.101562 M 35.898437 3.101562 L 35.898438 0.101562 C 35.898438 0.046875 35.941406 0 36 0 M 36 0 L 42 0 M 42 0 C 42.054688 0 42.101562 0.0429688 42.101562 0.101562 M 42.101562 0.101562 L 42.101562 3.101562 C 42.101562 3.046875 42.058594 3 42 3 M 42 3 L 48 3 C 47.945312 3 47.898437 3.042969 47.898437 3.101562 M 47.898437 3.101562 L 47.898438 0.101562 C 47.898438 0.046875 47.941406 0 48 0 M 48 0 L 54 0 M 54 0 C 54.054688 0 54.101562 0.0429688 54.101562 0.101562 M 54.101562 0.101562 L 54.101562 3.101562 C 54.101562 3.046875 54.058594 3 54 3 M 54 3 L 60 3 C 59.945312 3 59.898437 3.042969 59.898437 3.101562 M 59.898437 3.101562 L 59.898438 0.101562 C 59.898438 0.046875 59.941406 0 60 0 M 60 0 L 66 0 M 66 0 C 66.054688 0 66.101562 0.0429688 66.101562 0.101562 M 66.101562 0.101562 L 66.101562 3.101562 C 66.101562 3.046875 66.058594 3 66 3 M 66 3 L 72 3 C 71.945312 3 71.898438 3.042969 71.898438 3.101562 M 71.898438 3.101562 L 71.898438 0.101562 C 71.898438 0.046875 71.941406 0 72 0 M 72 0 L 78 0 M 78 0 C 78.054688 0 78.101562 0.0429688 78.101562 0.101562 M 78.101562 0.101562 L 78.101562 3.101562 C 78.101562 3.046875 78.058594 3 78 3 M 78 3 L 84 3 C 83.945312 3 83.898438 3.042969 83.898438 3.101562 M 83.898438 3.101562 L 83.898438 0.101562 C 83.898438 0.046875 83.941406 0 84 0 M 84 0 L 90 0 M 90 0 C 90.054688 0 90.101562 0.0429688 90.101562 0.101562 M 90.101562 0.101562 L 90.101562 3.101562 C 90.101562 3.046875 90.058594 3 90 3 M 90 3 L 96 3 C 95.945312 3 95.898438 3.042969 95.898438 3.101562 M 95.898438 3.101562 L 95.898438 0.101562 C 95.898438 0.046875 95.941406 0 96 0 M 96 0 L 102 0 M 102 0 C 102.054688 0 102.101562 0.0429688 102.101562 0.101562 M 102.101562 0.101562 L 102.101562 3.101562 C 102.101562 3.046875 102.058594 3 102 3 M 102 3 L 108 3 C 107.945312 3 107.898438 3.042969 107.898438 3.101562 M 107.898438 3.101562 L 107.898438 0.101562 C 107.898438 0.046875 107.941406 0 108 0 M 108 0 L 114 0 M 114 0 C 114.054688 0 114.101562 0.0429688 114.101562 0.101562 M 114.101562 0.101562 L 114.101562 3.101562 C 114.101562 3.046875 114.058594 3 114 3 M 114 3 L 120 3 C 119.945312 3 119.898438 3.042969 119.898438 3.101562 M 119.898438 3.101562 L 119.898438 0.101562 C 119.898438 0.046875 119.941406 0 120 0 M 120 0 L 126 0 M 126 0 C 126.054688 0 126.101562 0.0429688 126.101562 0.101562 M 126.101562 0.101562 L 126.101562 3.101562 C 126.101562 3.046875 126.058594 3 126 3 M 126 3 L 132 3 C 131.945312 3 131.898438 3.042969 131.898438 3.101562 M 131.898438 3.101562 L 131.898438 0.101562 C 131.898438 0.046875 131.941406 0 132 0 M 132 0 L 138 0 M 138 0 C 138.054688 0 138.101562 0.0429688 138.101562 0.101562 M 138.101562 0.101562 L 138.101562 3.101562 C 138.101562 3.046875 138.058594 3 138 3 M 138 3 L 144 3 C 143.945312 3 143.898438 3.042969 143.898438 3.101562 M 143.898438 3.101562 L 143.898438 0.101562 C 143.898438 0.046875 143.941406 0 144 0 M 144 0 L 150 0 M 150 0 L 153 0 C 153.054688 0 153.101562 0.0429688 153.101562 0.101562 M 153.101562 0.101562 L 153.101562 3.101562 M 153.101562 3.101562 L 153.101562 12.601562 M 153.101562 12.601562 C 153.101562 12.65625 153.058594 12.703125 153 12.703125 M 153 12.703125 L 150 12.703125 C 150.054688 12.703125 150.101562 12.660156 150.101562 12.601562 M 150.101562 12.601562 L 150.101562 18.601562 C 150.101562 18.546875 150.058594 18.5 150 18.5 M 150 18.5 L 153 18.5 C 153.054688 18.5 153.101562 18.542969 153.101562 18.601562 M 153.101562 18.601562 L 153.101562 28.101562 M 153.101562 28.101562 C 153.101562 28.15625 153.058594 28.203125 153 28.203125 M 153 28.203125 L 150 28.203125 M 150 28.203125 L 144 28.203125 M 144 28.203125 C 144.054688 28.203125 144.101562 28.160156 144.101562 28.101562 M 144.101562 28.101562 L 144.101562 31.101562 C 144.101562 31.15625 144.058594 31.203125 144 31.203125 M 144 31.203125 L 138 31.203125 C 137.945312 31.203125 137.898438 31.160156 137.898438 31.101562 M 137.898438 31.101562 L 137.898438 28.101562 C 137.898438 28.15625 137.941406 28.203125 138 28.203125 M 138 28.203125 L 132 28.203125 M 132 28.203125 C 132.054688 28.203125 132.101562 28.160156 132.101562 28.101562 M 132.101562 28.101562 L 132.101562 31.101562 C 132.101562 31.15625 132.058594 31.203125 132 31.203125 M 132 31.203125 L 126 31.203125 C 125.945312 31.203125 125.898438 31.160156 125.898438 31.101562 M 125.898438 31.101562 L 125.898438 28.101562 C 125.898438 28.15625 125.941406 28.203125 126 28.203125 M 126 28.203125 L 120 28.203125 M 120 28.203125 C 120.054687 28.203125 120.101562 28.160156 120.101562 28.101562 M 120.101562 28.101562 L 120.101562 31.101562 C 120.101562 31.15625 120.058594 31.203125 120 31.203125 M 120 31.203125 L 114 31.203125 C 113.945312 31.203125 113.898437 31.160156 113.898437 31.101562 M 113.898437 31.101562 L 113.898437 28.101562 C 113.898437 28.15625 113.941406 28.203125 114 28.203125 M 114 28.203125 L 108 28.203125 M 108 28.203125 C 108.054687 28.203125 108.101562 28.160156 108.101562 28.101562 M 108.101562 28.101562 L 108.101562 31.101562 C 108.101562 31.15625 108.058594 31.203125 108 31.203125 M 108 31.203125 L 102 31.203125 C 101.945312 31.203125 101.898437 31.160156 101.898437 31.101562 M 101.898437 31.101562 L 101.898437 28.101562 C 101.898437 28.15625 101.941406 28.203125 102 28.203125 M 102 28.203125 L 96 28.203125 M 96 28.203125 C 96.054687 28.203125 96.101562 28.160156 96.101562 28.101562 M 96.101562 28.101562 L 96.101562 31.101562 C 96.101562 31.15625 96.058594 31.203125 96 31.203125 M 96 31.203125 L 90 31.203125 C 89.945312 31.203125 89.898437 31.160156 89.898437 31.101562 M 89.898437 31.101562 L 89.898437 28.101562 C 89.898437 28.15625 89.941406 28.203125 90 28.203125 M 90 28.203125 L 84 28.203125 M 84 28.203125 C 84.054687 28.203125 84.101562 28.160156 84.101562 28.101562 M 84.101562 28.101562 L 84.101562 31.101562 C 84.101562 31.15625 84.058594 31.203125 84 31.203125 M 84 31.203125 L 78 31.203125 C 77.945312 31.203125 77.898437 31.160156 77.898437 31.101562 M 77.898437 31.101562 L 77.898437 28.101562 C 77.898437 28.15625 77.941406 28.203125 78 28.203125 M 78 28.203125 L 72 28.203125 M 72 28.203125 C 72.054687 28.203125 72.101562 28.160156 72.101562 28.101562 M 72.101562 28.101562 L 72.101562 31.101562 C 72.101562 31.15625 72.058594 31.203125 72 31.203125 M 72 31.203125 L 66 31.203125 C 65.945312 31.203125 65.898437 31.160156 65.898437 31.101562 M 65.898437 31.101562 L 65.898437 28.101562 C 65.898437 28.15625 65.941406 28.203125 66 28.203125 M 66 28.203125 L 60 28.203125 M 60 28.203125 C 60.054687 28.203125 60.101562 28.160156 60.101562 28.101562 M 60.101562 28.101562 L 60.101562 31.101562 C 60.101562 31.15625 60.058594 31.203125 60 31.203125 M 60 31.203125 L 54 31.203125 C 53.945312 31.203125 53.898437 31.160156 53.898437 31.101562 M 53.898437 31.101562 L 53.898437 28.101562 C 53.898437 28.15625 53.941406 28.203125 54 28.203125 M 54 28.203125 L 48 28.203125 M 48 28.203125 C 48.054687 28.203125 48.101562 28.160156 48.101562 28.101562 M 48.101562 28.101562 L 48.101562 31.101562 C 48.101562 31.15625 48.058594 31.203125 48 31.203125 M 48 31.203125 L 42 31.203125 C 41.945312 31.203125 41.898437 31.160156 41.898437 31.101562 M 41.898437 31.101562 L 41.898437 28.101562 C 41.898437 28.15625 41.941406 28.203125 42 28.203125 M 42 28.203125 L 36 28.203125 M 36 28.203125 C 36.054687 28.203125 36.101562 28.160156 36.101562 28.101562 M 36.101562 28.101562 L 36.101562 31.101562 C 36.101562 31.15625 36.058594 31.203125 36 31.203125 M 36 31.203125 L 30 31.203125 C 29.945312 31.203125 29.898437 31.160156 29.898437 31.101562 M 29.898437 31.101562 L 29.898437 28.101562 C 29.898437 28.15625 29.941406 28.203125 30 28.203125 M 30 28.203125 L 24 28.203125 M 24 28.203125 C 24.054687 28.203125 24.101562 28.160156 24.101562 28.101562 M 24.101562 28.101562 L 24.101562 31.101562 C 24.101562 31.15625 24.058594 31.203125 24 31.203125 M 24 31.203125 L 18 31.203125 C 17.945312 31.203125 17.898437 31.160156 17.898437 31.101562 M 17.898437 31.101562 L 17.898437 28.101562 C 17.898437 28.15625 17.941406 28.203125 18 28.203125 M 18 28.203125 L 12 28.203125 M 12 28.203125 C 12.054687 28.203125 12.101562 28.160156 12.101562 28.101562 M 12.101562 28.101562 L 12.101562 31.101562 C 12.101562 31.15625 12.058594 31.203125 12 31.203125 M 12 31.203125 L 6 31.203125 C 5.945312 31.203125 5.898437 31.160156 5.898437 31.101562 M 5.898437 31.101562 L 5.898437 28.101562 C 5.898437 28.15625 5.941406 28.203125 6 28.203125 M 6 28.203125 L -0.000000000000007105 28.203125 M -0.000000000000007105 28.203125 L -3 28.203125 C -3.054688 28.203125 -3.101563 28.160156 -3.101563 28.101562 M -3.101563 28.101562 L -3.101563 28.101562 M -3.101563 28.101562 L -3.101563 18.601562 M -3.101563 18.601562 C -3.101563 18.546875 -3.058594 18.5 -3 18.5 M -3 18.5 L -0.000000000000004441 18.5 C -0.0546875 18.5 -0.101563 18.542969 -0.101563 18.601562 M -0.101563 18.601562 L -0.101563 12.601562 C -0.101563 12.65625 -0.0585938 12.703125 -0.000000000000003109 12.703125 M -0.000000000000003109 12.703125 L -3 12.703125 C -3.054688 12.703125 -3.101563 12.660156 -3.101563 12.601562 M -3.101563 12.601562 L -3.101563 3.101562 M -3.101563 3.101562 L -3.101562 0.101562 C -3.101562 0.046875 -3.058594 0 -3 0 M -3 0 L 0 0 " transform="matrix(1,0.000000000000000245,0.000000000000000245,-1,3.851563,9966.449219)"/>
<path style="fill:none;stroke-width:0.2;stroke-linecap:butt;stroke-linejoin:miter;stroke:rgb(0%,0%,0%);stroke-opacity:1;stroke-miterlimit:10;" d="M 0 0 L 6 0 M 6 0 C 5.945312 0 5.898438 0.0429688 5.898438 0.101562 M 5.898438 0.101562 L 5.898438 -2.898438 C 5.898438 -2.953125 5.941406 -3 6 -3 M 6 -3 L 12 -3 C 12.054688 -3 12.101563 -2.957031 12.101563 -2.898438 M 12.101563 -2.898438 L 12.101562 0.101562 C 12.101562 0.046875 12.058594 0 12 0 M 12 0 L 18 0 M 18 0 C 17.945312 0 17.898438 0.0429688 17.898438 0.101562 M 17.898438 0.101562 L 17.898438 -2.898438 C 17.898438 -2.953125 17.941406 -3 18 -3 M 18 -3 L 24 -3 C 24.054688 -3 24.101562 -2.957031 24.101562 -2.898438 M 24.101562 -2.898438 L 24.101562 0.101562 C 24.101562 0.046875 24.058594 0 24 0 M 24 0 L 30 0 M 30 0 C 29.945312 0 29.898437 0.0429688 29.898437 0.101562 M 29.898437 0.101562 L 29.898437 -2.898438 C 29.898437 -2.953125 29.941406 -3 30 -3 M 30 -3 L 36 -3 C 36.054688 -3 36.101562 -2.957031 36.101562 -2.898438 M 36.101562 -2.898438 L 36.101562 0.101562 C 36.101562 0.046875 36.058594 0 36 0 M 36 0 L 42 0 M 42 0 C 41.945312 0 41.898438 0.0429688 41.898438 0.101562 M 41.898438 0.101562 L 41.898438 -2.898438 C 41.898438 -2.953125 41.941406 -3 42 -3 M 42 -3 L 48 -3 C 48.054688 -3 48.101562 -2.957031 48.101562 -2.898438 M 48.101562 -2.898438 L 48.101562 0.101562 C 48.101562 0.046875 48.058594 0 48 0 M 48 0 L 54 0 M 54 0 C 53.945312 0 53.898438 0.0429688 53.898438 0.101562 M 53.898438 0.101562 L 53.898438 -2.898438 C 53.898438 -2.953125 53.941406 -3 54 -3 M 54 -3 L 60 -3 C 60.054688 -3 60.101562 -2.957031 60.101562 -2.898438 M 60.101562 -2.898438 L 60.101562 0.101562 C 60.101562 0.046875 60.058594 0 60 0 M 60 0 L 66 0 M 66 0 C 65.945312 0 65.898438 0.0429688 65.898438 0.101562 M 65.898438 0.101562 L 65.898438 -2.898438 C 65.898438 -2.953125 65.941406 -3 66 -3 M 66 -3 L 72 -3 C 72.054688 -3 72.101562 -2.957031 72.101562 -2.898438 M 72.101562 -2.898438 L 72.101562 0.101562 C 72.101562 0.046875 72.058594 0 72 0 M 72 0 L 78 0 M 78 0 C 77.945312 0 77.898438 0.0429688 77.898438 0.101562 M 77.898438 0.101562 L 77.898438 -2.898438 C 77.898438 -2.953125 77.941406 -3 78 -3 M 78 -3 L 84 -3 C 84.054688 -3 84.101562 -2.957031 84.101562 -2.898438 M 84.101562 -2.898438 L 84.101562 0.101562 C 84.101562 0.046875 84.058594 0 84 0 M 84 0 L 90 0 M 90 0 C 89.945312 0 89.898438 0.0429688 89.898438 0.101562 M 89.898438 0.101562 L 89.898438 -2.898438 C 89.898438 -2.953125 89.941406 -3 90 -3 M 90 -3 L 96 -3 C 96.054688 -3 96.101562 -2.957031 96.101562 -2.898438 M 96.101562 -2.898438 L 96.101562 0.101562 C 96.101562 0.046875 96.058594 0 96 0 M 96 0 L 102 0 M 102 0 C 101.945312 0 101.898438 0.0429688 101.898438 0.101562 M 101.898438 0.101562 L 101.898438 -2.898438 C 101.898438 -2.953125 101.941406 -3 102 -3 M 102 -3 L 108 -3 C 108.054688 -3 108.101562 -2.957031 108.101562 -2.898438 M 108.101562 -2.898438 L 108.101562 0.101562 C 108.101562 0.046875 108.058594 0 108 0 M 108 0 L 114 0 M 114 0 C 113.945312 0 113.898438 0.0429688 113.898438 0.101562 M 113.898438 0.101562 L 113.898438 -2.898438 C 113.898438 -2.953125 113.941406 -3 114 -3 M 114 -3 L 120 -3 C 120.054688 -3 120.101562 -2.957031 120.101562 -2.898438 M 120.101562 -2.898438 L 120.101562 0.101562 C 120.101562 0.046875 120.058594 0 120 0 M 120 0 L 126 0 M 126 0 C 125.945313 0 125.898438 0.0429688 125.898438 0.101562 M 125.898438 0.101562 L 125.898438 -2.898438 C 125.898438 -2.953125 125.941406 -3 126 -3 M 126 -3 L 132 -3 C 132.054688 -3 132.101562 -2.957031 132.101562 -2.898438 M 132.101562 -2.898438 L 132.101562 0.101562 C 132.101562 0.046875 132.058594 0 132 0 M 132 0 L 138 0 M 138 0 C 137.945312 0 137.898438 0.0429688 137.898438 0.101562 M 137.898438 0.101562 L 137.898438 -2.898438 C 137.898438 -2.953125 137.941406 -3 138 -3 M 138 -3 L 144 -3 C 144.054688 -3 144.101562 -2.957031 144.101562 -2.898438 M 144.101562 -2.898438 L 144.101562 0.101562 C 144.101562 0.046875 144.058594 0 144 0 M 144 0 L 150 0 M 150 0 C 150.054688 0 150.101562 0.0429688 150.101562 0.101562 M 150.101562 0.101562 L 150.101562 0.101562 M 150.101562 0.101562 L 150.101562 9.601562 M 150.101562 9.601562 C 150.101562 9.546875 150.058594 9.5 150 9.5 M 150 9.5 L 153 9.5 C 153.054687 9.5 153.101562 9.542969 153.101562 9.601562 M 153.101562 9.601562 L 153.101562 15.601562 C 153.101562 15.65625 153.058594 15.703125 153 15.703125 M 153 15.703125 L 150 15.703125 C 150.054687 15.703125 150.101562 15.660156 150.101562 15.601562 M 150.101562 15.601562 L 150.101562 21.601562 M 150.101562 21.601562 C 150.101562 21.546875 150.058594 21.5 150 21.5 M 150 21.5 L 153 21.5 C 153.054687 21.5 153.101562 21.542969 153.101562 21.601562 M 153.101562 21.601562 L 153.101562 27.601562 C 153.101562 27.65625 153.058594 27.703125 153 27.703125 M 153 27.703125 L 150 27.703125 C 150.054687 27.703125 150.101562 27.660156 150.101562 27.601562 M 150.101562 27.601562 L 150.101562 33.601562 M 150.101562 33.601562 C 150.101562 33.546875 150.058594 33.5 150 33.5 M 150 33.5 L 153 33.5 C 153.054687 33.5 153.101562 33.542969 153.101562 33.601562 M 153.101562 33.601562 L 153.101562 39.601562 C 153.101562 39.65625 153.058594 39.703125 153 39.703125 M 153 39.703125 L 150 39.703125 C 150.054687 39.703125 150.101562 39.660156 150.101562 39.601562 M 150.101562 39.601562 L 150.101562 45.601562 M 150.101562 45.601562 C 150.101562 45.546875 150.058594 45.5 150 45.5 M 150 45.5 L 153 45.5 C 153.054687 45.5 153.101562 45.542969 153.101562 45.601562 M 153.101562 45.601562 L 153.101562 51.601562 C 153.101562 51.65625 153.058594 51.703125 153 51.703125 M 153 51.703125 L 150 51.703125 C 150.054687 51.703125 150.101562 51.660156 150.101562 51.601562 M 150.101562 51.601562 L 150.101562 57.601562 M 150.101562 57.601562 C 150.101562 57.546875 150.058594 57.5 150 57.5 M 150 57.5 L 153 57.5 C 153.054687 57.5 153.101562 57.542969 153.101562 57.601562 M 153.101562 57.601562 L 153.101562 63.601562 C 153.101562 63.65625 153.058594 63.703125 153 63.703125 M 153 63.703125 L 150 63.703125 C 150.054687 63.703125 150.101562 63.660156 150.101562 63.601562 M 150.101562 63.601562 L 150.101562 69.601562 M 150.101562 69.601562 C 150.101562 69.546875 150.058594 69.5 150 69.5 M 150 69.5 L 153 69.5 C 153.054687 69.5 153.101562 69.542969 153.101562 69.601562 M 153.101562 69.601562 L 153.101562 75.601562 C 153.101562 75.65625 153.058594 75.703125 153 75.703125 M 153 75.703125 L 150 75.703125 C 150.054687 75.703125 150.101562 75.660156 150.101562 75.601562 M 150.101562 75.601562 L 150.101562 85.101562 M 150.101562 85.101562 C 150.101562 85.15625 150.058594 85.203125 150 85.203125 M 150 85.203125 L 150 85.203125 M 150 85.203125 L 144 85.203125 M 144 85.203125 C 144.054687 85.203125 144.101562 85.160156 144.101562 85.101562 M 144.101562 85.101562 L 144.101562 88.101562 C 144.101562 88.15625 144.058594 88.203125 144 88.203125 M 144 88.203125 L 138 88.203125 C 137.945312 88.203125 137.898437 88.160156 137.898437 88.101562 M 137.898437 88.101562 L 137.898437 85.101562 C 137.898437 85.15625 137.941406 85.203125 138 85.203125 M 138 85.203125 L 132 85.203125 M 132 85.203125 C 132.054687 85.203125 132.101562 85.160156 132.101562 85.101562 M 132.101562 85.101562 L 132.101562 88.101562 C 132.101562 88.15625 132.058594 88.203125 132 88.203125 M 132 88.203125 L 126 88.203125 C 125.945312 88.203125 125.898437 88.160156 125.898437 88.101562 M 125.898437 88.101562 L 125.898437 85.101562 C 125.898437 85.15625 125.941406 85.203125 126 85.203125 M 126 85.203125 L 120 85.203125 M 120 85.203125 C 120.054687 85.203125 120.101562 85.160156 120.101562 85.101562 M 120.101562 85.101562 L 120.101562 88.101562 C 120.101562 88.15625 120.058594 88.203125 120 88.203125 M 120 88.203125 L 114 88.203125 C 113.945312 88.203125 113.898437 88.160156 113.898437 88.101562 M 113.898437 88.101562 L 113.898437 85.101562 C 113.898437 85.15625 113.941406 85.203125 114 85.203125 M 114 85.203125 L 108 85.203125 M 108 85.203125 C 108.054687 85.203125 108.101562 85.160156 108.101562 85.101562 M 108.101562 85.101562 L 108.101562 88.101562 C 108.101562 88.15625 108.058594 88.203125 108 88.203125 M 108 88.203125 L 102 88.203125 C 101.945312 88.203125 101.898437 88.160156 101.898437 88.101562 M 101.898437 88.101562 L 101.898437 85.101562 C 101.898437 85.15625 101.941406 85.203125 102 85.203125 M 102 85.203125 L 96 85.203125 M 96 85.203125 C 96.054687 85.203125 96.101562 85.160156 96.101562 85.101562 M 96.101562 85.101562 L 96.101562 88.101562 C 96.101562 88.15625 96.058594 88.203125 96 88.203125 M 96 88.203125 L 90 88.203125 C 89.945312 88.203125 89.898437 88.160156 89.898437 88.101562 M 89.898437 88.101562 L 89.898437 85.101562 C 89.898437 85.15625 89.941406 85.203125 90 85.203125 M 90 85.203125 L 84 85.203125 M 84 85.203125 C 84.054687 85.203125 84.101562 85.160156 84.101562 85.101562 M 84.101562 85.101562 L 84.101562 88.101562 C 84.101562 88.15625 84.058594 88.203125 84 88.203125 M 84 88.203125 L 78 88.203125 C 77.945312 88.203125 77.898437 88.160156 77.898437 88.101562 M 77.898437 88.101562 L 77.898437 85.101562 C 77.898437 85.15625 77.941406 85.203125 78 85.203125 M 78 85.203125 L 72 85.203125 M 72 85.203125 C 72.054687 85.203125 72.101562 85.160156 72.101562 85.101562 M 72.101562 85.101562 L 72.101562 88.101562 C 72.101562 88.15625 72.058594 88.203125 72 88.203125 M 72 88.203125 L 66 88.203125 C 65.945312 88.203125 65.898437 88.160156 65.898437 88.101562 M 65.898437 88.101562 L 65.898437 85.101562 C 65.898437 85.15625 65.941406 85.203125 66 85.203125 M 66 85.203125 L 60 85.203125 M 60 85.203125 C 60.054687 85.203125 60.101562 85.160156 60.101562 85.101562 M 60.101562 85.101562 L 60.101562 88.101562 C 60.101562 88.15625 60.058594 88.203125 60 88.203125 M 60 88.203125 L 54 88.203125 C 53.945312 88.203125 53.898437 88.160156 53.898437 88.101562 M 53.898437 88.101562 L 53.898437 85.101562 C 53.898437 85.15625 53.941406 85.203125 54 85.203125 M 54 85.203125 L 48 85.203125 M 48 85.203125 C 48.054687 85.203125 48.101562 85.160156 48.101562 85.101562 M 48.101562 85.101562 L 48.101562 88.101562 C 48.101562 88.15625 48.058594 88.203125 48 88.203125 M 48 88.203125 L 42 88.203125 C 41.945312 88.203125 41.898437 88.160156 41.898437 88.101562 M 41.898437 88.101562 L 41.898437 85.101562 C 41.898437 85.15625 41.941406 85.203125 42 85.203125 M 42 85.203125 L 36 85.203125 M 36 85.203125 C 36.054687 85.203125 36.101562 85.160156 36.101562 85.101562 M 36.101562 85.101562 L 36.101562 88.101562 C 36.101562 88.15625 36.058594 88.203125 36 88.203125 M 36 88.203125 L 30 88.203125 C 29.945312 88.203125 29.898437 88.160156 29.898437 88.101562 M 29.898437 88.101562 L 29.898437 85.101562 C 29.898437 85.15625 29.941406 85.203125 30 85.203125 M 30 85.203125 L 24 85.203125 M 24 85.203125 C 24.054687 85.203125 24.101562 85.160156 24.101562 85.101562 M 24.101562 85.101562 L 24.101562 88.101562 C 24.101562 88.15625 24.058594 88.203125 24 88.203125 M 24 88.203125 L 18 88.203125 C 17.945312 88.203125 17.898437 88.160156 17.898437 88.101562 M 17.898437 88.101562 L 17.898437 85.101562 C 17.898437 85.15625 17.941406 85.203125 18 85.203125 M 18 85.203125 L 12 85.203125 M 12 85.203125 C 12.054687 85.203125 12.101562 85.160156 12.101562 85.101562 M 12.101562 85.101562 L 12.101562 88.101562 C 12.101562 88.15625 12.058594 88.203125 12 88.203125 M 12 88.203125 L 6 88.203125 C 5.945312 88.203125 5.898437 88.160156 5.898437 88.101562 M 5.898437 88.101562 L 5.898437 85.101562 C 5.898437 85.15625 5.941406 85.203125 6 85.203125 M 6 85.203125 L -0.000000000000020872 85.203125 M -0.000000000000020872 85.203125 C -0.0546875 85.203125 -0.101563 85.160156 -0.101563 85.101562 M -0.101563 85.101562 L -0.101563 85.101562 M -0.101563 85.101562 L -0.101563 75.601562 M -0.101563 75.601562 C -0.101563 75.65625 -0.0585938 75.703125 -0.000000000000018652 75.703125 M -0.000000000000018652 75.703125 L -3 75.703125 C -3.054688 75.703125 -3.101563 75.660156 -3.101563 75.601562 M -3.101563 75.601562 L -3.101563 69.601562 C -3.101563 69.546875 -3.058594 69.5 -3 69.5 M -3 69.5 L -0.000000000000016875 69.5 C -0.0546875 69.5 -0.101563 69.542969 -0.101563 69.601562 M -0.101563 69.601562 L -0.101563 63.601562 M -0.101563 63.601562 C -0.101563 63.65625 -0.0585938 63.703125 -0.000000000000015543 63.703125 M -0.000000000000015543 63.703125 L -3 63.703125 C -3.054688 63.703125 -3.101563 63.660156 -3.101563 63.601562 M -3.101563 63.601562 L -3.101563 57.601562 C -3.101563 57.546875 -3.058594 57.5 -3 57.5 M -3 57.5 L -0.000000000000014211 57.5 C -0.0546875 57.5 -0.101563 57.542969 -0.101563 57.601562 M -0.101563 57.601562 L -0.101563 51.601562 M -0.101563 51.601562 C -0.101563 51.65625 -0.0585938 51.703125 -0.000000000000012434 51.703125 M -0.000000000000012434 51.703125 L -3 51.703125 C -3.054688 51.703125 -3.101563 51.660156 -3.101563 51.601562 M -3.101563 51.601562 L -3.101563 45.601562 C -3.101563 45.546875 -3.058594 45.5 -3 45.5 M -3 45.5 L -0.000000000000011102 45.5 C -0.0546875 45.5 -0.101563 45.542969 -0.101563 45.601562 M -0.101563 45.601562 L -0.101563 39.601562 M -0.101563 39.601562 C -0.101563 39.65625 -0.0585938 39.703125 -0.00000000000000977 39.703125 M -0.00000000000000977 39.703125 L -3 39.703125 C -3.054688 39.703125 -3.101563 39.660156 -3.101563 39.601562 M -3.101563 39.601562 L -3.101563 33.601562 C -3.101563 33.546875 -3.058594 33.5 -3 33.5 M -3 33.5 L -0.000000000000007994 33.5 C -0.0546875 33.5 -0.101563 33.542969 -0.101563 33.601562 M -0.101563 33.601562 L -0.101563 27.601562 M -0.101563 27.601562 C -0.101563 27.65625 -0.0585938 27.703125 -0.000000000000006661 27.703125 M -0.000000000000006661 27.703125 L -3 27.703125 C -3.054688 27.703125 -3.101563 27.660156 -3.101563 27.601562 M -3.101563 27.601562 L -3.101563 21.601562 C -3.101563 21.546875 -3.058594 21.5 -3 21.5 M -3 21.5 L -0.000000000000005329 21.5 C -0.0546875 21.5 -0.101563 21.542969 -0.101563 21.601562 M -0.101563 21.601562 L -0.101563 15.601562 M -0.101563 15.601562 C -0.101563 15.65625 -0.0585938 15.703125 -0.000000000000003997 15.703125 M -0.000000000000003997 15.703125 L -3 15.703125 C -3.054688 15.703125 -3.101563 15.660156 -3.101563 15.601562 M -3.101563 15.601562 L -3.101563 9.601562 C -3.101563 9.546875 -3.058594 9.5 -3 9.5 M -3 9.5 L -0.00000000000000222 9.5 C -0.0546875 9.5 -0.101563 9.542969 -0.101563 9.601562 M -0.101563 9.601562 L -0.101562 0.101562 M -0.101562 0.101562 C -0.101562 0.046875 -0.0585938 0 0 0 M 0 0 L 0 0 " transform="matrix(1,0.000000000000000245,0.000000000000000245,-1,3.851563,9930.75)"/>
<path style="fill:none;stroke-width:0.2;stroke-linecap:butt;stroke-linejoin:miter;stroke:rgb(100%,0%,0%);stroke-opacity:1;stroke-miterlimit:10;" d="M 6.097656 6.101562 L 6.097656 15.601562 M 6.097656 15.601562 C 6.097656 15.65625 6.054687 15.703125 5.996094 15.703125 M 5.996094 15.703125 L 2.996094 15.703125 C 3.050781 15.703125 3.097656 15.660156 3.097656 15.601562 M 3.097656 15.601562 L 3.097656 21.601562 C 3.097656 21.546875 3.054687 21.5 2.996094 21.5 M 2.996094 21.5 L 5.996094 21.5 C 6.050781 21.5 6.097656 21.542969 6.097656 21.601562 M 6.097656 21.601562 L 6.097656 27.601562 M 6.097656 27.601562 C 6.097656 27.65625 6.054687 27.703125 5.996094 27.703125 M 5.996094 27.703125 L 2.996094 27.703125 C 3.050781 27.703125 3.097656 27.660156 3.097656 27.601562 M 3.097656 27.601562 L 3.097656 33.601562 C 3.097656 33.546875 3.054687 33.5 2.996094 33.5 M 2.996094 33.5 L 5.996094 33.5 C 6.050781 33.5 6.097656 33.542969 6.097656 33.601562 M 6.097656 33.601562 L 6.097656 39.601562 M 6.097656 39.601562 C 6.097656 39.65625 6.054687 39.703125 5.996094 39.703125 M 5.996094 39.703125 L 2.996094 39.703125 C 3.050781 39.703125 3.097656 39.660156 3.097656 39.601562 M 3.097656 39.601562 L 3.097656 45.601562 C 3.097656 45.546875 3.054687 45.5 2.996094 45.5 M 2.996094 45.5 L 5.996094 45.5 C 6.050781 45.5 6.097656 45.542969 6.097656 45.601562 M 6.097656 45.601562 L 6.097656 51.601562 M 6.097656 51.601562 C 6.097656 51.65625 6.054687 51.703125 5.996094 51.703125 M 5.996094 51.703125 L 2.996094 51.703125 C 3.050781 51.703125 3.097656 51.660156 3.097656 51.601562 M 3.097656 51.601562 L 3.097656 57.601562 C 3.097656 57.546875 3.054687 57.5 2.996094 57.5 M 2.996094 57.5 L 5.996094 57.5 C 6.050781 57.5 6.097656 57.542969 6.097656 57.601562 M 6.097656 57.601562 L 6.097656 63.601562 M 6.097656 63.601562 C 6.097656 63.65625 6.054687 63.703125 5.996094 63.703125 M 5.996094 63.703125 L 2.996094 63.703125 C 3.050781 63.703125 3.097656 63.660156 3.097656 63.601562 M 3.097656 63.601562 L 3.097656 69.601562 C 3.097656 69.546875 3.054687 69.5 2.996094 69.5 M 2.996094 69.5 L 5.996094 69.5 C 6.050781 69.5 6.097656 69.542969 6.097656 69.601562 M 6.097656 69.601562 L 6.097656 75.601562 M 6.097656 75.601562 C 6.097656 75.65625 6.054687 75.703125 5.996094 75.703125 M 5.996094 75.703125 L 2.996094 75.703125 C 3.050781 75.703125 3.097656 75.660156 3.097656 75.601562 M 3.097656 75.601562 L 3.097656 81.601562 C 3.097656 81.546875 3.054687 81.5 2.996094 81.5 M 2.996094 81.5 L 5.996094 81.5 C 6.050781 81.5 6.097656 81.542969 6.097656 81.601562 M 6.097656 81.601562 L 6.097656 91.101562 C 6.097656 91.046875 6.054687 91 5.996094 91 M 5.996094 91 L 11.996094 91 M 11.996094 91 C 12.050781 91 12.097656 91.042969 12.097656 91.101562 M 12.097656 91.101562 L 12.097656 94.101562 C 12.097656 94.046875 12.054687 94 11.996094 94 M 11.996094 94 L 17.996094 94 C 17.941406 94 17.894531 94.042969 17.894531 94.101562 M 17.894531 94.101562 L 17.894531 91.101562 C 17.894531 91.046875 17.9375 91 17.996094 91 M 17.996094 91 L 23.996094 91 M 23.996094 91 C 24.050781 91 24.097656 91.042969 24.097656 91.101562 M 24.097656 91.101562 L 24.097656 94.101562 C 24.097656 94.046875 24.054687 94 23.996094 94 M 23.996094 94 L 29.996094 94 C 29.941406 94 29.894531 94.042969 29.894531 94.101562 M 29.894531 94.101562 L 29.894531 91.101562 C 29.894531 91.046875 29.9375 91 29.996094 91 M 29.996094 91 L 35.996094 91 M 35.996094 91 C 36.050781 91 36.097656 91.042969 36.097656 91.101562 M 36.097656 91.101562 L 36.097656 94.101562 C 36.097656 94.046875 36.054687 94 35.996094 94 M 35.996094 94 L 41.996094 94 C 41.941406 94 41.894531 94.042969 41.894531 94.101562 M 41.894531 94.101562 L 41.894531 91.101562 C 41.894531 91.046875 41.9375 91 41.996094 91 M 41.996094 91 L 47.996094 91 M 47.996094 91 C 48.050781 91 48.097656 91.042969 48.097656 91.101562 M 48.097656 91.101562 L 48.097656 94.101562 C 48.097656 94.046875 48.054687 94 47.996094 94 M 47.996094 94 L 53.996094 94 C 53.941406 94 53.894531 94.042969 53.894531 94.101562 M 53.894531 94.101562 L 53.894531 91.101562 C 53.894531 91.046875 53.9375 91 53.996094 91 M 53.996094 91 L 59.996094 91 M 59.996094 91 C 60.050781 91 60.097656 91.042969 60.097656 91.101562 M 60.097656 91.101562 L 60.097656 94.101562 C 60.097656 94.046875 60.054687 94 59.996094 94 M 59.996094 94 L 65.996094 94 C 65.941406 94 65.894531 94.042969 65.894531 94.101562 M 65.894531 94.101562 L 65.894531 91.101562 C 65.894531 91.046875 65.9375 91 65.996094 91 M 65.996094 91 L 71.996094 91 M 71.996094 91 C 72.050781 91 72.097656 91.042969 72.097656 91.101562 M 72.097656 91.101562 L 72.097656 94.101562 C 72.097656 94.046875 72.054687 94 71.996094 94 M 71.996094 94 L 77.996094 94 C 77.941406 94 77.894531 94.042969 77.894531 94.101562 M 77.894531 94.101562 L 77.894531 91.101562 C 77.894531 91.046875 77.9375 91 77.996094 91 M 77.996094 91 L 83.996094 91 M 83.996094 91 C 84.050781 91 84.097656 91.042969 84.097656 91.101562 M 84.097656 91.101562 L 84.097656 94.101562 C 84.097656 94.046875 84.054687 94 83.996094 94 M 83.996094 94 L 89.996094 94 C 89.941406 94 89.894531 94.042969 89.894531 94.101562 M 89.894531 94.101562 L 89.894531 91.101562 C 89.894531 91.046875 89.9375 91 89.996094 91 M 89.996094 91 L 95.996094 91 M 95.996094 91 C 96.050781 91 96.097656 91.042969 96.097656 91.101562 M 96.097656 91.101562 L 96.097656 94.101562 C 96.097656 94.046875 96.054687 94 95.996094 94 M 95.996094 94 L 101.996094 94 C 101.941406 94 101.894531 94.042969 101.894531 94.101562 M 101.894531 94.101562 L 101.894531 91.101562 C 101.894531 91.046875 101.9375 91 101.996094 91 M 101.996094 91 L 107.996094 91 M 107.996094 91 C 108.050781 91 108.097656 91.042969 108.097656 91.101562 M 108.097656 91.101562 L 108.097656 94.101562 C 108.097656 94.046875 108.054687 94 107.996094 94 M 107.996094 94 L 113.996094 94 C 113.941406 94 113.894531 94.042969 113.894531 94.101562 M 113.894531 94.101562 L 113.894531 91.101562 C 113.894531 91.046875 113.9375 91 113.996094 91 M 113.996094 91 L 119.996094 91 M 119.996094 91 C 120.050781 91 120.097656 91.042969 120.097656 91.101562 M 120.097656 91.101562 L 120.097656 94.101562 C 120.097656 94.046875 120.054687 94 119.996094 94 M 119.996094 94 L 125.996094 94 C 125.941406 94 125.894531 94.042969 125.894531 94.101562 M 125.894531 94.101562 L 125.894531 91.101562 C 125.894531 91.046875 125.9375 91 125.996094 91 M 125.996094 91 L 131.996094 91 M 131.996094 91 C 132.050781 91 132.097656 91.042969 132.097656 91.101562 M 132.097656 91.101562 L 132.097656 94.101562 C 132.097656 94.046875 132.054687 94 131.996094 94 M 131.996094 94 L 137.996094 94 C 137.941406 94 137.894531 94.042969 137.894531 94.101562 M 137.894531 94.101562 L 137.894531 91.101562 C 137.894531 91.046875 137.9375 91 137.996094 91 M 137.996094 91 L 143.996094 91 M 143.996094 91 C 144.050781 91 144.097656 91.042969 144.097656 91.101562 M 144.097656 91.101562 L 144.097656 94.101562 C 144.097656 94.046875 144.054687 94 143.996094 94 M 143.996094 94 L 149.996094 94 C 149.941406 94 149.894531 94.042969 149.894531 94.101562 M 149.894531 94.101562 L 149.894531 91.101562 C 149.894531 91.046875 149.9375 91 149.996094 91 M 149.996094 91 L 155.996094 91 C 155.941406 91 155.894531 91.042969 155.894531 91.101562 M 155.894531 91.101562 L 155.894531 81.601562 M 155.894531 81.601562 C 155.894531 81.546875 155.9375 81.5 155.996094 81.5 M 155.996094 81.5 L 158.996094 81.5 C 158.941406 81.5 158.894531 81.542969 158.894531 81.601562 M 158.894531 81.601562 L 158.894531 75.601562 C 158.894531 75.65625 158.9375 75.703125 158.996094 75.703125 M 158.996094 75.703125 L 155.996094 75.703125 C 155.941406 75.703125 155.894531 75.660156 155.894531 75.601562 M 155.894531 75.601562 L 155.894531 69.601562 M 155.894531 69.601562 C 155.894531 69.546875 155.9375 69.5 155.996094 69.5 M 155.996094 69.5 L 158.996094 69.5 C 158.941406 69.5 158.894531 69.542969 158.894531 69.601562 M 158.894531 69.601562 L 158.894531 63.601562 C 158.894531 63.65625 158.9375 63.703125 158.996094 63.703125 M 158.996094 63.703125 L 155.996094 63.703125 C 155.941406 63.703125 155.894531 63.660156 155.894531 63.601562 M 155.894531 63.601562 L 155.894531 57.601562 M 155.894531 57.601562 C 155.894531 57.546875 155.9375 57.5 155.996094 57.5 M 155.996094 57.5 L 158.996094 57.5 C 158.941406 57.5 158.894531 57.542969 158.894531 57.601562 M 158.894531 57.601562 L 158.894531 51.601562 C 158.894531 51.65625 158.9375 51.703125 158.996094 51.703125 M 158.996094 51.703125 L 155.996094 51.703125 C 155.941406 51.703125 155.894531 51.660156 155.894531 51.601562 M 155.894531 51.601562 L 155.894531 45.601562 M 155.894531 45.601562 C 155.894531 45.546875 155.9375 45.5 155.996094 45.5 M 155.996094 45.5 L 158.996094 45.5 C 158.941406 45.5 158.894531 45.542969 158.894531 45.601562 M 158.894531 45.601562 L 158.894531 39.601562 C 158.894531 39.65625 158.9375 39.703125 158.996094 39.703125 M 158.996094 39.703125 L 155.996094 39.703125 C 155.941406 39.703125 155.894531 39.660156 155.894531 39.601562 M 155.894531 39.601562 L 155.894531 33.601562 M 155.894531 33.601562 C 155.894531 33.546875 155.9375 33.5 155.996094 33.5 M 155.996094 33.5 L 158.996094 33.5 C 158.941406 33.5 158.894531 33.542969 158.894531 33.601562 M 158.894531 33.601562 L 158.894531 27.601562 C 158.894531 27.65625 158.9375 27.703125 158.996094 27.703125 M 158.996094 27.703125 L 155.996094 27.703125 C 155.941406 27.703125 155.894531 27.660156 155.894531 27.601562 M 155.894531 27.601562 L 155.894531 21.601562 M 155.894531 21.601562 C 155.894531 21.546875 155.9375 21.5 155.996094 21.5 M 155.996094 21.5 L 158.996094 21.5 C 158.941406 21.5 158.894531 21.542969 158.894531 21.601562 M 158.894531 21.601562 L 158.894531 15.601562 C 158.894531 15.65625 158.9375 15.703125 158.996094 15.703125 M 158.996094 15.703125 L 155.996094 15.703125 C 155.941406 15.703125 155.894531 15.660156 155.894531 15.601562 M 155.894531 15.601562 L 155.894531 6.101562 C 155.894531 6.15625 155.9375 6.203125 155.996094 6.203125 M 155.996094 6.203125 L 149.996094 6.203125 M 149.996094 6.203125 C 149.941406 6.203125 149.894531 6.160156 149.894531 6.101562 M 149.894531 6.101562 L 149.894531 3.101562 C 149.894531 3.15625 149.9375 3.203125 149.996094 3.203125 M 149.996094 3.203125 L 143.996094 3.203125 C 144.050781 3.203125 144.097656 3.160156 144.097656 3.101562 M 144.097656 3.101562 L 144.097656 6.101562 C 144.097656 6.15625 144.054688 6.203125 143.996094 6.203125 M 143.996094 6.203125 L 137.996094 6.203125 M 137.996094 6.203125 C 137.941406 6.203125 137.894531 6.160156 137.894531 6.101562 M 137.894531 6.101562 L 137.894531 3.101562 C 137.894531 3.15625 137.9375 3.203125 137.996094 3.203125 M 137.996094 3.203125 L 131.996094 3.203125 C 132.050781 3.203125 132.097656 3.160156 132.097656 3.101562 M 132.097656 3.101562 L 132.097656 6.101562 C 132.097656 6.15625 132.054688 6.203125 131.996094 6.203125 M 131.996094 6.203125 L 125.996094 6.203125 M 125.996094 6.203125 C 125.941406 6.203125 125.894531 6.160156 125.894531 6.101562 M 125.894531 6.101562 L 125.894531 3.101562 C 125.894531 3.15625 125.9375 3.203125 125.996094 3.203125 M 125.996094 3.203125 L 119.996094 3.203125 C 120.050781 3.203125 120.097656 3.160156 120.097656 3.101562 M 120.097656 3.101562 L 120.097656 6.101562 C 120.097656 6.15625 120.054688 6.203125 119.996094 6.203125 M 119.996094 6.203125 L 113.996094 6.203125 M 113.996094 6.203125 C 113.941406 6.203125 113.894531 6.160156 113.894531 6.101562 M 113.894531 6.101562 L 113.894531 3.101562 C 113.894531 3.15625 113.9375 3.203125 113.996094 3.203125 M 113.996094 3.203125 L 107.996094 3.203125 C 108.050781 3.203125 108.097656 3.160156 108.097656 3.101562 M 108.097656 3.101562 L 108.097656 6.101562 C 108.097656 6.15625 108.054688 6.203125 107.996094 6.203125 M 107.996094 6.203125 L 101.996094 6.203125 M 101.996094 6.203125 C 101.941406 6.203125 101.894531 6.160156 101.894531 6.101562 M 101.894531 6.101562 L 101.894531 3.101562 C 101.894531 3.15625 101.9375 3.203125 101.996094 3.203125 M 101.996094 3.203125 L 95.996094 3.203125 C 96.050781 3.203125 96.097656 3.160156 96.097656 3.101562 M 96.097656 3.101562 L 96.097656 6.101562 C 96.097656 6.15625 96.054688 6.203125 95.996094 6.203125 M 95.996094 6.203125 L 89.996094 6.203125 M 89.996094 6.203125 C 89.941406 6.203125 89.894531 6.160156 89.894531 6.101562 M 89.894531 6.101562 L 89.894531 3.101562 C 89.894531 3.15625 89.9375 3.203125 89.996094 3.203125 M 89.996094 3.203125 L 83.996094 3.203125 C 84.050781 3.203125 84.097656 3.160156 84.097656 3.101562 M 84.097656 3.101562 L 84.097656 6.101562 C 84.097656 6.15625 84.054688 6.203125 83.996094 6.203125 M 83.996094 6.203125 L 77.996094 6.203125 M 77.996094 6.203125 C 77.941406 6.203125 77.894531 6.160156 77.894531 6.101562 M 77.894531 6.101562 L 77.894531 3.101562 C 77.894531 3.15625 77.9375 3.203125 77.996094 3.203125 M 77.996094 3.203125 L 71.996094 3.203125 C 72.050781 3.203125 72.097656 3.160156 72.097656 3.101562 M 72.097656 3.101562 L 72.097656 6.101562 C 72.097656 6.15625 72.054688 6.203125 71.996094 6.203125 M 71.996094 6.203125 L 65.996094 6.203125 M 65.996094 6.203125 C 65.941406 6.203125 65.894531 6.160156 65.894531 6.101562 M 65.894531 6.101562 L 65.894531 3.101562 C 65.894531 3.15625 65.9375 3.203125 65.996094 3.203125 M 65.996094 3.203125 L 59.996094 3.203125 C 60.050781 3.203125 60.097656 3.160156 60.097656 3.101562 M 60.097656 3.101562 L 60.097656 6.101562 C 60.097656 6.15625 60.054688 6.203125 59.996094 6.203125 M 59.996094 6.203125 L 53.996094 6.203125 M 53.996094 6.203125 C 53.941406 6.203125 53.894531 6.160156 53.894531 6.101562 M 53.894531 6.101562 L 53.894531 3.101562 C 53.894531 3.15625 53.9375 3.203125 53.996094 3.203125 M 53.996094 3.203125 L 47.996094 3.203125 C 48.050781 3.203125 48.097656 3.160156 48.097656 3.101562 M 48.097656 3.101562 L 48.097656 6.101562 C 48.097656 6.15625 48.054688 6.203125 47.996094 6.203125 M 47.996094 6.203125 L 41.996094 6.203125 M 41.996094 6.203125 C 41.941406 6.203125 41.894531 6.160156 41.894531 6.101562 M 41.894531 6.101562 L 41.894531 3.101562 C 41.894531 3.15625 41.9375 3.203125 41.996094 3.203125 M 41.996094 3.203125 L 35.996094 3.203125 C 36.050781 3.203125 36.097656 3.160156 36.097656 3.101562 M 36.097656 3.101562 L 36.097656 6.101562 C 36.097656 6.15625 36.054688 6.203125 35.996094 6.203125 M 35.996094 6.203125 L 29.996094 6.203125 M 29.996094 6.203125 C 29.941406 6.203125 29.894531 6.160156 29.894531 6.101562 M 29.894531 6.101562 L 29.894531 3.101562 C 29.894531 3.15625 29.9375 3.203125 29.996094 3.203125 M 29.996094 3.203125 L 23.996094 3.203125 C 24.050781 3.203125 24.097656 3.160156 24.097656 3.101562 M 24.097656 3.101562 L 24.097656 6.101562 C 24.097656 6.15625 24.054688 6.203125 23.996094 6.203125 M 23.996094 6.203125 L 17.996094 6.203125 M 17.996094 6.203125 C 17.941406 6.203125 17.894531 6.160156 17.894531 6.101562 M 17.894531 6.101562 L 17.894531 3.101562 C 17.894531 3.15625 17.9375 3.203125 17.996094 3.203125 M 17.996094 3.203125 L 11.996094 3.203125 C 12.050781 3.203125 12.097656 3.160156 12.097656 3.101562 M 12.097656 3.101562 L 12.097656 6.101562 C 12.097656 6.15625 12.054687 6.203125 11.996094 6.203125 M 11.996094 6.203125 L 5.996094 6.203125 C 6.050781 6.203125 6.097656 6.160156 6.097656 6.101562 M 0 0 L 162 0 M 162 0 C 162.054688 0 162.101562 0.0429688 162.101562 0.101562 M 162.101562 0.101562 L 162.101562 0.101562 M 162.101562 0.101562 L 162.101562 97.101562 M 162.101562 97.101562 C 162.101562 97.15625 162.058594 97.203125 162 97.203125 M 162 97.203125 L 162 97.203125 M 162 97.203125 L -0.00000000000002387 97.203125 M -0.00000000000002387 97.203125 C -0.0546875 97.203125 -0.101563 97.160156 -0.101563 97.101562 M -0.101563 97.101562 L -0.101563 97.101562 M -0.101563 97.101562 L -0.101563 0.101562 M -0.101563 0.101562 C -0.101562 0.046875 -0.0585938 0 0 0 M 0 0 L 0 0 " transform="matrix(1,0.000000000000000245,0.000000000000000245,-1,0.851562,9841.050781)"/>
<path style="fill:none;stroke-width:0.2;stroke-linecap:butt;stroke-linejoin:miter;stroke:rgb(0%,0%,0%);stroke-opacity:1;stroke-miterlimit:10;" d="M 0 0 L 6 0 M 6 0 C 6.054688 0 6.101562 0.0429688 6.101562 0.101562 M 6.101562 0.101562 L 6.101562 3.101562 C 6.101562 3.046875 6.058594 3 6 3 M 6 3 L 12 3 C 11.945312 3 11.898438 3.042969 11.898438 3.101562 M 11.898438 3.101562 L 11.898438 0.101562 C 11.898438 0.046875 11.941406 0 12 0 M 12 0 L 18 0 M 18 0 C 18.054688 0 18.101562 0.0429688 18.101562 0.101562 M 18.101562 0.101562 L 18.101562 3.101562 C 18.101562 3.046875 18.058594 3 18 3 M 18 3 L 24 3 C 23.945312 3 23.898437 3.042969 23.898437 3.101562 M 23.898437 3.101562 L 23.898438 0.101562 C 23.898438 0.046875 23.941406 0 24 0 M 24 0 L 30 0 M 30 0 C 30.054688 0 30.101562 0.0429688 30.101562 0.101562 M 30.101562 0.101562 L 30.101562 3.101562 C 30.101562 3.046875 30.058594 3 30 3 M 30 3 L 36 3 C 35.945312 3 35.898438 3.042969 35.898438 3.101562 M 35.898438 3.101562 L 35.898438 0.101562 C 35.898438 0.046875 35.941406 0 36 0 M 36 0 L 42 0 M 42 0 C 42.054688 0 42.101562 0.0429688 42.101562 0.101562 M 42.101562 0.101562 L 42.101562 3.101562 C 42.101562 3.046875 42.058594 3 42 3 M 42 3 L 48 3 C 47.945312 3 47.898438 3.042969 47.898438 3.101562 M 47.898438 3.101562 L 47.898438 0.101562 C 47.898438 0.046875 47.941406 0 48 0 M 48 0 L 54 0 M 54 0 C 54.054688 0 54.101562 0.0429688 54.101562 0.101562 M 54.101562 0.101562 L 54.101562 3.101562 C 54.101562 3.046875 54.058594 3 54 3 M 54 3 L 60 3 C 59.945312 3 59.898438 3.042969 59.898438 3.101562 M 59.898438 3.101562 L 59.898438 0.101562 C 59.898438 0.046875 59.941406 0 60 0 M 60 0 L 66 0 M 66 0 C 66.054688 0 66.101562 0.0429688 66.101562 0.101562 M 66.101562 0.101562 L 66.101562 3.101562 C 66.101562 3.046875 66.058594 3 66 3 M 66 3 L 72 3 C 71.945312 3 71.898438 3.042969 71.898438 3.101562 M 71.898438 3.101562 L 71.898438 0.101562 C 71.898438 0.046875 71.941406 0 72 0 M 72 0 L 78 0 M 78 0 C 78.054688 0 78.101562 0.0429688 78.101562 0.101562 M 78.101562 0.101562 L 78.101562 3.101562 C 78.101562 3.046875 78.058594 3 78 3 M 78 3 L 84 3 C 83.945312 3 83.898438 3.042969 83.898438 3.101562 M 83.898438 3.101562 L 83.898438 0.101562 C 83.898438 0.046875 83.941406 0 84 0 M 84 0 L 90 0 M 90 0 C 90.054688 0 90.101562 0.0429688 90.101562 0.101562 M 90.101562 0.101562 L 90.101562 3.101562 C 90.101562 3.046875 90.058594 3 90 3 M 90 3 L 96 3 C 95.945312 3 95.898438 3.042969 95.898438 3.101562 M 95.898438 3.101562 L 95.898438 0.101562 C 95.898438 0.046875 95.941406 0 96 0 M 96 0 L 102 0 M 102 0 C 102.054688 0 102.101562 0.0429688 102.101562 0.101562 M 102.101562 0.101562 L 102.101562 3.101562 C 102.101562 3.046875 102.058594 3 102 3 M 102 3 L 108 3 C 107.945312 3 107.898438 3.042969 107.898438 3.101562 M 107.898438 3.101562 L 107.898438 0.101562 C 107.898438 0.046875 107.941406 0 108 0 M 108 0 L 114 0 M 114 0 C 114.054688 0 114.101562 0.0429688 114.101562 0.101562 M 114.101562 0.101562 L 114.101562 3.101562 C 114.101562 3.046875 114.058594 3 114 3 M 114 3 L 120 3 C 119.945312 3 119.898438 3.042969 119.898438 3.101562 M 119.898438 3.101562 L 119.898438 0.101562 C 119.898438 0.046875 119.941406 0 120 0 M 120 0 L 126 0 M 126 0 C 126.054688 0 126.101562 0.0429688 126.101562 0.101562 M 126.101562 0.101562 L 126.101562 3.101562 C 126.101562 3.046875 126.058594 3 126 3 M 126 3 L 132 3 C 131.945312 3 131.898438 3.042969 131.898438 3.101562 M 131.898438 3.101562 L 131.898438 0.101562 C 131.898438 0.046875 131.941406 0 132 0 M 132 0 L 138 0 M 138 0 C 138.054688 0 138.101562 0.0429688 138.101562 0.101562 M 138.101562 0.101562 L 138.101562 3.101562 C 138.101562 3.046875 138.058594 3 138 3 M 138 3 L 144 3 C 143.945312 3 143.898438 3.042969 143.898438 3.101562 M 143.898438 3.101562 L 143.898438 0.101562 C 143.898438 0.046875 143.941406 0 144 0 M 144 0 L 150 0 M 150 0 L 153 0 C 153.054688 0 153.101562 0.0429688 153.101562 0.101562 M 153.101562 0.101562 L 153.101562 3.101562 M 153.101562 3.101562 L 153.101562 12.601562 M 153.101562 12.601562 C 153.101562 12.65625 153.058594 12.703125 153 12.703125 M 153 12.703125 L 150 12.703125 C 150.054688 12.703125 150.101562 12.660156 150.101562 12.601562 M 150.101562 12.601562 L 150.101562 18.601562 C 150.101562 18.546875 150.058594 18.5 150 18.5 M 150 18.5 L 153 18.5 C 153.054688 18.5 153.101562 18.542969 153.101562 18.601562 M 153.101562 18.601562 L 153.101562 24.601562 M 153.101562 24.601562 C 153.101562 24.65625 153.058594 24.703125 153 24.703125 M 153 24.703125 L 150 24.703125 C 150.054688 24.703125 150.101562 24.660156 150.101562 24.601562 M 150.101562 24.601562 L 150.101562 30.601562 C 150.101562 30.546875 150.058594 30.5 150 30.5 M 150 30.5 L 153 30.5 C 153.054688 30.5 153.101562 30.542969 153.101562 30.601562 M 153.101562 30.601562 L 153.101562 36.601562 M 153.101562 36.601562 C 153.101562 36.65625 153.058594 36.703125 153 36.703125 M 153 36.703125 L 150 36.703125 C 150.054688 36.703125 150.101562 36.660156 150.101562 36.601562 M 150.101562 36.601562 L 150.101562 42.601562 C 150.101562 42.546875 150.058594 42.5 150 42.5 M 150 42.5 L 153 42.5 C 153.054688 42.5 153.101562 42.542969 153.101562 42.601562 M 153.101562 42.601562 L 153.101562 48.601562 M 153.101562 48.601562 C 153.101562 48.65625 153.058594 48.703125 153 48.703125 M 153 48.703125 L 150 48.703125 C 150.054688 48.703125 150.101562 48.660156 150.101562 48.601562 M 150.101562 48.601562 L 150.101562 54.601562 C 150.101562 54.546875 150.058594 54.5 150 54.5 M 150 54.5 L 153 54.5 C 153.054687 54.5 153.101562 54.542969 153.101562 54.601562 M 153.101562 54.601562 L 153.101562 60.601562 M 153.101562 60.601562 C 153.101562 60.65625 153.058594 60.703125 153 60.703125 M 153 60.703125 L 150 60.703125 C 150.054687 60.703125 150.101562 60.660156 150.101562 60.601562 M 150.101562 60.601562 L 150.101562 66.601562 C 150.101562 66.546875 150.058594 66.5 150 66.5 M 150 66.5 L 153 66.5 C 153.054687 66.5 153.101562 66.542969 153.101562 66.601562 M 153.101562 66.601562 L 153.101562 72.601562 M 153.101562 72.601562 C 153.101562 72.65625 153.058594 72.703125 153 72.703125 M 153 72.703125 L 150 72.703125 C 150.054687 72.703125 150.101562 72.660156 150.101562 72.601562 M 150.101562 72.601562 L 150.101562 78.601562 C 150.101562 78.546875 150.058594 78.5 150 78.5 M 150 78.5 L 153 78.5 C 153.054687 78.5 153.101562 78.542969 153.101562 78.601562 M 153.101562 78.601562 L 153.101562 88.101562 M 153.101562 88.101562 L 153.101562 91.101562 C 153.101562 91.15625 153.058594 91.203125 153 91.203125 M 153 91.203125 L 150 91.203125 M 150 91.203125 L 144 91.203125 M 144 91.203125 C 143.945312 91.203125 143.898437 91.160156 143.898437 91.101562 M 143.898437 91.101562 L 143.898437 88.101562 C 143.898437 88.15625 143.941406 88.203125 144 88.203125 M 144 88.203125 L 138 88.203125 C 138.054687 88.203125 138.101562 88.160156 138.101562 88.101562 M 138.101562 88.101562 L 138.101562 91.101562 C 138.101562 91.15625 138.058594 91.203125 138 91.203125 M 138 91.203125 L 132 91.203125 M 132 91.203125 C 131.945312 91.203125 131.898437 91.160156 131.898437 91.101562 M 131.898437 91.101562 L 131.898437 88.101562 C 131.898437 88.15625 131.941406 88.203125 132 88.203125 M 132 88.203125 L 126 88.203125 C 126.054687 88.203125 126.101562 88.160156 126.101562 88.101562 M 126.101562 88.101562 L 126.101562 91.101562 C 126.101562 91.15625 126.058594 91.203125 126 91.203125 M 126 91.203125 L 120 91.203125 M 120 91.203125 C 119.945312 91.203125 119.898437 91.160156 119.898437 91.101562 M 119.898437 91.101562 L 119.898437 88.101562 C 119.898437 88.15625 119.941406 88.203125 120 88.203125 M 120 88.203125 L 114 88.203125 C 114.054687 88.203125 114.101562 88.160156 114.101562 88.101562 M 114.101562 88.101562 L 114.101562 91.101562 C 114.101562 91.15625 114.058594 91.203125 114 91.203125 M 114 91.203125 L 108 91.203125 M 108 91.203125 C 107.945312 91.203125 107.898437 91.160156 107.898437 91.101562 M 107.898437 91.101562 L 107.898437 88.101562 C 107.898437 88.15625 107.941406 88.203125 108 88.203125 M 108 88.203125 L 102 88.203125 C 102.054687 88.203125 102.101562 88.160156 102.101562 88.101562 M 102.101562 88.101562 L 102.101562 91.101562 C 102.101562 91.15625 102.058594 91.203125 102 91.203125 M 102 91.203125 L 96 91.203125 M 96 91.203125 C 95.945312 91.203125 95.898437 91.160156 95.898437 91.101562 M 95.898437 91.101562 L 95.898437 88.101562 C 95.898437 88.15625 95.941406 88.203125 96 88.203125 M 96 88.203125 L 90 88.203125 C 90.054687 88.203125 90.101562 88.160156 90.101562 88.101562 M 90.101562 88.101562 L 90.101562 91.101562 C 90.101562 91.15625 90.058594 91.203125 90 91.203125 M 90 91.203125 L 84 91.203125 M 84 91.203125 C 83.945312 91.203125 83.898437 91.160156 83.898437 91.101562 M 83.898437 91.101562 L 83.898437 88.101562 C 83.898437 88.15625 83.941406 88.203125 84 88.203125 M 84 88.203125 L 78 88.203125 C 78.054687 88.203125 78.101562 88.160156 78.101562 88.101562 M 78.101562 88.101562 L 78.101562 91.101562 C 78.101562 91.15625 78.058594 91.203125 78 91.203125 M 78 91.203125 L 72 91.203125 M 72 91.203125 C 71.945312 91.203125 71.898437 91.160156 71.898437 91.101562 M 71.898437 91.101562 L 71.898437 88.101562 C 71.898437 88.15625 71.941406 88.203125 72 88.203125 M 72 88.203125 L 66 88.203125 C 66.054687 88.203125 66.101562 88.160156 66.101562 88.101562 M 66.101562 88.101562 L 66.101562 91.101562 C 66.101562 91.15625 66.058594 91.203125 66 91.203125 M 66 91.203125 L 60 91.203125 M 60 91.203125 C 59.945312 91.203125 59.898437 91.160156 59.898437 91.101562 M 59.898437 91.101562 L 59.898437 88.101562 C 59.898437 88.15625 59.941406 88.203125 60 88.203125 M 60 88.203125 L 54 88.203125 C 54.054687 88.203125 54.101562 88.160156 54.101562 88.101562 M 54.101562 88.101562 L 54.101562 91.101562 C 54.101562 91.15625 54.058594 91.203125 54 91.203125 M 54 91.203125 L 48 91.203125 M 48 91.203125 C 47.945312 91.203125 47.898437 91.160156 47.898437 91.101562 M 47.898437 91.101562 L 47.898437 88.101562 C 47.898437 88.15625 47.941406 88.203125 48 88.203125 M 48 88.203125 L 42 88.203125 C 42.054687 88.203125 42.101562 88.160156 42.101562 88.101562 M 42.101562 88.101562 L 42.101562 91.101562 C 42.101562 91.15625 42.058594 91.203125 42 91.203125 M 42 91.203125 L 36 91.203125 M 36 91.203125 C 35.945312 91.203125 35.898437 91.160156 35.898437 91.101562 M 35.898437 91.101562 L 35.898437 88.101562 C 35.898437 88.15625 35.941406 88.203125 36 88.203125 M 36 88.203125 L 30 88.203125 C 30.054687 88.203125 30.101562 88.160156 30.101562 88.101562 M 30.101562 88.101562 L 30.101562 91.101562 C 30.101562 91.15625 30.058594 91.203125 30 91.203125 M 30 91.203125 L 24 91.203125 M 24 91.203125 C 23.945312 91.203125 23.898437 91.160156 23.898437 91.101562 M 23.898437 91.101562 L 23.898437 88.101562 C 23.898437 88.15625 23.941406 88.203125 24 88.203125 M 24 88.203125 L 18 88.203125 C 18.054687 88.203125 18.101562 88.160156 18.101562 88.101562 M 18.101562 88.101562 L 18.101562 91.101562 C 18.101562 91.15625 18.058594 91.203125 18 91.203125 M 18 91.203125 L 12 91.203125 M 12 91.203125 C 11.945312 91.203125 11.898437 91.160156 11.898437 91.101562 M 11.898437 91.101562 L 11.898437 88.101562 C 11.898437 88.15625 11.941406 88.203125 12 88.203125 M 12 88.203125 L 6 88.203125 C 6.054687 88.203125 6.101562 88.160156 6.101562 88.101562 M 6.101562 88.101562 L 6.101562 91.101562 C 6.101562 91.15625 6.058594 91.203125 6 91.203125 M 6 91.203125 L -0.000000000000022204 91.203125 M -0.000000000000022204 91.203125 L -3 91.203125 C -3.054688 91.203125 -3.101563 91.160156 -3.101563 91.101562 M -3.101563 91.101562 L -3.101563 88.101562 M -3.101563 88.101562 L -3.101563 78.601562 M -3.101563 78.601562 C -3.101563 78.546875 -3.058594 78.5 -3 78.5 M -3 78.5 L -0.000000000000019096 78.5 C -0.0546875 78.5 -0.101563 78.542969 -0.101563 78.601562 M -0.101563 78.601562 L -0.101563 72.601562 C -0.101563 72.65625 -0.0585938 72.703125 -0.000000000000017764 72.703125 M -0.000000000000017764 72.703125 L -3 72.703125 C -3.054688 72.703125 -3.101563 72.660156 -3.101563 72.601562 M -3.101563 72.601562 L -3.101563 66.601562 M -3.101563 66.601562 C -3.101563 66.546875 -3.058594 66.5 -3 66.5 M -3 66.5 L -0.000000000000015987 66.5 C -0.0546875 66.5 -0.101563 66.542969 -0.101563 66.601562 M -0.101563 66.601562 L -0.101563 60.601562 C -0.101563 60.65625 -0.0585938 60.703125 -0.000000000000014655 60.703125 M -0.000000000000014655 60.703125 L -3 60.703125 C -3.054688 60.703125 -3.101563 60.660156 -3.101563 60.601562 M -3.101563 60.601562 L -3.101563 54.601562 M -3.101563 54.601562 C -3.101563 54.546875 -3.058594 54.5 -3 54.5 M -3 54.5 L -0.000000000000013323 54.5 C -0.0546875 54.5 -0.101563 54.542969 -0.101563 54.601562 M -0.101563 54.601562 L -0.101563 48.601562 C -0.101563 48.65625 -0.0585938 48.703125 -0.00000000000001199 48.703125 M -0.00000000000001199 48.703125 L -3 48.703125 C -3.054688 48.703125 -3.101563 48.660156 -3.101563 48.601562 M -3.101563 48.601562 L -3.101563 42.601562 M -3.101563 42.601562 C -3.101563 42.546875 -3.058594 42.5 -3 42.5 M -3 42.5 L -0.000000000000010214 42.5 C -0.0546875 42.5 -0.101563 42.542969 -0.101563 42.601562 M -0.101563 42.601562 L -0.101563 36.601562 C -0.101563 36.65625 -0.0585938 36.703125 -0.000000000000008882 36.703125 M -0.000000000000008882 36.703125 L -3 36.703125 C -3.054688 36.703125 -3.101563 36.660156 -3.101563 36.601562 M -3.101563 36.601562 L -3.101563 30.601562 M -3.101563 30.601562 C -3.101563 30.546875 -3.058594 30.5 -3 30.5 M -3 30.5 L -0.00000000000000755 30.5 C -0.0546875 30.5 -0.101563 30.542969 -0.101563 30.601562 M -0.101563 30.601562 L -0.101563 24.601562 C -0.101563 24.65625 -0.0585938 24.703125 -0.000000000000005773 24.703125 M -0.000000000000005773 24.703125 L -3 24.703125 C -3.054688 24.703125 -3.101563 24.660156 -3.101563 24.601562 M -3.101563 24.601562 L -3.101563 18.601562 M -3.101563 18.601562 C -3.101563 18.546875 -3.058594 18.5 -3 18.5 M -3 18.5 L -0.000000000000004441 18.5 C -0.0546875 18.5 -0.101563 18.542969 -0.101563 18.601562 M -0.101563 18.601562 L -0.101563 12.601562 C -0.101563 12.65625 -0.0585938 12.703125 -0.000000000000003109 12.703125 M -0.000000000000003109 12.703125 L -3 12.703125 C -3.054688 12.703125 -3.101563 12.660156 -3.101563 12.601562 M -3.101563 12.601562 L -3.101563 3.101562 M -3.101563 3.101562 L -3.101562 0.101562 C -3.101562 0.046875 -3.058594 0 -3 0 M -3 0 L 0 0 " transform="matrix(1,0.000000000000000245,0.000000000000000245,-1,3.851562,9742.351562)"/>
<path style="fill:none;stroke-width:0.2;stroke-linecap:butt;stroke-linejoin:miter;stroke:rgb(0%,0%,0%);stroke-opacity:1;stroke-miterlimit:10;" d="M 0 0 L 9.5 0 M 9.5 0 C 9.554688 0 9.601562 0.0429688 9.601562 0.101562 M 9.601562 0.101562 L 9.601562 3.101562 C 9.601562 3.046875 9.558594 3 9.5 3 M 9.5 3 L 15.5 3 C 15.445312 3 15.398438 3.042969 15.398438 3.101562 M 15.398438 3.101562 L 15.398438 0.101562 C 15.398438 0.046875 15.441406 0 15.5 0 M 15.5 0 L 21.5 0 M 21.5 0 C 21.554688 0 21.601562 0.0429688 21.601562 0.101562 M 21.601562 0.101562 L 21.601562 3.101562 C 21.601562 3.046875 21.558594 3 21.5 3 M 21.5 3 L 27.5 3 C 27.445312 3 27.398438 3.042969 27.398438 3.101562 M 27.398438 3.101562 L 27.398438 0.101562 C 27.398438 0.046875 27.441406 0 27.5 0 M 27.5 0 L 33.5 0 M 33.5 0 C 33.554688 0 33.601562 0.0429688 33.601562 0.101562 M 33.601562 0.101562 L 33.601562 3.101562 C 33.601562 3.046875 33.558594 3 33.5 3 M 33.5 3 L 39.5 3 C 39.445312 3 39.398438 3.042969 39.398438 3.101562 M 39.398438 3.101562 L 39.398438 0.101562 C 39.398438 0.046875 39.441406 0 39.5 0 M 39.5 0 L 45.5 0 M 45.5 0 C 45.554688 0 45.601562 0.0429688 45.601562 0.101562 M 45.601562 0.101562 L 45.601562 3.101562 C 45.601562 3.046875 45.558594 3 45.5 3 M 45.5 3 L 51.5 3 C 51.445312 3 51.398438 3.042969 51.398438 3.101562 M 51.398438 3.101562 L 51.398438 0.101562 C 51.398438 0.046875 51.441406 0 51.5 0 M 51.5 0 L 57.5 0 M 57.5 0 C 57.554688 0 57.601562 0.0429688 57.601562 0.101562 M 57.601562 0.101562 L 57.601562 3.101562 C 57.601562 3.046875 57.558594 3 57.5 3 M 57.5 3 L 63.5 3 C 63.445312 3 63.398438 3.042969 63.398438 3.101562 M 63.398438 3.101562 L 63.398438 0.101562 C 63.398438 0.046875 63.441406 0 63.5 0 M 63.5 0 L 69.5 0 M 69.5 0 C 69.554688 0 69.601562 0.0429688 69.601562 0.101562 M 69.601562 0.101562 L 69.601562 3.101562 C 69.601562 3.046875 69.558594 3 69.5 3 M 69.5 3 L 75.5 3 C 75.445312 3 75.398438 3.042969 75.398438 3.101562 M 75.398438 3.101562 L 75.398438 0.101562 C 75.398438 0.046875 75.441406 0 75.5 0 M 75.5 0 L 85 0 M 85 0 C 85.054688 0 85.101562 0.0429688 85.101562 0.101562 M 85.101562 0.101562 L 85.101562 3.101562 M 85.101562 3.101562 L 85.101562 12.601562 M 85.101562 12.601562 C 85.101562 12.546875 85.058594 12.5 85 12.5 M 85 12.5 L 88 12.5 C 88.054688 12.5 88.101562 12.542969 88.101562 12.601562 M 88.101562 12.601562 L 88.101562 18.601562 C 88.101562 18.65625 88.058594 18.703125 88 18.703125 M 88 18.703125 L 85 18.703125 C 85.054688 18.703125 85.101562 18.660156 85.101562 18.601562 M 85.101562 18.601562 L 85.101562 28.101562 M 85.101562 28.101562 C 85.101562 28.15625 85.058594 28.203125 85 28.203125 M 85 28.203125 L 85 28.203125 M 85 28.203125 L 75.5 28.203125 M 75.5 28.203125 C 75.554688 28.203125 75.601562 28.160156 75.601562 28.101562 M 75.601562 28.101562 L 75.601562 31.101562 C 75.601562 31.15625 75.558594 31.203125 75.5 31.203125 M 75.5 31.203125 L 69.5 31.203125 C 69.445312 31.203125 69.398438 31.160156 69.398438 31.101562 M 69.398438 31.101562 L 69.398438 28.101562 C 69.398438 28.15625 69.441406 28.203125 69.5 28.203125 M 69.5 28.203125 L 63.5 28.203125 M 63.5 28.203125 C 63.554688 28.203125 63.601562 28.160156 63.601562 28.101562 M 63.601562 28.101562 L 63.601562 31.101562 C 63.601562 31.15625 63.558594 31.203125 63.5 31.203125 M 63.5 31.203125 L 57.5 31.203125 C 57.445312 31.203125 57.398438 31.160156 57.398438 31.101562 M 57.398438 31.101562 L 57.398438 28.101562 C 57.398438 28.15625 57.441406 28.203125 57.5 28.203125 M 57.5 28.203125 L 51.5 28.203125 M 51.5 28.203125 C 51.554688 28.203125 51.601562 28.160156 51.601562 28.101562 M 51.601562 28.101562 L 51.601562 31.101562 C 51.601562 31.15625 51.558594 31.203125 51.5 31.203125 M 51.5 31.203125 L 45.5 31.203125 C 45.445312 31.203125 45.398438 31.160156 45.398438 31.101562 M 45.398438 31.101562 L 45.398438 28.101562 C 45.398438 28.15625 45.441406 28.203125 45.5 28.203125 M 45.5 28.203125 L 39.5 28.203125 M 39.5 28.203125 C 39.554688 28.203125 39.601562 28.160156 39.601562 28.101562 M 39.601562 28.101562 L 39.601562 31.101562 C 39.601562 31.15625 39.558594 31.203125 39.5 31.203125 M 39.5 31.203125 L 33.5 31.203125 C 33.445312 31.203125 33.398438 31.160156 33.398438 31.101562 M 33.398438 31.101562 L 33.398438 28.101562 C 33.398438 28.15625 33.441406 28.203125 33.5 28.203125 M 33.5 28.203125 L 27.5 28.203125 M 27.5 28.203125 C 27.554688 28.203125 27.601562 28.160156 27.601562 28.101562 M 27.601562 28.101562 L 27.601562 31.101562 C 27.601562 31.15625 27.558594 31.203125 27.5 31.203125 M 27.5 31.203125 L 21.5 31.203125 C 21.445312 31.203125 21.398438 31.160156 21.398438 31.101562 M 21.398438 31.101562 L 21.398438 28.101562 C 21.398438 28.15625 21.441406 28.203125 21.5 28.203125 M 21.5 28.203125 L 15.5 28.203125 M 15.5 28.203125 C 15.554688 28.203125 15.601562 28.160156 15.601562 28.101562 M 15.601562 28.101562 L 15.601562 31.101562 C 15.601562 31.15625 15.558594 31.203125 15.5 31.203125 M 15.5 31.203125 L 9.5 31.203125 C 9.445312 31.203125 9.398438 31.160156 9.398438 31.101562 M 9.398438 31.101562 L 9.398438 28.101562 C 9.398438 28.15625 9.441406 28.203125 9.5 28.203125 M 9.5 28.203125 L 0 28.203125 M 0 28.203125 C -0.0546875 28.203125 -0.101562 28.160156 -0.101562 28.101562 M -0.101562 28.101562 L -0.101562 28.101562 M -0.101562 28.101562 L -0.101562 18.601562 M -0.101562 18.601562 C -0.101562 18.65625 -0.0585938 18.703125 0 18.703125 M 0 18.703125 L -3 18.703125 C -3.054688 18.703125 -3.101562 18.660156 -3.101562 18.601562 M -3.101562 18.601562 L -3.101562 12.601562 C -3.101562 12.546875 -3.058594 12.5 -3 12.5 M -3 12.5 L 0 12.5 C -0.0546875 12.5 -0.101562 12.542969 -0.101562 12.601562 M -0.101562 12.601562 L -0.101562 3.101562 M -0.101562 3.101562 L -0.101562 0.101562 C -0.101562 0.046875 -0.0585938 0 0 0 M 0 0 L 0 0 " transform="matrix(1,0.000000000000000245,0.000000000000000245,-1,161.550781,9999.148438)"/>
<path style="fill:none;stroke-width:0.2;stroke-linecap:butt;stroke-linejoin:miter;stroke:rgb(0%,0%,0%);stroke-opacity:1;stroke-miterlimit:10;" d="M 0 0 L 9.5 0 M 9.5 0 C 9.554688 0 9.601562 0.0429688 9.601562 0.101562 M 9.601562 0.101562 L 9.601562 3.101562 C 9.601562 3.046875 9.558594 3 9.5 3 M 9.5 3 L 15.5 3 C 15.445312 3 15.398438 3.042969 15.398438 3.101562 M 15.398438 3.101562 L 15.398438 0.101562 C 15.398438 0.046875 15.441406 0 15.5 0 M 15.5 0 L 21.5 0 M 21.5 0 C 21.554688 0 21.601562 0.0429688 21.601562 0.101562 M 21.601562 0.101562 L 21.601562 3.101562 C 21.601562 3.046875 21.558594 3 21.5 3 M 21.5 3 L 27.5 3 C 27.445312 3 27.398438 3.042969 27.398438 3.101562 M 27.398438 3.101562 L 27.398438 0.101562 C 27.398438 0.046875 27.441406 0 27.5 0 M 27.5 0 L 33.5 0 M 33.5 0 C 33.554688 0 33.601562 0.0429688 33.601562 0.101562 M 33.601562 0.101562 L 33.601562 3.101562 C 33.601562 3.046875 33.558594 3 33.5 3 M 33.5 3 L 39.5 3 C 39.445312 3 39.398438 3.042969 39.398438 3.101562 M 39.398438 3.101562 L 39.398438 0.101562 C 39.398438 0.046875 39.441406 0 39.5 0 M 39.5 0 L 45.5 0 M 45.5 0 C 45.554688 0 45.601562 0.0429688 45.601562 0.101562 M 45.601562 0.101562 L 45.601562 3.101562 C 45.601562 3.046875 45.558594 3 45.5 3 M 45.5 3 L 51.5 3 C 51.445312 3 51.398438 3.042969 51.398438 3.101562 M 51.398438 3.101562 L 51.398438 0.101562 C 51.398438 0.046875 51.441406 0 51.5 0 M 51.5 0 L 57.5 0 M 57.5 0 C 57.554688 0 57.601562 0.0429688 57.601562 0.101562 M 57.601562 0.101562 L 57.601562 3.101562 C 57.601562 3.046875 57.558594 3 57.5 3 M 57.5 3 L 63.5 3 C 63.445312 3 63.398438 3.042969 63.398438 3.101562 M 63.398438 3.101562 L 63.398438 0.101562 C 63.398438 0.046875 63.441406 0 63.5 0 M 63.5 0 L 69.5 0 M 69.5 0 C 69.554688 0 69.601562 0.0429688 69.601562 0.101562 M 69.601562 0.101562 L 69.601562 3.101562 C 69.601562 3.046875 69.558594 3 69.5 3 M 69.5 3 L 75.5 3 C 75.445312 3 75.398438 3.042969 75.398438 3.101562 M 75.398438 3.101562 L 75.398438 0.101562 C 75.398438 0.046875 75.441406 0 75.5 0 M 75.5 0 L 85 0 M 85 0 C 85.054688 0 85.101562 0.0429688 85.101562 0.101562 M 85.101562 0.101562 L 85.101562 3.101562 M 85.101562 3.101562 L 85.101562 12.601562 M 85.101562 12.601562 C 85.101562 12.546875 85.058594 12.5 85 12.5 M 85 12.5 L 88 12.5 C 88.054688 12.5 88.101562 12.542969 88.101562 12.601562 M 88.101562 12.601562 L 88.101562 18.601562 C 88.101562 18.65625 88.058594 18.703125 88 18.703125 M 88 18.703125 L 85 18.703125 C 85.054688 18.703125 85.101562 18.660156 85.101562 18.601562 M 85.101562 18.601562 L 85.101562 28.101562 M 85.101562 28.101562 C 85.101562 28.15625 85.058594 28.203125 85 28.203125 M 85 28.203125 L 85 28.203125 M 85 28.203125 L 75.5 28.203125 M 75.5 28.203125 C 75.554688 28.203125 75.601562 28.160156 75.601562 28.101562 M 75.601562 28.101562 L 75.601562 31.101562 C 75.601562 31.15625 75.558594 31.203125 75.5 31.203125 M 75.5 31.203125 L 69.5 31.203125 C 69.445312 31.203125 69.398438 31.160156 69.398438 31.101562 M 69.398438 31.101562 L 69.398438 28.101562 C 69.398438 28.15625 69.441406 28.203125 69.5 28.203125 M 69.5 28.203125 L 63.5 28.203125 M 63.5 28.203125 C 63.554688 28.203125 63.601562 28.160156 63.601562 28.101562 M 63.601562 28.101562 L 63.601562 31.101562 C 63.601562 31.15625 63.558594 31.203125 63.5 31.203125 M 63.5 31.203125 L 57.5 31.203125 C 57.445312 31.203125 57.398438 31.160156 57.398438 31.101562 M 57.398438 31.101562 L 57.398438 28.101562 C 57.398438 28.15625 57.441406 28.203125 57.5 28.203125 M 57.5 28.203125 L 51.5 28.203125 M 51.5 28.203125 C 51.554688 28.203125 51.601562 28.160156 51.601562 28.101562 M 51.601562 28.101562 L 51.601562 31.101562 C 51.601562 31.15625 51.558594 31.203125 51.5 31.203125 M 51.5 31.203125 L 45.5 31.203125 C 45.445312 31.203125 45.398438 31.160156 45.398438 31.101562 M 45.398438 31.101562 L 45.398438 28.101562 C 45.398438 28.15625 45.441406 28.203125 45.5 28.203125 M 45.5 28.203125 L 39.5 28.203125 M 39.5 28.203125 C 39.554688 28.203125 39.601562 28.160156 39.601562 28.101562 M 39.601562 28.101562 L 39.601562 31.101562 C 39.601562 31.15625 39.558594 31.203125 39.5 31.203125 M 39.5 31.203125 L 33.5 31.203125 C 33.445312 31.203125 33.398438 31.160156 33.398438 31.101562 M 33.398438 31.101562 L 33.398438 28.101562 C 33.398438 28.15625 33.441406 28.203125 33.5 28.203125 M 33.5 28.203125 L 27.5 28.203125 M 27.5 28.203125 C 27.554688 28.203125 27.601562 28.160156 27.601562 28.101562 M 27.601562 28.101562 L 27.601562 31.101562 C 27.601562 31.15625 27.558594 31.203125 27.5 31.203125 M 27.5 31.203125 L 21.5 31.203125 C 21.445312 31.203125 21.398438 31.160156 21.398438 31.101562 M 21.398438 31.101562 L 21.398438 28.101562 C 21.398438 28.15625 21.441406 28.203125 21.5 28.203125 M 21.5 28.203125 L 15.5 28.203125 M 15.5 28.203125 C 15.554688 28.203125 15.601562 28.160156 15.601562 28.101562 M 15.601562 28.101562 L 15.601562 31.101562 C 15.601562 31.15625 15.558594 31.203125 15.5 31.203125 M 15.5 31.203125 L 9.5 31.203125 C 9.445312 31.203125 9.398438 31.160156 9.398438 31.101562 M 9.398438 31.101562 L 9.398438 28.101562 C 9.398438 28.15625 9.441406 28.203125 9.5 28.203125 M 9.5 28.203125 L 0 28.203125 M 0 28.203125 C -0.0546875 28.203125 -0.101562 28.160156 -0.101562 28.101562 M -0.101562 28.101562 L -0.101562 28.101562 M -0.101562 28.101562 L -0.101562 18.601562 M -0.101562 18.601562 C -0.101562 18.65625 -0.0585938 18.703125 0 18.703125 M 0 18.703125 L -3 18.703125 C -3.054688 18.703125 -3.101562 18.660156 -3.101562 18.601562 M -3.101562 18.601562 L -3.101562 12.601562 C -3.101562 12.546875 -3.058594 12.5 -3 12.5 M -3 12.5 L 0 12.5 C -0.0546875 12.5 -0.101562 12.542969 -0.101562 12.601562 M -0.101562 12.601562 L -0.101562 3.101562 M -0.101562 3.101562 L -0.101562 0.101562 C -0.101562 0.046875 -0.0585938 0 0 0 M 0 0 L 0 0 " transform="matrix(1,0.000000000000000245,0.000000000000000245,-1,161.550781,9966.449219)"/>
</g>
</svg>
