<?xml version='1.0' encoding='utf-8'?>
<svg height="218.30mm" viewBox="0.0 0.0 228.90 218.30" width="228.90mm" xmlns="http://www.w3.org/2000/svg" xmlns:cc="http://creativecommons.org/ns#" xmlns:dc="http://purl.org/dc/elements/1.1/" xmlns:inkscape="http://www.inkscape.org/namespaces/inkscape" xmlns:rdf="http://www.w3.org/1999/02/22-rdf-syntax-ns#" xmlns:svg="http://www.w3.org/2000/svg" xmlns:xlink="http://www.w3.org/1999/xlink">
<!--
ABox - A simple Box


This box is kept simple on purpose. If you need more features have a look at the UniversalBox.


Created with Boxes.py (https://boxes.hackerspace-bamberg.de/)
Creation date: 2025-05-03 20:19:47
Command line (remove spaces between dashes): boxes ABox - -x=110 - -y=85 - -h=43 - -outside=0 - -bottom_edge=F
Url: https://boxes.hackerspace-bamberg.de/ABox?FingerJoint_style=rectangular&FingerJoint_surroundingspaces=2.0&FingerJoint_bottom_lip=0.0&FingerJoint_edge_width=1.0&FingerJoint_extra_length=0.0&FingerJoint_finger=2.0&FingerJoint_play=0.0&FingerJoint_space=2.0&FingerJoint_width=1.0&Lid_handle=none&Lid_style=none&Lid_handle_height=8.0&Lid_height=4.0&Lid_play=0.1&x=110&y=85&h=43&outside=0&bottom_edge=F&thickness=3.0&format=svg&tabs=0.0&qr_code=0&debug=0&labels=0&labels=1&reference=100.0&inner_corners=loop&burn=0.1&language=en&render=2
Url short: https://boxes.hackerspace-bamberg.de/ABox?x=110&y=85&h=43&outside=0&bottom_edge=F
SettingsUrl: https://boxes.hackerspace-bamberg.de/ABox?FingerJoint_style=rectangular&FingerJoint_surroundingspaces=2.0&FingerJoint_bottom_lip=0.0&FingerJoint_edge_width=1.0&FingerJoint_extra_length=0.0&FingerJoint_finger=2.0&FingerJoint_play=0.0&FingerJoint_space=2.0&FingerJoint_width=1.0&Lid_handle=none&Lid_style=none&Lid_handle_height=8.0&Lid_height=4.0&Lid_play=0.1&x=110&y=85&h=43&outside=0&bottom_edge=F&thickness=3.0&format=svg&tabs=0.0&qr_code=0&debug=0&labels=0&labels=1&reference=100.0&inner_corners=loop&burn=0.1&language=en&render=2
SettingsUrl short: https://boxes.hackerspace-bamberg.de/ABox?x=110&y=85&h=43&outside=0&bottom_edge=F
-->
<title>ABox</title>
<metadata>
<rdf:RDF><cc:Work>
<dc:title>Box - ABox</dc:title>
<dc:date>2025-05-03 20:19:47</dc:date>
<dc:source>https://boxes.hackerspace-bamberg.de/ABox?FingerJoint_style=rectangular&amp;FingerJoint_surroundingspaces=2.0&amp;FingerJoint_bottom_lip=0.0&amp;FingerJoint_edge_width=1.0&amp;FingerJoint_extra_length=0.0&amp;FingerJoint_finger=2.0&amp;FingerJoint_play=0.0&amp;FingerJoint_space=2.0&amp;FingerJoint_width=1.0&amp;Lid_handle=none&amp;Lid_style=none&amp;Lid_handle_height=8.0&amp;Lid_height=4.0&amp;Lid_play=0.1&amp;x=110&amp;y=85&amp;h=43&amp;outside=0&amp;bottom_edge=F&amp;thickness=3.0&amp;format=svg&amp;tabs=0.0&amp;qr_code=0&amp;debug=0&amp;labels=0&amp;labels=1&amp;reference=100.0&amp;inner_corners=loop&amp;burn=0.1&amp;language=en&amp;render=2</dc:source>
<dc:source>https://boxes.hackerspace-bamberg.de/ABox?x=110&amp;y=85&amp;h=43&amp;outside=0&amp;bottom_edge=F</dc:source>
<dc:description>A simple Box

This box is kept simple on purpose. If you need more features have a look at the UniversalBox.

Created with Boxes.py (https://boxes.hackerspace-bamberg.de/)
Command line: boxes ABox --FingerJoint_style=rectangular --FingerJoint_surroundingspaces=2.0 --FingerJoint_bottom_lip=0.0 --FingerJoint_edge_width=1.0 --FingerJoint_extra_length=0.0 --FingerJoint_finger=2.0 --FingerJoint_play=0.0 --FingerJoint_space=2.0 --FingerJoint_width=1.0 --Lid_handle=none --Lid_style=none --Lid_handle_height=8.0 --Lid_height=4.0 --Lid_play=0.1 --x=110 --y=85 --h=43 --outside=0 --bottom_edge=F --thickness=3.0 --format=svg --tabs=0.0 --qr_code=0 --debug=0 --labels=0 --labels=1 --reference=100.0 --inner_corners=loop --burn=0.1
Command line short: boxes ABox --x=110 --y=85 --h=43 --outside=0 --bottom_edge=F
Url: https://boxes.hackerspace-bamberg.de/ABox?FingerJoint_style=rectangular&amp;FingerJoint_surroundingspaces=2.0&amp;FingerJoint_bottom_lip=0.0&amp;FingerJoint_edge_width=1.0&amp;FingerJoint_extra_length=0.0&amp;FingerJoint_finger=2.0&amp;FingerJoint_play=0.0&amp;FingerJoint_space=2.0&amp;FingerJoint_width=1.0&amp;Lid_handle=none&amp;Lid_style=none&amp;Lid_handle_height=8.0&amp;Lid_height=4.0&amp;Lid_play=0.1&amp;x=110&amp;y=85&amp;h=43&amp;outside=0&amp;bottom_edge=F&amp;thickness=3.0&amp;format=svg&amp;tabs=0.0&amp;qr_code=0&amp;debug=0&amp;labels=0&amp;labels=1&amp;reference=100.0&amp;inner_corners=loop&amp;burn=0.1&amp;language=en&amp;render=2
Url short: https://boxes.hackerspace-bamberg.de/ABox?x=110&amp;y=85&amp;h=43&amp;outside=0&amp;bottom_edge=F
SettingsUrl: https://boxes.hackerspace-bamberg.de/ABox?FingerJoint_style=rectangular&amp;FingerJoint_surroundingspaces=2.0&amp;FingerJoint_bottom_lip=0.0&amp;FingerJoint_edge_width=1.0&amp;FingerJoint_extra_length=0.0&amp;FingerJoint_finger=2.0&amp;FingerJoint_play=0.0&amp;FingerJoint_space=2.0&amp;FingerJoint_width=1.0&amp;Lid_handle=none&amp;Lid_style=none&amp;Lid_handle_height=8.0&amp;Lid_height=4.0&amp;Lid_play=0.1&amp;x=110&amp;y=85&amp;h=43&amp;outside=0&amp;bottom_edge=F&amp;thickness=3.0&amp;format=svg&amp;tabs=0.0&amp;qr_code=0&amp;debug=0&amp;labels=0&amp;labels=1&amp;reference=100.0&amp;inner_corners=loop&amp;burn=0.1&amp;language=en&amp;render=2
SettingsUrl short: https://boxes.hackerspace-bamberg.de/ABox?x=110&amp;y=85&amp;h=43&amp;outside=0&amp;bottom_edge=F
</dc:description>
</cc:Work></rdf:RDF></metadata>
<g id="p-0" style="fill:none;stroke-linecap:round;stroke-linejoin:round;">
  <path d="M 10.100 208.300 H 110.100 V 198.300 H 10.100 V 208.300 Z" stroke="rgb(0,0,0)" stroke-width="0.20" />
  <text dominant-baseline="hanging" font-size="6px" style="font-family: sans-serif ; font-weight: normal; font-style: normal; fill: rgb(255,0,0)" text-anchor="middle" transform="matrix( 1.000 0.000 0.000 1.000 60.100 200.300 )">100.0mm, burn:0.10mm</text>
</g>
<g id="p-1" style="fill:none;stroke-linecap:round;stroke-linejoin:round;">
  <path d="M 13.100 196.600 H 23.100 C 23.155 196.600 23.200 196.555 23.200 196.500 V 193.600 C 23.200 193.500 23.100 193.600 23.200 193.600 H 29.000 C 29.100 193.600 29.000 193.500 29.000 193.600 V 196.500 C 29.000 196.555 29.045 196.600 29.100 196.600 H 35.100 C 35.155 196.600 35.200 196.555 35.200 196.500 V 193.600 C 35.200 193.500 35.100 193.600 35.200 193.600 H 41.000 C 41.100 193.600 41.000 193.500 41.000 193.600 V 196.500 C 41.000 196.555 41.045 196.600 41.100 196.600 H 47.100 C 47.155 196.600 47.200 196.555 47.200 196.500 V 193.600 C 47.200 193.500 47.100 193.600 47.200 193.600 H 53.000 C 53.100 193.600 53.000 193.500 53.000 193.600 V 196.500 C 53.000 196.555 53.045 196.600 53.100 196.600 H 59.100 C 59.155 196.600 59.200 196.555 59.200 196.500 V 193.600 C 59.200 193.500 59.100 193.600 59.200 193.600 H 65.000 C 65.100 193.600 65.000 193.500 65.000 193.600 V 196.500 C 65.000 196.555 65.045 196.600 65.100 196.600 H 71.100 C 71.155 196.600 71.200 196.555 71.200 196.500 V 193.600 C 71.200 193.500 71.100 193.600 71.200 193.600 H 77.000 C 77.100 193.600 77.000 193.500 77.000 193.600 V 196.500 C 77.000 196.555 77.045 196.600 77.100 196.600 H 83.100 C 83.155 196.600 83.200 196.555 83.200 196.500 V 193.600 C 83.200 193.500 83.100 193.600 83.200 193.600 H 89.000 C 89.100 193.600 89.000 193.500 89.000 193.600 V 196.500 C 89.000 196.555 89.045 196.600 89.100 196.600 H 95.100 C 95.155 196.600 95.200 196.555 95.200 196.500 V 193.600 C 95.200 193.500 95.100 193.600 95.200 193.600 H 101.000 C 101.100 193.600 101.000 193.500 101.000 193.600 V 196.500 C 101.000 196.555 101.045 196.600 101.100 196.600 H 107.100 C 107.155 196.600 107.200 196.555 107.200 196.500 V 193.600 C 107.200 193.500 107.100 193.600 107.200 193.600 H 113.000 C 113.100 193.600 113.000 193.500 113.000 193.600 V 196.500 C 113.000 196.555 113.045 196.600 113.100 196.600 H 123.100 H 126.100 C 126.155 196.600 126.200 196.555 126.200 196.500 V 188.500 C 126.200 188.445 126.155 188.400 126.100 188.400 H 123.200 C 123.100 188.400 123.200 188.500 123.200 188.400 V 182.600 C 123.200 182.500 123.100 182.600 123.200 182.600 H 126.100 C 126.155 182.600 126.200 182.555 126.200 182.500 V 176.500 C 126.200 176.445 126.155 176.400 126.100 176.400 H 123.200 C 123.100 176.400 123.200 176.500 123.200 176.400 V 170.600 C 123.200 170.500 123.100 170.600 123.200 170.600 H 126.100 C 126.155 170.600 126.200 170.555 126.200 170.500 V 164.500 C 126.200 164.445 126.155 164.400 126.100 164.400 H 123.200 C 123.100 164.400 123.200 164.500 123.200 164.400 V 158.600 C 123.200 158.500 123.100 158.600 123.200 158.600 H 126.100 C 126.155 158.600 126.200 158.555 126.200 158.500 V 150.500 C 126.200 150.445 126.155 150.400 126.100 150.400 H 123.100 H 13.100 H 10.100 C 10.045 150.400 10.000 150.445 10.000 150.500 V 158.500 C 10.000 158.555 10.045 158.600 10.100 158.600 H 13.000 C 13.100 158.600 13.000 158.500 13.000 158.600 V 164.400 C 13.000 164.500 13.100 164.400 13.000 164.400 H 10.100 C 10.045 164.400 10.000 164.445 10.000 164.500 V 170.500 C 10.000 170.555 10.045 170.600 10.100 170.600 H 13.000 C 13.100 170.600 13.000 170.500 13.000 170.600 V 176.400 C 13.000 176.500 13.100 176.400 13.000 176.400 H 10.100 C 10.045 176.400 10.000 176.445 10.000 176.500 V 182.500 C 10.000 182.555 10.045 182.600 10.100 182.600 H 13.000 C 13.100 182.600 13.000 182.500 13.000 182.600 V 188.400 C 13.000 188.500 13.100 188.400 13.000 188.400 H 10.100 C 10.045 188.400 10.000 188.445 10.000 188.500 V 196.500 C 10.000 196.555 10.045 196.600 10.100 196.600 H 13.100 Z" stroke="rgb(0,0,0)" stroke-width="0.20" />
</g>
<g id="p-2" style="fill:none;stroke-linecap:round;stroke-linejoin:round;">
  <path d="M 13.100 148.900 H 23.100 C 23.155 148.900 23.200 148.855 23.200 148.800 V 145.900 C 23.200 145.800 23.100 145.900 23.200 145.900 H 29.000 C 29.100 145.900 29.000 145.800 29.000 145.900 V 148.800 C 29.000 148.855 29.045 148.900 29.100 148.900 H 35.100 C 35.155 148.900 35.200 148.855 35.200 148.800 V 145.900 C 35.200 145.800 35.100 145.900 35.200 145.900 H 41.000 C 41.100 145.900 41.000 145.800 41.000 145.900 V 148.800 C 41.000 148.855 41.045 148.900 41.100 148.900 H 47.100 C 47.155 148.900 47.200 148.855 47.200 148.800 V 145.900 C 47.200 145.800 47.100 145.900 47.200 145.900 H 53.000 C 53.100 145.900 53.000 145.800 53.000 145.900 V 148.800 C 53.000 148.855 53.045 148.900 53.100 148.900 H 59.100 C 59.155 148.900 59.200 148.855 59.200 148.800 V 145.900 C 59.200 145.800 59.100 145.900 59.200 145.900 H 65.000 C 65.100 145.900 65.000 145.800 65.000 145.900 V 148.800 C 65.000 148.855 65.045 148.900 65.100 148.900 H 71.100 C 71.155 148.900 71.200 148.855 71.200 148.800 V 145.900 C 71.200 145.800 71.100 145.900 71.200 145.900 H 77.000 C 77.100 145.900 77.000 145.800 77.000 145.900 V 148.800 C 77.000 148.855 77.045 148.900 77.100 148.900 H 83.100 C 83.155 148.900 83.200 148.855 83.200 148.800 V 145.900 C 83.200 145.800 83.100 145.900 83.200 145.900 H 89.000 C 89.100 145.900 89.000 145.800 89.000 145.900 V 148.800 C 89.000 148.855 89.045 148.900 89.100 148.900 H 95.100 C 95.155 148.900 95.200 148.855 95.200 148.800 V 145.900 C 95.200 145.800 95.100 145.900 95.200 145.900 H 101.000 C 101.100 145.900 101.000 145.800 101.000 145.900 V 148.800 C 101.000 148.855 101.045 148.900 101.100 148.900 H 107.100 C 107.155 148.900 107.200 148.855 107.200 148.800 V 145.900 C 107.200 145.800 107.100 145.900 107.200 145.900 H 113.000 C 113.100 145.900 113.000 145.800 113.000 145.900 V 148.800 C 113.000 148.855 113.045 148.900 113.100 148.900 H 123.100 H 126.100 C 126.155 148.900 126.200 148.855 126.200 148.800 V 140.800 C 126.200 140.745 126.155 140.700 126.100 140.700 H 123.200 C 123.100 140.700 123.200 140.800 123.200 140.700 V 134.900 C 123.200 134.800 123.100 134.900 123.200 134.900 H 126.100 C 126.155 134.900 126.200 134.855 126.200 134.800 V 128.800 C 126.200 128.745 126.155 128.700 126.100 128.700 H 123.200 C 123.100 128.700 123.200 128.800 123.200 128.700 V 122.900 C 123.200 122.800 123.100 122.900 123.200 122.900 H 126.100 C 126.155 122.900 126.200 122.855 126.200 122.800 V 116.800 C 126.200 116.745 126.155 116.700 126.100 116.700 H 123.200 C 123.100 116.700 123.200 116.800 123.200 116.700 V 110.900 C 123.200 110.800 123.100 110.900 123.200 110.900 H 126.100 C 126.155 110.900 126.200 110.855 126.200 110.800 V 102.800 C 126.200 102.745 126.155 102.700 126.100 102.700 H 123.100 H 13.100 H 10.100 C 10.045 102.700 10.000 102.745 10.000 102.800 V 110.800 C 10.000 110.855 10.045 110.900 10.100 110.900 H 13.000 C 13.100 110.900 13.000 110.800 13.000 110.900 V 116.700 C 13.000 116.800 13.100 116.700 13.000 116.700 H 10.100 C 10.045 116.700 10.000 116.745 10.000 116.800 V 122.800 C 10.000 122.855 10.045 122.900 10.100 122.900 H 13.000 C 13.100 122.900 13.000 122.800 13.000 122.900 V 128.700 C 13.000 128.800 13.100 128.700 13.000 128.700 H 10.100 C 10.045 128.700 10.000 128.745 10.000 128.800 V 134.800 C 10.000 134.855 10.045 134.900 10.100 134.900 H 13.000 C 13.100 134.900 13.000 134.800 13.000 134.900 V 140.700 C 13.000 140.800 13.100 140.700 13.000 140.700 H 10.100 C 10.045 140.700 10.000 140.745 10.000 140.800 V 148.800 C 10.000 148.855 10.045 148.900 10.100 148.900 H 13.100 Z" stroke="rgb(0,0,0)" stroke-width="0.20" />
</g>
<g id="p-3" style="fill:none;stroke-linecap:round;stroke-linejoin:round;">
  <path d="M 13.100 98.200 H 23.000 C 23.100 98.200 23.000 98.100 23.000 98.200 V 101.100 C 23.000 101.155 23.045 101.200 23.100 101.200 H 29.100 C 29.155 101.200 29.200 101.155 29.200 101.100 V 98.200 C 29.200 98.100 29.100 98.200 29.200 98.200 H 35.000 C 35.100 98.200 35.000 98.100 35.000 98.200 V 101.100 C 35.000 101.155 35.045 101.200 35.100 101.200 H 41.100 C 41.155 101.200 41.200 101.155 41.200 101.100 V 98.200 C 41.200 98.100 41.100 98.200 41.200 98.200 H 47.000 C 47.100 98.200 47.000 98.100 47.000 98.200 V 101.100 C 47.000 101.155 47.045 101.200 47.100 101.200 H 53.100 C 53.155 101.200 53.200 101.155 53.200 101.100 V 98.200 C 53.200 98.100 53.100 98.200 53.200 98.200 H 59.000 C 59.100 98.200 59.000 98.100 59.000 98.200 V 101.100 C 59.000 101.155 59.045 101.200 59.100 101.200 H 65.100 C 65.155 101.200 65.200 101.155 65.200 101.100 V 98.200 C 65.200 98.100 65.100 98.200 65.200 98.200 H 71.000 C 71.100 98.200 71.000 98.100 71.000 98.200 V 101.100 C 71.000 101.155 71.045 101.200 71.100 101.200 H 77.100 C 77.155 101.200 77.200 101.155 77.200 101.100 V 98.200 C 77.200 98.100 77.100 98.200 77.200 98.200 H 83.000 C 83.100 98.200 83.000 98.100 83.000 98.200 V 101.100 C 83.000 101.155 83.045 101.200 83.100 101.200 H 89.100 C 89.155 101.200 89.200 101.155 89.200 101.100 V 98.200 C 89.200 98.100 89.100 98.200 89.200 98.200 H 95.000 C 95.100 98.200 95.000 98.100 95.000 98.200 V 101.100 C 95.000 101.155 95.045 101.200 95.100 101.200 H 101.100 C 101.155 101.200 101.200 101.155 101.200 101.100 V 98.200 C 101.200 98.100 101.100 98.200 101.200 98.200 H 107.000 C 107.100 98.200 107.000 98.100 107.000 98.200 V 101.100 C 107.000 101.155 107.045 101.200 107.100 101.200 H 113.100 C 113.155 101.200 113.200 101.155 113.200 101.100 V 98.200 C 113.200 98.100 113.100 98.200 113.200 98.200 H 123.100 C 123.155 98.200 123.200 98.155 123.200 98.100 V 88.700 C 123.200 88.600 123.100 88.700 123.200 88.700 H 126.100 C 126.155 88.700 126.200 88.655 126.200 88.600 V 82.600 C 126.200 82.545 126.155 82.500 126.100 82.500 H 123.200 C 123.100 82.500 123.200 82.600 123.200 82.500 V 76.700 C 123.200 76.600 123.100 76.700 123.200 76.700 H 126.100 C 126.155 76.700 126.200 76.655 126.200 76.600 V 70.600 C 126.200 70.545 126.155 70.500 126.100 70.500 H 123.200 C 123.100 70.500 123.200 70.600 123.200 70.500 V 64.700 C 123.200 64.600 123.100 64.700 123.200 64.700 H 126.100 C 126.155 64.700 126.200 64.655 126.200 64.600 V 58.600 C 126.200 58.545 126.155 58.500 126.100 58.500 H 123.200 C 123.100 58.500 123.200 58.600 123.200 58.500 V 52.700 C 123.200 52.600 123.100 52.700 123.200 52.700 H 126.100 C 126.155 52.700 126.200 52.655 126.200 52.600 V 46.600 C 126.200 46.545 126.155 46.500 126.100 46.500 H 123.200 C 123.100 46.500 123.200 46.600 123.200 46.500 V 40.700 C 123.200 40.600 123.100 40.700 123.200 40.700 H 126.100 C 126.155 40.700 126.200 40.655 126.200 40.600 V 34.600 C 126.200 34.545 126.155 34.500 126.100 34.500 H 123.200 C 123.100 34.500 123.200 34.600 123.200 34.500 V 28.700 C 123.200 28.600 123.100 28.700 123.200 28.700 H 126.100 C 126.155 28.700 126.200 28.655 126.200 28.600 V 22.600 C 126.200 22.545 126.155 22.500 126.100 22.500 H 123.200 C 123.100 22.500 123.200 22.600 123.200 22.500 V 13.100 C 123.200 13.045 123.155 13.000 123.100 13.000 H 113.200 C 113.100 13.000 113.200 13.100 113.200 13.000 V 10.100 C 113.200 10.045 113.155 10.000 113.100 10.000 H 107.100 C 107.045 10.000 107.000 10.045 107.000 10.100 V 13.000 C 107.000 13.100 107.100 13.000 107.000 13.000 H 101.200 C 101.100 13.000 101.200 13.100 101.200 13.000 V 10.100 C 101.200 10.045 101.155 10.000 101.100 10.000 H 95.100 C 95.045 10.000 95.000 10.045 95.000 10.100 V 13.000 C 95.000 13.100 95.100 13.000 95.000 13.000 H 89.200 C 89.100 13.000 89.200 13.100 89.200 13.000 V 10.100 C 89.200 10.045 89.155 10.000 89.100 10.000 H 83.100 C 83.045 10.000 83.000 10.045 83.000 10.100 V 13.000 C 83.000 13.100 83.100 13.000 83.000 13.000 H 77.200 C 77.100 13.000 77.200 13.100 77.200 13.000 V 10.100 C 77.200 10.045 77.155 10.000 77.100 10.000 H 71.100 C 71.045 10.000 71.000 10.045 71.000 10.100 V 13.000 C 71.000 13.100 71.100 13.000 71.000 13.000 H 65.200 C 65.100 13.000 65.200 13.100 65.200 13.000 V 10.100 C 65.200 10.045 65.155 10.000 65.100 10.000 H 59.100 C 59.045 10.000 59.000 10.045 59.000 10.100 V 13.000 C 59.000 13.100 59.100 13.000 59.000 13.000 H 53.200 C 53.100 13.000 53.200 13.100 53.200 13.000 V 10.100 C 53.200 10.045 53.155 10.000 53.100 10.000 H 47.100 C 47.045 10.000 47.000 10.045 47.000 10.100 V 13.000 C 47.000 13.100 47.100 13.000 47.000 13.000 H 41.200 C 41.100 13.000 41.200 13.100 41.200 13.000 V 10.100 C 41.200 10.045 41.155 10.000 41.100 10.000 H 35.100 C 35.045 10.000 35.000 10.045 35.000 10.100 V 13.000 C 35.000 13.100 35.100 13.000 35.000 13.000 H 29.200 C 29.100 13.000 29.200 13.100 29.200 13.000 V 10.100 C 29.200 10.045 29.155 10.000 29.100 10.000 H 23.100 C 23.045 10.000 23.000 10.045 23.000 10.100 V 13.000 C 23.000 13.100 23.100 13.000 23.000 13.000 H 13.100 C 13.045 13.000 13.000 13.045 13.000 13.100 V 22.500 C 13.000 22.600 13.100 22.500 13.000 22.500 H 10.100 C 10.045 22.500 10.000 22.545 10.000 22.600 V 28.600 C 10.000 28.655 10.045 28.700 10.100 28.700 H 13.000 C 13.100 28.700 13.000 28.600 13.000 28.700 V 34.500 C 13.000 34.600 13.100 34.500 13.000 34.500 H 10.100 C 10.045 34.500 10.000 34.545 10.000 34.600 V 40.600 C 10.000 40.655 10.045 40.700 10.100 40.700 H 13.000 C 13.100 40.700 13.000 40.600 13.000 40.700 V 46.500 C 13.000 46.600 13.100 46.500 13.000 46.500 H 10.100 C 10.045 46.500 10.000 46.545 10.000 46.600 V 52.600 C 10.000 52.655 10.045 52.700 10.100 52.700 H 13.000 C 13.100 52.700 13.000 52.600 13.000 52.700 V 58.500 C 13.000 58.600 13.100 58.500 13.000 58.500 H 10.100 C 10.045 58.500 10.000 58.545 10.000 58.600 V 64.600 C 10.000 64.655 10.045 64.700 10.100 64.700 H 13.000 C 13.100 64.700 13.000 64.600 13.000 64.700 V 70.500 C 13.000 70.600 13.100 70.500 13.000 70.500 H 10.100 C 10.045 70.500 10.000 70.545 10.000 70.600 V 76.600 C 10.000 76.655 10.045 76.700 10.100 76.700 H 13.000 C 13.100 76.700 13.000 76.600 13.000 76.700 V 82.500 C 13.000 82.600 13.100 82.500 13.000 82.500 H 10.100 C 10.045 82.500 10.000 82.545 10.000 82.600 V 88.600 C 10.000 88.655 10.045 88.700 10.100 88.700 H 13.000 C 13.100 88.700 13.000 88.600 13.000 88.700 V 98.100 C 13.000 98.155 13.045 98.200 13.100 98.200 Z" stroke="rgb(0,0,0)" stroke-width="0.20" />
</g>
<g id="p-4" style="fill:none;stroke-linecap:round;stroke-linejoin:round;">
  <path d="M 130.800 196.600 H 140.300 C 140.355 196.600 140.400 196.555 140.400 196.500 V 193.600 C 140.400 193.500 140.300 193.600 140.400 193.600 H 146.200 C 146.300 193.600 146.200 193.500 146.200 193.600 V 196.500 C 146.200 196.555 146.245 196.600 146.300 196.600 H 152.300 C 152.355 196.600 152.400 196.555 152.400 196.500 V 193.600 C 152.400 193.500 152.300 193.600 152.400 193.600 H 158.200 C 158.300 193.600 158.200 193.500 158.200 193.600 V 196.500 C 158.200 196.555 158.245 196.600 158.300 196.600 H 164.300 C 164.355 196.600 164.400 196.555 164.400 196.500 V 193.600 C 164.400 193.500 164.300 193.600 164.400 193.600 H 170.200 C 170.300 193.600 170.200 193.500 170.200 193.600 V 196.500 C 170.200 196.555 170.245 196.600 170.300 196.600 H 176.300 C 176.355 196.600 176.400 196.555 176.400 196.500 V 193.600 C 176.400 193.500 176.300 193.600 176.400 193.600 H 182.200 C 182.300 193.600 182.200 193.500 182.200 193.600 V 196.500 C 182.200 196.555 182.245 196.600 182.300 196.600 H 188.300 C 188.355 196.600 188.400 196.555 188.400 196.500 V 193.600 C 188.400 193.500 188.300 193.600 188.400 193.600 H 194.200 C 194.300 193.600 194.200 193.500 194.200 193.600 V 196.500 C 194.200 196.555 194.245 196.600 194.300 196.600 H 200.300 C 200.355 196.600 200.400 196.555 200.400 196.500 V 193.600 C 200.400 193.500 200.300 193.600 200.400 193.600 H 206.200 C 206.300 193.600 206.200 193.500 206.200 193.600 V 196.500 C 206.200 196.555 206.245 196.600 206.300 196.600 H 215.800 C 215.855 196.600 215.900 196.555 215.900 196.500 V 188.600 C 215.900 188.500 215.800 188.600 215.900 188.600 H 218.800 C 218.855 188.600 218.900 188.555 218.900 188.500 V 182.500 C 218.900 182.445 218.855 182.400 218.800 182.400 H 215.900 C 215.800 182.400 215.900 182.500 215.900 182.400 V 176.600 C 215.900 176.500 215.800 176.600 215.900 176.600 H 218.800 C 218.855 176.600 218.900 176.555 218.900 176.500 V 170.500 C 218.900 170.445 218.855 170.400 218.800 170.400 H 215.900 C 215.800 170.400 215.900 170.500 215.900 170.400 V 164.600 C 215.900 164.500 215.800 164.600 215.900 164.600 H 218.800 C 218.855 164.600 218.900 164.555 218.900 164.500 V 158.500 C 218.900 158.445 218.855 158.400 218.800 158.400 H 215.900 C 215.800 158.400 215.900 158.500 215.900 158.400 V 150.500 C 215.900 150.445 215.855 150.400 215.800 150.400 H 130.800 C 130.745 150.400 130.700 150.445 130.700 150.500 V 158.400 C 130.700 158.500 130.800 158.400 130.700 158.400 H 127.800 C 127.745 158.400 127.700 158.445 127.700 158.500 V 164.500 C 127.700 164.555 127.745 164.600 127.800 164.600 H 130.700 C 130.800 164.600 130.700 164.500 130.700 164.600 V 170.400 C 130.700 170.500 130.800 170.400 130.700 170.400 H 127.800 C 127.745 170.400 127.700 170.445 127.700 170.500 V 176.500 C 127.700 176.555 127.745 176.600 127.800 176.600 H 130.700 C 130.800 176.600 130.700 176.500 130.700 176.600 V 182.400 C 130.700 182.500 130.800 182.400 130.700 182.400 H 127.800 C 127.745 182.400 127.700 182.445 127.700 182.500 V 188.500 C 127.700 188.555 127.745 188.600 127.800 188.600 H 130.700 C 130.800 188.600 130.700 188.500 130.700 188.600 V 196.500 C 130.700 196.555 130.745 196.600 130.800 196.600 Z" stroke="rgb(0,0,0)" stroke-width="0.20" />
</g>
<g id="p-5" style="fill:none;stroke-linecap:round;stroke-linejoin:round;">
  <path d="M 130.800 148.900 H 140.300 C 140.355 148.900 140.400 148.855 140.400 148.800 V 145.900 C 140.400 145.800 140.300 145.900 140.400 145.900 H 146.200 C 146.300 145.900 146.200 145.800 146.200 145.900 V 148.800 C 146.200 148.855 146.245 148.900 146.300 148.900 H 152.300 C 152.355 148.900 152.400 148.855 152.400 148.800 V 145.900 C 152.400 145.800 152.300 145.900 152.400 145.900 H 158.200 C 158.300 145.900 158.200 145.800 158.200 145.900 V 148.800 C 158.200 148.855 158.245 148.900 158.300 148.900 H 164.300 C 164.355 148.900 164.400 148.855 164.400 148.800 V 145.900 C 164.400 145.800 164.300 145.900 164.400 145.900 H 170.200 C 170.300 145.900 170.200 145.800 170.200 145.900 V 148.800 C 170.200 148.855 170.245 148.900 170.300 148.900 H 176.300 C 176.355 148.900 176.400 148.855 176.400 148.800 V 145.900 C 176.400 145.800 176.300 145.900 176.400 145.900 H 182.200 C 182.300 145.900 182.200 145.800 182.200 145.900 V 148.800 C 182.200 148.855 182.245 148.900 182.300 148.900 H 188.300 C 188.355 148.900 188.400 148.855 188.400 148.800 V 145.900 C 188.400 145.800 188.300 145.900 188.400 145.900 H 194.200 C 194.300 145.900 194.200 145.800 194.200 145.900 V 148.800 C 194.200 148.855 194.245 148.900 194.300 148.900 H 200.300 C 200.355 148.900 200.400 148.855 200.400 148.800 V 145.900 C 200.400 145.800 200.300 145.900 200.400 145.900 H 206.200 C 206.300 145.900 206.200 145.800 206.200 145.900 V 148.800 C 206.200 148.855 206.245 148.900 206.300 148.900 H 215.800 C 215.855 148.900 215.900 148.855 215.900 148.800 V 140.900 C 215.900 140.800 215.800 140.900 215.900 140.900 H 218.800 C 218.855 140.900 218.900 140.855 218.900 140.800 V 134.800 C 218.900 134.745 218.855 134.700 218.800 134.700 H 215.900 C 215.800 134.700 215.900 134.800 215.900 134.700 V 128.900 C 215.900 128.800 215.800 128.900 215.900 128.900 H 218.800 C 218.855 128.900 218.900 128.855 218.900 128.800 V 122.800 C 218.900 122.745 218.855 122.700 218.800 122.700 H 215.900 C 215.800 122.700 215.900 122.800 215.900 122.700 V 116.900 C 215.900 116.800 215.800 116.900 215.900 116.900 H 218.800 C 218.855 116.900 218.900 116.855 218.900 116.800 V 110.800 C 218.900 110.745 218.855 110.700 218.800 110.700 H 215.900 C 215.800 110.700 215.900 110.800 215.900 110.700 V 102.800 C 215.900 102.745 215.855 102.700 215.800 102.700 H 130.800 C 130.745 102.700 130.700 102.745 130.700 102.800 V 110.700 C 130.700 110.800 130.800 110.700 130.700 110.700 H 127.800 C 127.745 110.700 127.700 110.745 127.700 110.800 V 116.800 C 127.700 116.855 127.745 116.900 127.800 116.900 H 130.700 C 130.800 116.900 130.700 116.800 130.700 116.900 V 122.700 C 130.700 122.800 130.800 122.700 130.700 122.700 H 127.800 C 127.745 122.700 127.700 122.745 127.700 122.800 V 128.800 C 127.700 128.855 127.745 128.900 127.800 128.900 H 130.700 C 130.800 128.900 130.700 128.800 130.700 128.900 V 134.700 C 130.700 134.800 130.800 134.700 130.700 134.700 H 127.800 C 127.745 134.700 127.700 134.745 127.700 134.800 V 140.800 C 127.700 140.855 127.745 140.900 127.800 140.900 H 130.700 C 130.800 140.900 130.700 140.800 130.700 140.900 V 148.800 C 130.700 148.855 130.745 148.900 130.800 148.900 Z" stroke="rgb(0,0,0)" stroke-width="0.20" />
</g>
</svg>